<?xml version="1.0" encoding="UTF-8" standalone="no"?>
<svg width="195px" height="8px" viewBox="0 0 195 8" version="1.1" xmlns="http://www.w3.org/2000/svg" xmlns:xlink="http://www.w3.org/1999/xlink" xmlns:sketch="http://www.bohemiancoding.com/sketch/ns">
    <!-- Generator: Sketch 3.4.2 (15857) - http://www.bohemiancoding.com/sketch -->
    <title>bottom</title>
    <desc>Created with Sketch.</desc>
    <defs></defs>
    <g id="Page-1" stroke="none" stroke-width="1" fill="none" fill-rule="evenodd" sketch:type="MSPage">
        <g id="Letter" sketch:type="MSArtboardGroup" transform="translate(-210.000000, -146.000000)" fill="#FCD4D4">
            <g id="letter" sketch:type="MSLayerGroup" transform="translate(106.000000, 86.000000)">
                <g id="title" transform="translate(8.000000, 0.000000)" sketch:type="MSShapeGroup">
                    <g id="bottom" transform="translate(193.500000, 63.738938) scale(1, -1) translate(-193.500000, -63.738938) translate(96.000000, 60.000000)">
                        <path d="M164.112509,6.35783234 C166.695828,6.36703588 169.377509,6.46597393 171.919987,5.92526597 C174.731093,5.32646066 176.938793,3.33561995 179.705032,2.71898278 C179.547996,2.65053145 179.391536,2.58208013 179.235076,2.5136288 C179.256934,2.53836331 178.597155,3.50646066 178.615563,3.76473499 C178.641447,4.12597393 178.93366,4.42451375 179.271315,4.52690314 C179.84481,4.70119517 180.456846,4.26575269 180.945209,4.03163765 C182.23658,3.4126996 183.528527,2.79376154 184.819899,2.17482349 C184.590386,1.98442526 184.360872,1.79460225 184.130784,1.60477924 C183.86158,2.39570844 183.592377,3.18606243 183.323173,3.97699163 C183.198925,4.3416819 183.710297,4.67876154 184.020341,4.55393853 C185.774191,3.84756685 187.431978,2.98646066 189.02189,1.96429252 C188.787775,1.83429252 188.55366,1.70429252 188.319545,1.57429252 C188.42481,2.09946951 188.354633,2.58495623 188.110164,3.03075269 C187.979589,3.33619517 188.442642,3.71181464 188.725076,3.64336331 C190.902863,3.11415977 192.832155,2.13283234 194.553217,0.697655348 C194.294943,0.586637649 194.036669,0.475619949 193.778394,0.36460225 C194.351315,2.85646066 191.375695,4.30544296 189.428571,4.80473499 C187.821978,5.21601818 186.137155,5.29424827 184.486846,5.3626996 C183.240341,5.41446951 181.992686,5.43805358 180.745607,5.46336331 C176.483793,5.54907128 172.220828,5.59681464 167.958439,5.63765535 C157.515872,5.73774384 147.072731,5.79929252 136.629589,5.87061995 C133.208173,5.89420402 129.782731,5.99716862 126.368217,6.04491198 C125.85512,6.05181464 126.175518,6.74495623 126.556315,6.73920402 C134.865386,6.62300933 143.199766,6.68800933 151.515164,6.61265535 C161.517686,6.52234561 171.52366,6.46482349 181.524456,6.24796508 C183.057421,6.21460225 184.590386,6.1806642 186.121049,6.08632791 C189.11335,5.9016819 195.614501,4.85190314 194.596934,0.426726144 C194.523881,0.109779241 194.089589,-0.128937573 193.822686,0.0936730467 C192.202288,1.44544296 190.361005,2.36407128 188.310917,2.86278809 C188.515695,3.06699163 188.721049,3.27119517 188.925828,3.47539871 C189.201359,2.83000048 189.239324,2.32323057 189.135209,1.63641641 C189.096669,1.38101818 188.677908,1.08880579 188.432863,1.24641641 C186.843527,2.26915977 185.185164,3.12738986 183.435341,3.84123942 C183.667731,4.03336331 183.90012,4.22606243 184.133085,4.41818632 C184.398837,3.62553145 184.665164,2.83287659 184.930917,2.04079694 C185.046536,1.69623942 184.548394,1.32234561 184.241801,1.47075269 C183.383571,1.88663765 182.525341,2.3025226 181.666536,2.71840756 C181.237421,2.92663765 180.808306,3.13429252 180.379191,3.3425226 C180.1422,3.45699163 179.624501,3.88323057 179.621049,3.5426996 C179.615297,2.96805358 180.363085,2.83345181 179.792465,2.20358455 C179.682023,2.08221287 179.498527,1.95738986 179.322509,1.99880579 C176.672465,2.61889429 174.583262,4.53323057 171.929191,5.20163765 C169.34012,5.85393853 166.6222,5.74349606 163.975032,5.85106243 C163.599987,5.8665934 163.835828,6.3566819 164.112509,6.35783234" id="Fill-141"></path>
                        <path d="M30.5800758,5.85106243 C27.926005,5.74522172 25.1891023,5.86256685 22.5919785,5.21544296 C19.931005,4.55163765 17.8343236,2.63327482 15.1785271,2.01433676 C15.0577307,1.98615092 14.9340581,1.98154915 14.8431731,2.08106243 C14.3404298,2.63500048 15.0876422,2.86393853 15.0945448,3.37300933 C15.3148546,3.60194738 15.2170669,3.65084119 14.8006068,3.51911552 C14.5555625,3.55880579 14.3335271,3.50933676 14.1345006,3.37243411 C13.6921554,3.22517747 13.2670669,2.9525226 12.8454298,2.74831906 C11.9860493,2.33300933 11.1266687,1.91712437 10.2678634,1.50123942 C10.0446776,1.39367305 9.64604925,1.44774384 9.76166872,1.79230137 C10.0279962,2.58380579 10.2937484,3.37531021 10.5600758,4.16681464 C10.6946776,4.05349606 10.8292793,3.94017747 10.9644563,3.82628367 C9.25087226,3.1285403 7.62874837,2.27836331 6.07335014,1.27747836 C5.85131474,1.13482349 5.58326164,1.21132791 5.54357137,1.47535446 C5.43773067,2.1725226 5.53321739,2.68101818 5.8070227,3.32296508 C5.92954483,3.17513322 6.05149173,3.02672614 6.17458907,2.87889429 C4.13658022,2.38305358 2.32923509,1.48225712 0.7180404,0.137965082 C0.577686418,0.0206199494 0.162951905,-0.118008369 0.09565102,0.173053578 C-0.67974721,3.54442526 3.43538553,5.32243411 6.0750758,5.78778809 C8.06534129,6.13867305 10.1119785,6.16685889 12.1304298,6.21805358 C16.2547661,6.32274384 20.380828,6.36415977 24.5057395,6.41247836 C35.7035714,6.54477924 46.9019785,6.63796508 58.1003855,6.72654915 C61.8882174,6.75703588 65.6921554,6.68628367 69.4748103,6.73920402 C69.9873324,6.7466819 69.666359,6.05008898 69.286713,6.04491198 C61.42689,5.93446951 53.5538369,5.83438101 45.6876864,5.7826111 C35.6460493,5.71703588 25.6032616,5.66584119 15.5627749,5.4955757 C13.9268457,5.46796508 12.2903413,5.44035446 10.6544121,5.38628367 C9.60003155,5.35177039 8.54450058,5.30632791 7.4941466,5.20738986 C5.176005,4.98938101 0.141093498,3.9815934 0.913615622,0.618274817 C0.705960754,0.630354463 0.498881108,0.641858887 0.291226241,0.653363312 C2.02149173,2.0965934 3.98472182,3.09517747 6.17458907,3.62725712 C6.49843863,3.70606243 6.66927934,3.4805757 6.54215544,3.18318632 C6.31436783,2.70575269 6.26259792,2.22314207 6.38684571,1.73592968 C6.21025279,1.80150491 6.03365987,1.86765535 5.85706695,1.93323057 C7.47976606,2.97725712 9.17551828,3.84699163 10.9644563,4.56831906 C11.1905183,4.65977924 11.4556953,4.4826111 11.3688369,4.22836331 C11.0996333,3.43685889 10.8304298,2.64477924 10.5612262,1.85327482 C10.3926864,1.94991198 10.2241466,2.04712437 10.0556068,2.14433676 C11.431536,2.80469075 12.80689,3.46792083 14.1845448,4.12539871 C14.6222882,4.33420402 15.4540581,4.86628367 15.911359,4.38137216 C16.2265802,4.0465934 16.0028192,3.63646066 15.8262262,3.30283234 C15.6093678,2.8926996 15.261359,2.78053145 15.885474,2.88119517 C16.6787041,3.00889429 17.5254298,3.58238986 18.2220227,3.96721287 C19.9356068,4.91287659 21.6181289,5.69345181 23.5600758,6.03225712 C25.9069785,6.44181464 28.3441908,6.36588544 30.7175537,6.35783234 C31.0943236,6.3566819 30.8533059,5.86199163 30.5800758,5.85106243" id="Fill-142"></path>
                        <path d="M74.7110493,6.80247836 C74.8531289,6.77371729 74.9825537,6.684558 75.0348988,6.54823057 C75.1447661,6.25889429 74.8531289,5.89592968 74.541359,5.96840756 C74.2272882,6.02477924 74.1007395,6.4705757 74.3141466,6.69376154 C74.4148103,6.79960225 74.5689696,6.83123942 74.7110493,6.80247836" id="Fill-143"></path>
                        <path d="M74.7110493,6.80247836 C74.8531289,6.77371729 74.9825537,6.684558 75.0348988,6.54823057 C75.1447661,6.25889429 74.8531289,5.89592968 74.541359,5.96840756 C74.2272882,6.02477924 74.1007395,6.4705757 74.3141466,6.69376154 C74.4148103,6.79960225 74.5689696,6.83123942 74.7110493,6.80247836 L74.7110493,6.80247836 Z" id="Stroke-144"></path>
                        <path d="M81.5653855,7.1205757 C81.7189696,7.08491198 81.8575979,7.00265535 81.951359,6.87035446 C82.141182,6.60115092 82.1066687,6.21402703 81.9231731,5.94022172 C81.7396776,5.66699163 81.4440139,5.37535446 81.1161377,5.40699163 C80.5719785,5.45991198 80.401713,6.34287659 80.7002528,6.79845181 C80.8808723,7.074558 81.2536156,7.19305358 81.5653855,7.1205757" id="Fill-145"></path>
                        <path d="M81.5653855,7.1205757 C81.7189696,7.08491198 81.8575979,7.00265535 81.951359,6.87035446 C82.141182,6.60115092 82.1066687,6.21402703 81.9231731,5.94022172 C81.7396776,5.66699163 81.4440139,5.37535446 81.1161377,5.40699163 C80.5719785,5.45991198 80.401713,6.34287659 80.7002528,6.79845181 C80.8808723,7.074558 81.2536156,7.19305358 81.5653855,7.1205757 L81.5653855,7.1205757 Z" id="Stroke-146"></path>
                        <path d="M88.3397661,7.29256685 C88.6722439,7.16831906 88.950651,6.89969075 89.0150758,6.54708013 C89.1462262,5.82690314 88.316182,5.11880579 87.6247661,5.38628367 C86.9293236,5.63938101 86.7694121,6.71792083 87.341182,7.17407128 C87.6213147,7.39783234 88.0072882,7.41738986 88.3397661,7.29256685" id="Fill-147"></path>
                        <path d="M88.3397661,7.29256685 C88.6722439,7.16831906 88.950651,6.89969075 89.0150758,6.54708013 C89.1462262,5.82690314 88.316182,5.11880579 87.6247661,5.38628367 C86.9293236,5.63938101 86.7694121,6.71792083 87.341182,7.17407128 C87.6213147,7.39783234 88.0072882,7.41738986 88.3397661,7.29256685 L88.3397661,7.29256685 Z" id="Stroke-148"></path>
                        <path d="M95.2562262,7.23907128 C95.7267572,6.97216862 95.9516687,6.28132791 95.7020227,5.77398278 C95.4978192,5.35867305 95.0618015,5.10615092 94.5993236,5.0486288 C94.4457395,5.0946465 94.340474,5.12225712 94.340474,5.12225712 C93.8941023,5.24075269 93.5794563,5.70553145 93.5949873,6.16743411 C93.6105183,6.62876154 93.9274652,7.0555757 94.3491023,7.24367305 C94.5331731,7.32592968 94.7379519,7.36734561 94.9381289,7.34376154 C95.0531731,7.32995623 95.1601643,7.29314207 95.2562262,7.23907128" id="Fill-149"></path>
                        <path d="M95.2562262,7.23907128 C95.7267572,6.97216862 95.9516687,6.28132791 95.7020227,5.77398278 C95.4978192,5.35867305 95.0618015,5.10615092 94.5993236,5.0486288 C94.4457395,5.0946465 94.340474,5.12225712 94.340474,5.12225712 C93.8941023,5.24075269 93.5794563,5.70553145 93.5949873,6.16743411 C93.6105183,6.62876154 93.9274652,7.0555757 94.3491023,7.24367305 C94.5331731,7.32592968 94.7379519,7.36734561 94.9381289,7.34376154 C95.0531731,7.32995623 95.1601643,7.29314207 95.2562262,7.23907128 L95.2562262,7.23907128 Z" id="Stroke-150"></path>
                        <path d="M121.377598,6.8985403 C121.519102,6.92730137 121.673262,6.89508898 121.774501,6.78982349 C121.987332,6.56663765 121.860784,6.12084119 121.547288,6.06389429 C121.235518,5.99199163 120.943881,6.35495623 121.053748,6.64429252 C121.105518,6.78061995 121.235518,6.86977924 121.377598,6.8985403" id="Fill-151"></path>
                        <path d="M121.377598,6.8985403 C121.519102,6.92730137 121.673262,6.89508898 121.774501,6.78982349 C121.987332,6.56663765 121.860784,6.12084119 121.547288,6.06389429 C121.235518,5.99199163 120.943881,6.35495623 121.053748,6.64429252 C121.105518,6.78061995 121.235518,6.86977924 121.377598,6.8985403 L121.377598,6.8985403 Z" id="Stroke-152"></path>
                        <path d="M114.522686,7.21663765 C114.835032,7.28911552 115.207775,7.17061995 115.388394,6.89451375 C115.686359,6.43836331 115.517244,5.5525226 114.971359,5.50075269 C114.643483,5.46969075 114.34897,5.76305358 114.165474,6.03628367 C113.981978,6.31008898 113.94689,6.69663765 114.137288,6.96584119 C114.231049,7.09871729 114.369678,7.18097393 114.522686,7.21663765" id="Fill-153"></path>
                        <path d="M114.522686,7.21663765 C114.835032,7.28911552 115.207775,7.17061995 115.388394,6.89451375 C115.686359,6.43836331 115.517244,5.5525226 114.971359,5.50075269 C114.643483,5.46969075 114.34897,5.76305358 114.165474,6.03628367 C113.981978,6.31008898 113.94689,6.69663765 114.137288,6.96584119 C114.231049,7.09871729 114.369678,7.18097393 114.522686,7.21663765 L114.522686,7.21663765 Z" id="Stroke-154"></path>
                        <path d="M107.748306,7.3886288 C108.080784,7.51287659 108.467332,7.49389429 108.747465,7.27013322 C109.319235,6.81398278 109.159324,5.73544296 108.463306,5.48177039 C107.772465,5.21486774 106.942421,5.92296508 107.073571,6.64314207 C107.137421,6.99517747 107.415828,7.26380579 107.748306,7.3886288" id="Fill-155"></path>
                        <path d="M107.748306,7.3886288 C108.080784,7.51287659 108.467332,7.49389429 108.747465,7.27013322 C109.319235,6.81398278 109.159324,5.73544296 108.463306,5.48177039 C107.772465,5.21486774 106.942421,5.92296508 107.073571,6.64314207 C107.137421,6.99517747 107.415828,7.26380579 107.748306,7.3886288 L107.748306,7.3886288 Z" id="Stroke-156"></path>
                        <path d="M100.831846,7.334558 C100.928483,7.38920402 101.034899,7.42601818 101.149943,7.43982349 C101.35012,7.46340756 101.554899,7.42199163 101.73897,7.33973499 C102.160607,7.15106243 102.478129,6.72482349 102.493085,6.26292083 C102.508616,5.8015934 102.194545,5.33681464 101.748173,5.21831906 C101.748173,5.21831906 101.642908,5.19013322 101.488173,5.14929252 C101.02627,5.20221287 100.590828,5.45473499 100.386049,5.87004473 C100.136978,6.37681464 100.36189,7.06823057 100.831846,7.334558" id="Fill-157"></path>
                        <path d="M100.831846,7.334558 C100.928483,7.38920402 101.034899,7.42601818 101.149943,7.43982349 C101.35012,7.46340756 101.554899,7.42199163 101.73897,7.33973499 C102.160607,7.15106243 102.478129,6.72482349 102.493085,6.26292083 C102.508616,5.8015934 102.194545,5.33681464 101.748173,5.21831906 C101.748173,5.21831906 101.642908,5.19013322 101.488173,5.14929252 C101.02627,5.20221287 100.590828,5.45473499 100.386049,5.87004473 C100.136978,6.37681464 100.36189,7.06823057 100.831846,7.334558 L100.831846,7.334558 Z" id="Stroke-158"></path>
                    </g>
                </g>
            </g>
        </g>
    </g>
</svg>