<?xml version="1.0" encoding="UTF-8" standalone="no"?>
<svg width="612px" height="58px" viewBox="0 0 612 58" version="1.1" xmlns="http://www.w3.org/2000/svg" xmlns:xlink="http://www.w3.org/1999/xlink" xmlns:sketch="http://www.bohemiancoding.com/sketch/ns">
    <!-- Generator: Sketch 3.4.2 (15857) - http://www.bohemiancoding.com/sketch -->
    <title>header</title>
    <desc>Created with Sketch.</desc>
    <defs></defs>
    <g id="Page-1" stroke="none" stroke-width="1" fill="none" fill-rule="evenodd" sketch:type="MSPage">
        <g id="Letter" sketch:type="MSArtboardGroup" transform="translate(0.000000, -17.000000)">
            <g id="header" sketch:type="MSLayerGroup" transform="translate(-1.000000, 12.000000)">
                <path d="M1,38.703125 C82.7890625,47.8984375 519.179688,32.1054687 613,5.92578125" id="Path-234" stroke="#FCD4D4" sketch:type="MSShapeGroup" transform="translate(307.000000, 23.632948) rotate(-359.000000) translate(-307.000000, -23.632948) "></path>
                <path d="M1,38.703125 C82.7890625,47.8984375 519.179688,32.1054687 613,5.92578125" id="Path-234-Copy" stroke="#C4F6DA" stroke-linecap="square" sketch:type="MSShapeGroup"></path>
                <g id="esfera" transform="translate(543.285304, 27.074371) rotate(12.000000) translate(-543.285304, -27.074371) translate(536.051262, 17.074371)" fill="#AECDF2" sketch:type="MSShapeGroup">
                    <path d="M7.23276596,19.967234 C10.8582979,19.967234 13.8570213,17.2634043 14.3382979,13.7680851 C14.3412766,13.7480851 14.3502128,13.7297872 14.3502128,13.7093617 C14.3502128,13.7059574 14.3485106,13.7038298 14.3485106,13.7012766 C14.3868085,13.4008511 14.4131915,13.0970213 14.4131915,12.786383 C14.4131915,11.9042553 14.2451064,11.0612766 13.952766,10.2795745 C13.9446809,10.2497872 13.9361702,10.2217021 13.9217021,10.1948936 C13.3808511,8.80255319 12.4225532,7.6187234 11.1944681,6.80297872 C11.16,6.75957447 10.4391489,5.8293617 10.4391489,3.11404255 C10.4391489,2.89829787 10.2646809,2.72340426 10.0480851,2.72340426 L8.65617021,2.72340426 L8.65617021,1.59319149 C8.65617021,0.946808511 8.1306383,0.420851064 7.48425532,0.420851064 L6.99659574,0.420851064 C6.35021277,0.420851064 5.82425532,0.946808511 5.82425532,1.59319149 L5.82425532,2.72340426 L4.43191489,2.72340426 C4.21617021,2.72340426 4.0412766,2.89829787 4.0412766,3.11404255 C4.0412766,5.66042553 3.39957447,6.64595745 3.29744681,6.78680851 C1.34553191,8.07191489 0.0519148936,10.2795745 0.0519148936,12.786383 C0.0519148936,16.7455319 3.27319149,19.967234 7.23276596,19.967234 L7.23276596,19.967234 Z M7.23276596,19.1855319 C4.62723404,19.1855319 2.38425532,17.6178723 1.38723404,15.3787234 C2.0293617,15.5485106 3.06212766,15.7280851 4.58170213,15.7280851 C5.84042553,15.7280851 6.94595745,15.4017021 8.11617021,15.0570213 C9.54340426,14.6365957 11.1574468,14.1685106 13.4923404,14.1114894 C12.8804255,17.0055319 10.3068085,19.1855319 7.23276596,19.1855319 L7.23276596,19.1855319 Z M13.6319149,12.786383 C13.6319149,12.9689362 13.62,13.1485106 13.6046809,13.3268085 C11.0978723,13.3719149 9.39574468,13.8651064 7.89574468,14.3080851 C6.73276596,14.6506383 5.72808511,14.9468085 4.58212766,14.9468085 C2.50978723,14.9468085 1.42297872,14.5987234 1.06212766,14.4544681 C0.91787234,13.9217021 0.834042553,13.3642553 0.834042553,12.7868085 C0.834042553,12.5012766 0.859148936,12.2221277 0.895744681,11.946383 C1.48085106,12.1370213 2.60680851,12.3961702 4.43276596,12.3961702 C5.69404255,12.3961702 6.75574468,12.0689362 7.87957447,11.7234043 C9.28255319,11.2923404 10.8740426,10.8106383 13.3038298,10.7748936 C13.513617,11.4080851 13.6319149,12.0829787 13.6319149,12.786383 L13.6319149,12.786383 Z M6.60553191,1.59319149 C6.60553191,1.37787234 6.78085106,1.20255319 6.99617021,1.20255319 L7.48382979,1.20255319 C7.69914894,1.20255319 7.87446809,1.37787234 7.87446809,1.59319149 L7.87446809,2.72340426 L6.60553191,2.72340426 L6.60553191,1.59319149 L6.60553191,1.59319149 Z M4.81787234,3.50468085 L9.66255319,3.50468085 C9.69319149,4.72 9.86382979,5.58553191 10.0531915,6.18382979 C9.18680851,5.81234043 8.23404255,5.60510638 7.23276596,5.60510638 C6.23914894,5.60510638 5.29148936,5.80851064 4.43021277,6.17531915 C4.61829787,5.57744681 4.78765957,4.71404255 4.81787234,3.50468085 L4.81787234,3.50468085 Z M7.23276596,6.38680851 C9.75957447,6.38680851 11.9434043,7.86340426 12.9829787,9.99574468 C10.613617,10.0668085 9.04425532,10.5476596 7.64978723,10.9765957 C6.53744681,11.3187234 5.57617021,11.6140426 4.43234043,11.6140426 C2.57234043,11.6140426 1.50808511,11.3340426 1.04765957,11.1719149 C1.76595745,8.42340426 4.26255319,6.38680851 7.23276596,6.38680851 L7.23276596,6.38680851 Z" id="Shape"></path>
                    <path d="M3.79702128,12.6557447 C3.23148936,12.6557447 2.77106383,13.1157447 2.77106383,13.6812766 C2.77106383,14.2468085 3.23148936,14.707234 3.79702128,14.707234 C4.36255319,14.707234 4.82297872,14.2468085 4.82297872,13.6812766 C4.82297872,13.1157447 4.36255319,12.6557447 3.79702128,12.6557447 L3.79702128,12.6557447 Z M3.79702128,13.9259574 C3.66255319,13.9259574 3.55276596,13.8170213 3.55276596,13.6817021 C3.55276596,13.5476596 3.66255319,13.4378723 3.79702128,13.4378723 C3.93148936,13.4378723 4.0412766,13.5476596 4.0412766,13.6817021 C4.0412766,13.8170213 3.93148936,13.9259574 3.79702128,13.9259574 L3.79702128,13.9259574 Z" id="Shape"></path>
                    <path d="M6.74297872,13.046383 C6.74297872,13.6119149 7.20340426,14.0723404 7.7693617,14.0723404 C8.33446809,14.0723404 8.79489362,13.6119149 8.79489362,13.046383 C8.79489362,12.4808511 8.33446809,12.0208511 7.7693617,12.0208511 C7.20340426,12.0208511 6.74297872,12.4808511 6.74297872,13.046383 L6.74297872,13.046383 Z M8.01319149,13.046383 C8.01319149,13.1812766 7.90382979,13.2906383 7.7693617,13.2906383 C7.63446809,13.2906383 7.52468085,13.1812766 7.52468085,13.046383 C7.52468085,12.9123404 7.63404255,12.8025532 7.7693617,12.8025532 C7.90382979,12.8025532 8.01319149,12.9123404 8.01319149,13.046383 L8.01319149,13.046383 Z" id="Shape"></path>
                    <path d="M11.3493617,13.1770213 C11.9148936,13.1770213 12.3753191,12.7170213 12.3753191,12.1514894 C12.3753191,11.5859574 11.9148936,11.1255319 11.3493617,11.1255319 C10.7838298,11.1255319 10.3238298,11.5859574 10.3238298,12.1514894 C10.3238298,12.7170213 10.7838298,13.1770213 11.3493617,13.1770213 L11.3493617,13.1770213 Z M11.3493617,11.9068085 C11.4842553,11.9068085 11.593617,12.0161702 11.593617,12.1510638 C11.593617,12.2851064 11.4842553,12.3953191 11.3493617,12.3953191 C11.2148936,12.3953191 11.1055319,12.2851064 11.1055319,12.1510638 C11.1055319,12.0161702 11.2144681,11.9068085 11.3493617,11.9068085 L11.3493617,11.9068085 Z" id="Shape"></path>
                </g>
                <g id="esfera-copy" transform="translate(277.519180, 45.380163) rotate(12.000000) translate(-277.519180, -45.380163) translate(270.019180, 34.880163)" fill="#AECDF2" sketch:type="MSShapeGroup">
                    <path d="M7.81694258,20.0109388 C11.4424745,20.0109388 14.4411979,17.3071091 14.9224745,13.8117899 C14.9254532,13.7917899 14.9343894,13.773492 14.9343894,13.7530665 C14.9343894,13.7496622 14.9326873,13.7475346 14.9326873,13.7449814 C14.9709851,13.4445559 14.9973681,13.1407261 14.9973681,12.8300878 C14.9973681,11.9479601 14.829283,11.1049814 14.5369426,10.3232793 C14.5288575,10.293492 14.5203468,10.2654069 14.5058787,10.2385984 C13.9650277,8.84625799 13.0067298,7.6624282 11.7786447,6.84668352 C11.7441766,6.80327927 11.0233256,5.8730665 11.0233256,3.15774735 C11.0233256,2.94200267 10.8488575,2.76710905 10.6322617,2.76710905 L9.24034683,2.76710905 L9.24034683,1.63689629 C9.24034683,0.990513309 8.71481492,0.464555862 8.06843194,0.464555862 L7.58077236,0.464555862 C6.93438938,0.464555862 6.40843194,0.990513309 6.40843194,1.63689629 L6.40843194,2.76710905 L5.01609151,2.76710905 C4.80034683,2.76710905 4.62545321,2.94200267 4.62545321,3.15774735 C4.62545321,5.70413033 3.98375109,6.68966225 3.88162343,6.83051331 C1.92970853,8.11561969 0.636091512,10.3232793 0.636091512,12.8300878 C0.636091512,16.7892367 3.85736811,20.0109388 7.81694258,20.0109388 L7.81694258,20.0109388 Z M7.81694258,19.2292367 C5.21141066,19.2292367 2.96843194,17.6615771 1.97141066,15.4224282 C2.61353832,15.5922154 3.64630428,15.7717899 5.16587875,15.7717899 C6.42460215,15.7717899 7.53013407,15.4454069 8.70034683,15.1007261 C10.1275809,14.6803005 11.7416234,14.2122154 14.076517,14.1551942 C13.4646022,17.0492367 10.8909851,19.2292367 7.81694258,19.2292367 L7.81694258,19.2292367 Z M14.2160915,12.8300878 C14.2160915,13.012641 14.2041766,13.1922154 14.1888575,13.3705133 C11.682049,13.4156197 9.9799213,13.9088112 8.4799213,14.3517899 C7.31694258,14.6943431 6.31226172,14.9905133 5.16630428,14.9905133 C3.09396385,14.9905133 2.00715534,14.6424282 1.64630428,14.4981729 C1.50204896,13.9654069 1.41821917,13.4079601 1.41821917,12.8305133 C1.41821917,12.5449814 1.44332555,12.2658325 1.4799213,11.9900878 C2.06502768,12.1807261 3.19098513,12.439875 5.01694258,12.439875 C6.27821917,12.439875 7.3399213,12.112641 8.46375109,11.7671091 C9.86672981,11.3360452 11.4582192,10.8543431 13.8880064,10.8185984 C14.0977936,11.4517899 14.2160915,12.1266835 14.2160915,12.8300878 L14.2160915,12.8300878 Z M7.18970853,1.63689629 C7.18970853,1.42157714 7.36502768,1.24625799 7.58034683,1.24625799 L8.06800641,1.24625799 C8.28332555,1.24625799 8.4586447,1.42157714 8.4586447,1.63689629 L8.4586447,2.76710905 L7.18970853,2.76710905 L7.18970853,1.63689629 L7.18970853,1.63689629 Z M5.40204896,3.54838565 L10.2467298,3.54838565 C10.2773681,4.7637048 10.4480064,5.62923671 10.6373681,6.22753459 C9.77098513,5.85604522 8.81821917,5.64881118 7.81694258,5.64881118 C6.82332555,5.64881118 5.87566598,5.85221544 5.01438938,6.21902395 C5.20247449,5.62115161 5.37183619,4.75774735 5.40204896,3.54838565 L5.40204896,3.54838565 Z M7.81694258,6.43051331 C10.3437511,6.43051331 12.5275809,7.90710905 13.5671553,10.0394495 C11.1977936,10.1105133 9.62843194,10.5913644 8.23396385,11.0203005 C7.12162343,11.3624282 6.16034683,11.6577474 5.01651704,11.6577474 C3.15651704,11.6577474 2.09226172,11.3777474 1.63183619,11.2156197 C2.35013407,8.46710905 4.84672981,6.43051331 7.81694258,6.43051331 L7.81694258,6.43051331 Z" id="Shape"></path>
                    <path d="M4.79702128,14.6557447 C4.23148936,14.6557447 3.77106383,15.1157447 3.77106383,15.6812766 C3.77106383,16.2468085 4.23148936,16.707234 4.79702128,16.707234 C5.36255319,16.707234 5.82297872,16.2468085 5.82297872,15.6812766 C5.82297872,15.1157447 5.36255319,14.6557447 4.79702128,14.6557447 L4.79702128,14.6557447 Z M4.79702128,15.9259574 C4.66255319,15.9259574 4.55276596,15.8170213 4.55276596,15.6817021 C4.55276596,15.5476596 4.66255319,15.4378723 4.79702128,15.4378723 C4.93148936,15.4378723 5.0412766,15.5476596 5.0412766,15.6817021 C5.0412766,15.8170213 4.93148936,15.9259574 4.79702128,15.9259574 L4.79702128,15.9259574 Z" id="Shape"></path>
                    <path d="M7.74297872,15.046383 C7.74297872,15.6119149 8.20340426,16.0723404 8.7693617,16.0723404 C9.33446809,16.0723404 9.79489362,15.6119149 9.79489362,15.046383 C9.79489362,14.4808511 9.33446809,14.0208511 8.7693617,14.0208511 C8.20340426,14.0208511 7.74297872,14.4808511 7.74297872,15.046383 L7.74297872,15.046383 Z M9.01319149,15.046383 C9.01319149,15.1812766 8.90382979,15.2906383 8.7693617,15.2906383 C8.63446809,15.2906383 8.52468085,15.1812766 8.52468085,15.046383 C8.52468085,14.9123404 8.63404255,14.8025532 8.7693617,14.8025532 C8.90382979,14.8025532 9.01319149,14.9123404 9.01319149,15.046383 L9.01319149,15.046383 Z" id="Shape"></path>
                    <path d="M12.3493617,15.1770213 C12.9148936,15.1770213 13.3753191,14.7170213 13.3753191,14.1514894 C13.3753191,13.5859574 12.9148936,13.1255319 12.3493617,13.1255319 C11.7838298,13.1255319 11.3238298,13.5859574 11.3238298,14.1514894 C11.3238298,14.7170213 11.7838298,15.1770213 12.3493617,15.1770213 L12.3493617,15.1770213 Z M12.3493617,13.9068085 C12.4842553,13.9068085 12.593617,14.0161702 12.593617,14.1510638 C12.593617,14.2851064 12.4842553,14.3953191 12.3493617,14.3953191 C12.2148936,14.3953191 12.1055319,14.2851064 12.1055319,14.1510638 C12.1055319,14.0161702 12.2144681,13.9068085 12.3493617,13.9068085 L12.3493617,13.9068085 Z" id="Shape"></path>
                </g>
                <g id="esfera2" transform="translate(447.393372, 35.483168) rotate(-348.000000) translate(-447.393372, -35.483168) translate(438.893372, 25.483168)" fill="#FCD4D4" sketch:type="MSShapeGroup">
                    <path d="M16.3585177,8.65531237 C16.3528655,8.63183411 16.3437351,8.61096454 16.3341699,8.58879063 C15.3319959,6.12661672 13.1485177,4.26792106 10.4876481,3.7270515 L10.4876481,2.23009498 C10.4876481,2.03835585 10.3615612,1.88052976 10.1885177,1.82270367 L10.1885177,1.52096454 C10.1885177,0.801834107 9.60330029,0.216616715 8.88416986,0.216616715 C8.16503942,0.216616715 7.57982203,0.801834107 7.57982203,1.52096454 L7.57982203,1.82270367 C7.40764812,1.88052976 7.28069159,2.03835585 7.28069159,2.23009498 L7.28069159,3.7270515 C3.61112638,4.47226889 0.840256812,7.72270367 0.840256812,11.6092254 C0.840256812,12.6522689 1.04634377,13.6474863 1.40938725,14.5627037 C1.41503942,14.5866167 1.42460464,14.6079211 1.43416986,14.630095 C2.63243072,17.5713993 5.5180829,19.6527037 8.88460464,19.6527037 C13.319822,19.6527037 16.9280829,16.0444428 16.9280829,11.6092254 C16.9280829,10.5653124 16.7219959,9.57096454 16.3585177,8.65531237 L16.3585177,8.65531237 Z M1.71069159,11.6092254 C1.71069159,11.2409645 1.74721333,10.8822689 1.80112638,10.5287906 C2.61982203,10.8248776 3.47416986,10.9796602 4.32851768,10.9796602 C5.87764812,10.9796602 7.41764812,10.5005298 8.70416986,9.57052976 C10.7106916,8.11966019 13.3906916,7.92835585 15.5815612,9.06009498 C15.8846046,9.85357324 16.0580829,10.7105298 16.0580829,11.6092254 C16.0580829,11.9748776 16.0219959,12.3313993 15.9689525,12.6822689 C13.6650394,11.8483558 11.0663438,12.1996602 9.06416986,13.6483558 C7.05764812,15.0996602 4.37764812,15.2905298 2.18677855,14.1587906 C1.88416986,13.3648776 1.71069159,12.5079211 1.71069159,11.6092254 L1.71069159,11.6092254 Z M8.88460464,1.08574715 C9.12460464,1.08574715 9.31938725,1.28096454 9.31938725,1.52052976 L9.31938725,1.79487758 L8.44982203,1.79487758 L8.44982203,1.52052976 C8.44982203,1.28096454 8.64460464,1.08574715 8.88460464,1.08574715 L8.88460464,1.08574715 Z M8.15112638,3.56574715 L8.15112638,2.66487758 L9.61851768,2.66487758 L9.61851768,3.56574715 L8.15112638,3.56574715 L8.15112638,3.56574715 Z M8.88460464,4.43531237 C11.4672133,4.43531237 13.7289525,5.81183411 14.9924307,7.86574715 C12.7272133,7.0870515 10.1715612,7.43618193 8.19503942,8.86574715 C6.39895246,10.1644428 4.04373507,10.464008 1.98286551,9.67531237 C2.83025681,6.65748628 5.59982203,4.43531237 8.88460464,4.43531237 L8.88460464,4.43531237 Z M8.88460464,18.7831385 C6.30286551,18.7831385 4.04112638,17.4070515 2.77764812,15.3544428 C3.56330029,15.624008 4.38199594,15.7609645 5.20112638,15.7609645 C6.74416986,15.7609645 8.28286551,15.2866167 9.57416986,14.3531385 C11.375909,13.050095 13.7241699,12.7522689 15.7863438,13.5427037 C14.9393872,16.5605298 12.169822,18.7831385 8.88460464,18.7831385 L8.88460464,18.7831385 Z" id="Shape"></path>
                </g>
                <g id="corona-copy" transform="translate(146.860593, 49.290366) rotate(-348.000000) translate(-146.860593, -49.290366) translate(136.860593, 39.290366)" fill="#7CD7A4" sketch:type="MSShapeGroup">
                    <path d="M10.9670753,2.38384167 C10.9670753,2.73475076 10.6825299,3.01929621 10.3320753,3.01929621 C9.98116622,3.01929621 9.69707531,2.73475076 9.69707531,2.38384167 C9.69707531,2.03338712 9.98116622,1.74975076 10.3320753,1.74975076 C10.6825299,1.7502053 10.9670753,2.03338712 10.9670753,2.38384167 L10.9670753,2.38384167 Z M5.87980258,3.16475076 C5.52934804,3.16475076 5.24480258,3.44838712 5.24480258,3.79884167 C5.24480258,4.14929621 5.52934804,4.43384167 5.87980258,4.43384167 C6.23071167,4.43384167 6.51525713,4.14929621 6.51525713,3.79884167 C6.51571167,3.44838712 6.23116622,3.16475076 5.87980258,3.16475076 L5.87980258,3.16475076 Z M5.87980258,3.16475076 C5.52934804,3.16475076 5.24480258,3.44838712 5.24480258,3.79884167 C5.24480258,4.14929621 5.52934804,4.43384167 5.87980258,4.43384167 C6.23071167,4.43384167 6.51525713,4.14929621 6.51525713,3.79884167 C6.51571167,3.44838712 6.23116622,3.16475076 5.87980258,3.16475076 L5.87980258,3.16475076 Z M3.15252986,6.9161144 C2.80116622,6.9161144 2.51707531,7.19975076 2.51707531,7.5502053 C2.51707531,7.9011144 2.80116622,8.18565985 3.15252986,8.18565985 C3.5029844,8.18565985 3.78707531,7.9011144 3.78707531,7.5502053 C3.78752986,7.19975076 3.50343895,6.9161144 3.15252986,6.9161144 L3.15252986,6.9161144 Z M3.15116622,11.5733871 C2.79980258,11.5733871 2.51571167,11.8565689 2.51571167,12.207478 C2.51571167,12.5583871 2.79980258,12.842478 3.15116622,12.842478 C3.50207531,12.842478 3.78616622,12.5579326 3.78616622,12.207478 C3.78616622,11.8570235 3.50207531,11.5733871 3.15116622,11.5733871 L3.15116622,11.5733871 Z M3.15252986,6.9161144 C2.80116622,6.9161144 2.51707531,7.19975076 2.51707531,7.5502053 C2.51707531,7.9011144 2.80116622,8.18565985 3.15252986,8.18565985 C3.5029844,8.18565985 3.78707531,7.9011144 3.78707531,7.5502053 C3.78752986,7.19975076 3.50343895,6.9161144 3.15252986,6.9161144 L3.15252986,6.9161144 Z M5.87980258,3.16475076 C5.52934804,3.16475076 5.24480258,3.44838712 5.24480258,3.79884167 C5.24480258,4.14929621 5.52934804,4.43384167 5.87980258,4.43384167 C6.23071167,4.43384167 6.51525713,4.14929621 6.51525713,3.79884167 C6.51571167,3.44838712 6.23116622,3.16475076 5.87980258,3.16475076 L5.87980258,3.16475076 Z M14.7288935,3.17338712 C14.3784389,3.17338712 14.0938935,3.45702349 14.0938935,3.80793258 C14.0938935,4.15838712 14.3784389,4.44293258 14.7288935,4.44293258 C15.0802571,4.44293258 15.364348,4.15838712 15.364348,3.80793258 C15.364348,3.45702349 15.0802571,3.17338712 14.7288935,3.17338712 L14.7288935,3.17338712 Z M17.4457117,6.93202349 C17.094348,6.93202349 16.8102571,7.21565985 16.8102571,7.5661144 C16.8102571,7.91702349 17.094348,8.20156894 17.4457117,8.20156894 C17.7961662,8.20156894 18.0807117,7.91702349 18.0807117,7.5661144 C18.0807117,7.21565985 17.7961662,6.93202349 17.4457117,6.93202349 L17.4457117,6.93202349 Z M17.4448026,11.5892962 C17.0938935,11.5892962 16.809348,11.872478 16.809348,12.2233871 C16.809348,12.5742962 17.0934389,12.8583871 17.4448026,12.8583871 C17.7952571,12.8583871 18.0798026,12.5738417 18.0798026,12.2233871 C18.0798026,11.8729326 17.7952571,11.5892962 17.4448026,11.5892962 L17.4448026,11.5892962 Z M16.889348,16.7433871 C16.8911662,16.8002053 16.9007117,16.8497508 16.9007117,16.9083871 C16.9007117,18.8756599 15.8611662,19.9152053 13.8948026,19.9152053 C12.9911662,19.9152053 12.1538935,19.6888417 11.4016208,19.2433871 C11.1238935,19.537478 10.7320753,19.7242962 10.2961662,19.7242962 C9.85980258,19.7242962 9.46843895,19.537478 9.19025713,19.2429326 C8.44071167,19.6865689 7.60525713,19.9115689 6.70162076,19.9115689 C4.73434804,19.9115689 3.69480258,18.8720235 3.69480258,16.9047508 C3.69480258,16.8470235 3.70434804,16.7983871 3.70616622,16.742478 C1.90571167,15.0111144 0.780257128,12.5829326 0.780257128,9.88747803 C0.780257128,4.63065985 5.04116622,0.370205305 10.2975299,0.370205305 C15.5538935,0.370205305 19.8152571,4.63065985 19.8152571,9.88747803 C19.8157117,12.5833871 18.6902571,15.0115689 16.889348,16.7433871 L16.889348,16.7433871 L16.889348,16.7433871 Z M8.7729844,18.202478 L8.7729844,15.6147508 C8.7729844,15.5420235 8.78434804,15.4720235 8.79480258,15.4015689 C8.16525713,15.0133871 7.46480258,14.8065689 6.70207531,14.8065689 C5.25162076,14.8065689 4.60434804,15.4538417 4.60434804,16.9047508 C4.60434804,18.3552053 5.25162076,19.002478 6.70207531,19.002478 C7.46707531,19.002478 8.16707531,18.7965689 8.79389349,18.4092962 C8.78434804,18.3415689 8.7729844,18.2733871 8.7729844,18.202478 L8.7729844,18.202478 Z M10.9107117,15.6142962 C10.9107117,15.2765689 10.6352571,15.0011144 10.2961662,15.0011144 C9.95707531,15.0011144 9.68162076,15.2761144 9.68162076,15.6142962 L9.68162076,18.2020235 C9.68162076,18.5397508 9.95707531,18.8152053 10.2961662,18.8152053 C10.6352571,18.8152053 10.9107117,18.5402053 10.9107117,18.2020235 L10.9107117,15.6142962 L10.9107117,15.6142962 Z M11.4016208,14.5733871 C12.1529844,14.127478 12.9902571,13.9011144 13.8948026,13.9011144 C13.9166208,13.9011144 13.9348026,13.9052053 13.9566208,13.9056599 C15.049348,12.9092962 15.7407117,11.4792962 15.7407117,9.88747803 C15.7407117,6.88565985 13.299348,4.44384167 10.2979844,4.44384167 C7.29662076,4.44384167 4.85525713,6.88565985 4.85525713,9.88747803 C4.85525713,11.477478 5.54480258,12.9061144 6.63571167,13.9020235 C6.62616622,13.9020235 6.61752986,13.9038417 6.6079844,13.9042962 C6.64025713,13.9033871 6.66843895,13.897478 6.70162076,13.897478 C7.60389349,13.897478 8.44025713,14.1238417 9.19343895,14.5697508 C9.47116622,14.2770235 9.86116622,14.092478 10.2957117,14.092478 C10.7320753,14.092478 11.1234389,14.2788417 11.4016208,14.5733871 L11.4016208,14.5733871 Z M15.9916208,16.9083871 C15.9916208,15.457478 15.3448026,14.8102053 13.8948026,14.8102053 C13.1284389,14.8102053 12.4270753,15.0170235 11.7984389,15.4065689 C11.8079844,15.4752053 11.8198026,15.5433871 11.8198026,15.6147508 L11.8198026,18.202478 C11.8198026,18.2738417 11.8084389,18.3420235 11.7984389,18.4106599 C12.4284389,18.7997508 13.1302571,19.0065689 13.8948026,19.0065689 C15.3452571,19.0061144 15.9916208,18.3592962 15.9916208,16.9083871 L15.9916208,16.9083871 Z M16.7088935,15.6129326 C18.0707117,14.0892962 18.9070753,12.0870235 18.9070753,9.88747803 C18.9070753,5.1411144 15.0452571,1.27929621 10.2984389,1.27929621 C5.55207531,1.27929621 1.69025713,5.1411144 1.69025713,9.88747803 C1.69025713,12.0861144 2.52571167,14.0883871 3.88707531,15.6115689 C4.15571167,14.822478 4.71116622,14.3052053 5.52434804,14.0620235 C5.5229844,14.062478 5.52116622,14.062478 5.51980258,14.0629326 C4.5429844,12.9461144 3.94662076,11.4879326 3.94662076,9.88747803 C3.94662076,6.3802053 6.79025713,3.53475076 10.2984389,3.53475076 C13.8070753,3.53475076 16.6502571,6.3802053 16.6502571,9.88747803 C16.6502571,11.4888417 16.0529844,12.9479326 15.0748026,14.0656599 C15.8852571,14.3088417 16.4402571,14.8252053 16.7088935,15.6129326 L16.7088935,15.6129326 Z" id="Shape"></path>
                </g>
                <g id="MISTLETOE" transform="translate(493.349667, 31.964549) rotate(-348.000000) translate(-493.349667, -31.964549) translate(482.849667, 21.964549)" fill="#7CD7A4" sketch:type="MSShapeGroup">
                    <path d="M20.6922727,13.9209091 C20.6231818,13.765 20.4727273,13.6618182 20.3022727,13.6522727 C19.9118182,13.6304545 19.5413636,13.5204545 19.2018182,13.3240909 C18.4704545,12.9018182 18.0040909,12.1427273 17.9554545,11.2940909 C17.9463636,11.1409091 17.8613636,11.0022727 17.7281818,10.9259091 C17.5954545,10.8495455 17.4322727,10.8454545 17.2959091,10.915 C16.5595455,11.2890909 15.6390909,11.2672727 14.9186364,10.8504545 C14.8959091,10.8372727 14.8754545,10.8213636 14.8531818,10.8072727 L14.8531818,10.8086364 C14.7981818,10.5686364 14.72,10.3331818 14.5968182,10.1145455 C14.3790909,9.72909091 14.0677273,9.42772727 13.7031818,9.21227273 C13.665,9.03909091 13.6422727,8.86181818 13.6422727,8.68090909 C13.6422727,7.83636364 14.0668182,7.05363636 14.7768182,6.58681818 C14.905,6.50227273 14.9822727,6.35954545 14.9818182,6.20590909 C14.9813636,6.05272727 14.9036364,5.91 14.7754545,5.82590909 C14.0654545,5.36318182 13.6422727,4.58181818 13.6422727,3.73454545 C13.6422727,3.32590909 13.7413636,2.93136364 13.9359091,2.56272727 C14.0154545,2.41272727 14.0040909,2.23090909 13.9077273,2.09136364 C13.8109091,1.95181818 13.6463636,1.87818182 13.4763636,1.89909091 C13.3909091,1.91 13.3054545,1.91727273 13.1877273,1.91727273 C12.2718182,1.91727273 11.4290909,1.41045455 10.9881818,0.594090909 C10.9086364,0.447272727 10.7163636,0.355454545 10.5495455,0.355454545 C10.3827273,0.355454545 10.2290909,0.447272727 10.1495455,0.594090909 C9.70863636,1.41 8.86590909,1.91727273 7.92090909,1.91727273 C7.83227273,1.91727273 7.74681818,1.91 7.66090909,1.89909091 C7.49181818,1.87727273 7.32636364,1.95181818 7.23,2.09136364 C7.13318182,2.23090909 7.12272727,2.41272727 7.20181818,2.56272727 C7.39681818,2.93045455 7.49545455,3.32454545 7.49545455,3.73409091 C7.49545455,4.58090909 7.07181818,5.36272727 6.36227273,5.82545455 C6.23409091,5.90954545 6.15636364,6.05227273 6.15590909,6.20545455 C6.15545455,6.35909091 6.23272727,6.50181818 6.36090909,6.58636364 C6.92181818,6.95545455 7.29590909,7.52454545 7.43090909,8.16272727 C6.98363636,8.50954545 6.645,9.00545455 6.49409091,9.59545455 C6.41636364,9.90045455 6.40090909,10.2045455 6.42863636,10.4990909 C6.30863636,10.6004545 6.18272727,10.6931818 6.04681818,10.7681818 C5.31772727,11.1718182 4.39863636,11.1777273 3.66818182,10.7913636 C3.53227273,10.72 3.36954545,10.7209091 3.23545455,10.7954545 C3.10136364,10.8695455 3.01363636,11.0063636 3.00181818,11.1590909 C2.93818182,12.0063636 2.45863636,12.7572727 1.72,13.1668182 C1.37727273,13.3572727 1.00545455,13.4604545 0.614545455,13.4754545 C0.444090909,13.4818182 0.291818182,13.5827273 0.219545455,13.7372727 C0.147272727,13.8918182 0.168181818,14.0740909 0.272727273,14.2086364 C0.361818182,14.3231818 0.433636364,14.43 0.491818182,14.5354545 C0.900454545,15.2731818 0.909545455,16.1631818 0.515909091,16.9154545 C0.445,17.0509091 0.446818182,17.2131818 0.520909091,17.3468182 C0.595454545,17.4804545 0.731818182,17.5677273 0.884090909,17.5795455 C1.73,17.6436364 2.47909091,18.1218182 2.88818182,18.8590909 C2.94818182,18.9681818 3.00136364,19.0854545 3.04909091,19.2181818 C3.10727273,19.3790909 3.25090909,19.4931818 3.42045455,19.5140909 C3.43909091,19.5163636 3.45818182,19.5177273 3.47636364,19.5177273 C3.62590909,19.5177273 3.76772727,19.4440909 3.85272727,19.3181818 C4.07181818,18.9945455 4.35681818,18.7336364 4.69954545,18.5436364 C5.42863636,18.14 6.345,18.1345455 7.08181818,18.5204545 C7.21727273,18.5918182 7.37954545,18.5904545 7.51409091,18.5154545 C7.64818182,18.4409091 7.73545455,18.3036364 7.74636364,18.1504545 C7.8,17.4022727 8.18681818,16.7331818 8.78863636,16.3036364 C8.97045455,16.3468182 9.15636364,16.3704545 9.34227273,16.3704545 C9.89681818,16.3704545 10.4154545,16.1795455 10.84,15.8563636 L10.8390909,15.8572727 C11.1963636,15.8918182 11.5345455,15.9954545 11.8445455,16.1740909 C12.5777273,16.5977273 13.0436364,17.3559091 13.0895455,18.2018182 C13.0977273,18.355 13.1827273,18.4936364 13.3154545,18.5704545 C13.4481818,18.6477273 13.6095455,18.6522727 13.7477273,18.5831818 C14.49,18.2095455 15.4068182,18.2318182 16.1281818,18.6477273 C16.4668182,18.8431818 16.7472727,19.1086364 16.9613636,19.4368182 C17.0463636,19.5659091 17.1895455,19.6427273 17.3422727,19.6427273 C17.3577273,19.6427273 17.3736364,19.6418182 17.3895455,19.64 C17.5590909,19.6222727 17.7040909,19.5113636 17.7659091,19.3518182 C17.8186364,19.2154545 17.8731818,19.0986364 17.9331818,18.9954545 C18.3554545,18.265 19.1131818,17.7986364 19.9604545,17.7495455 C20.1127273,17.7404545 20.2509091,17.6559091 20.3277273,17.5231818 C20.4040909,17.3909091 20.4090909,17.2290909 20.34,17.0922727 C19.9595455,16.3331818 19.9840909,15.4440909 20.4063636,14.7136364 C20.4654545,14.6104545 20.5390909,14.5045455 20.6309091,14.3904545 C20.7386364,14.2577273 20.7622727,14.0768182 20.6922727,13.9209091 L20.6922727,13.9209091 Z M7.34045455,6.20772727 C8.01454545,5.57136364 8.40409091,4.68318182 8.40409091,3.735 C8.40409091,3.42363636 8.36,3.11227273 8.275,2.81181818 C9.17272727,2.725 9.99545455,2.28318182 10.5690909,1.59136364 C11.1386364,2.27818182 11.9563636,2.71818182 12.8631818,2.80954545 C12.7777273,3.11136364 12.7331818,3.42363636 12.7331818,3.735 C12.7331818,4.68318182 13.1222727,5.57136364 13.7968182,6.20772727 C13.1227273,6.84727273 12.7331818,7.73545455 12.7331818,8.68090909 C12.7331818,8.74818182 12.7404545,8.815 12.7454545,8.88136364 C12.6563636,8.87136364 12.5663636,8.86454545 12.4768182,8.86454545 C12.0204545,8.86454545 11.5895455,8.99545455 11.2136364,9.22045455 C11.2136364,9.22090909 11.2140909,9.22136364 11.2140909,9.22181818 C11.1695455,9.10863636 11.1263636,8.995 11.0659091,8.88772727 C11.0468182,8.85454545 11.0209091,8.82727273 11.0004545,8.795 C11.0018182,8.78909091 11.0040909,8.78409091 11.0040909,8.77772727 L11.0040909,3.33545455 C11.0040909,3.08454545 10.8009091,2.88090909 10.5495455,2.88090909 C10.2981818,2.88090909 10.095,3.08454545 10.095,3.33545455 L10.095,7.93772727 C9.92090909,7.84318182 9.73909091,7.76272727 9.54272727,7.71318182 C9.34727273,7.66318182 9.14636364,7.63772727 8.94590909,7.63772727 C8.71045455,7.63772727 8.48363636,7.67954545 8.26545455,7.74272727 C8.09818182,7.16045455 7.785,6.62909091 7.34045455,6.20772727 L7.34045455,6.20772727 Z M7.375,9.82045455 C7.56681818,9.07090909 8.21272727,8.54636364 8.94590909,8.54636364 C9.07045455,8.54636364 9.19636364,8.56227273 9.31818182,8.59363636 C9.72318182,8.69681818 10.0627273,8.96 10.2740909,9.33454545 C10.4895455,9.71590909 10.5468182,10.1659091 10.4354545,10.6013636 C10.3659091,10.8740909 10.2354545,11.115 10.0631818,11.3131818 C10.0486364,11.3090909 10.035,11.3036364 10.0204545,11.3 C9.825,11.2504545 9.62454545,11.225 9.42363636,11.225 C8.93045455,11.225 8.46772727,11.3804545 8.07227273,11.6404545 C7.495,11.2786364 7.18863636,10.55 7.375,9.82045455 L7.375,9.82045455 Z M6.93863636,17.48 C6.05727273,17.2036364 5.07227273,17.2986364 4.25909091,17.7486364 C4.00954545,17.8872727 3.78272727,18.0527273 3.57954545,18.2440909 C3.11363636,17.5095455 2.39,16.9877273 1.55590909,16.7727273 C1.815,15.9509091 1.75590909,15.0609091 1.38090909,14.2768182 C1.65090909,14.2059091 1.91136364,14.1009091 2.16090909,13.9627273 C2.98818182,13.5040909 3.57681818,12.7327273 3.80863636,11.8327273 C4.68818182,12.1095455 5.67454545,12.0140909 6.48727273,11.5645455 C6.55863636,11.525 6.625,11.4772727 6.69272727,11.4313636 C6.86181818,11.7645455 7.10090909,12.0586364 7.39818182,12.2863636 C7.39863636,12.2854545 7.39909091,12.285 7.4,12.2845455 C7.20863636,12.5490909 7.05818182,12.8490909 6.97318182,13.1831818 C6.96909091,13.1990909 6.96954545,13.2154545 6.96545455,13.2318182 L2.89636364,15.4877273 C2.67681818,15.61 2.59727273,15.8863636 2.71909091,16.1059091 C2.80227273,16.2554545 2.95681818,16.34 3.11681818,16.34 C3.19136364,16.34 3.26681818,16.3218182 3.33681818,16.2831818 L6.93227273,14.2890909 C6.98545455,14.5968182 7.08727273,14.8954545 7.25,15.1695455 C7.41636364,15.45 7.63136364,15.6890909 7.88136364,15.8790909 C7.42636364,16.315 7.09545455,16.8654545 6.93863636,17.48 L6.93863636,17.48 Z M10.9131818,14.1881818 C10.6890909,15.0663636 9.81318182,15.6286364 8.97045455,15.415 C8.57818182,15.315 8.24454545,15.0631818 8.03272727,14.705 C7.80272727,14.3172727 7.73909091,13.8568182 7.85409091,13.4077273 C8.04545455,12.6577273 8.69090909,12.1340909 9.42409091,12.1340909 C9.54863636,12.1340909 9.67409091,12.1495455 9.79590909,12.1809091 C10.6390909,12.3963636 11.1404545,13.2968182 10.9131818,14.1881818 L10.9131818,14.1881818 Z M10.89,11.7236364 C11.0804545,11.4590909 11.2309091,11.1595455 11.3163636,10.8259091 C11.3672727,10.6254545 11.3872727,10.4231818 11.3918182,10.2218182 C11.6840909,9.94363636 12.0645455,9.77409091 12.4772727,9.77409091 C12.6018182,9.77409091 12.7272727,9.78954545 12.8490909,9.82090909 C13.2540909,9.92454545 13.5936364,10.1877273 13.805,10.5622727 C14.0204545,10.9431818 14.0777273,11.3931818 13.9663636,11.8286364 C13.775,12.5786364 13.1286364,13.1027273 12.395,13.1027273 C12.2704545,13.1027273 12.1454545,13.0872727 12.0240909,13.0559091 C11.9277273,13.0309091 11.8368182,12.995 11.75,12.9536364 C11.5922727,12.465 11.2940909,12.0336364 10.89,11.7236364 L10.89,11.7236364 Z M19.3036364,16.9322727 C18.4659091,17.1327273 17.7336364,17.6422727 17.2540909,18.3681818 C17.0545455,18.1727273 16.8295455,18.0031818 16.5827273,17.8609091 C16.065,17.5622727 15.4772727,17.4040909 14.8831818,17.4040909 C14.5545455,17.4040909 14.2259091,17.4522727 13.9095455,17.5463636 C13.695,16.6436364 13.1204545,15.8622727 12.2990909,15.3877273 C12.0563636,15.2477273 11.7940909,15.1431818 11.5227273,15.0668182 C11.6372727,14.8645455 11.7336364,14.6481818 11.7936364,14.4131818 C11.8331818,14.2581818 11.8563636,14.1031818 11.8672727,13.9495455 C12.0413636,13.9886364 12.2177273,14.0118182 12.3945455,14.0118182 C12.6395455,14.0118182 12.8759091,13.9681818 13.1022727,13.8995455 L17.5118182,16.4459091 C17.5831818,16.4872727 17.6613636,16.5068182 17.7386364,16.5068182 C17.8959091,16.5068182 18.0486364,16.4254545 18.1327273,16.2795455 C18.2581818,16.0618182 18.1836364,15.7840909 17.9663636,15.6586364 L14.0277273,13.3845455 L14.0272727,13.385 C14.415,13.0454545 14.71,12.5895455 14.8468182,12.0536364 C14.8654545,11.9818182 14.8686364,11.9086364 14.8809091,11.8359091 L14.8809091,11.8377273 C15.5940909,12.1268182 16.3995455,12.1727273 17.1368182,11.9536364 C17.3536364,12.8577273 17.9281818,13.6390909 18.7472727,14.1122727 C18.9945455,14.2545455 19.2536364,14.3645455 19.5227273,14.44 C19.1336364,15.2172727 19.0590909,16.1059091 19.3036364,16.9322727 L19.3036364,16.9322727 Z" id="Shape"></path>
                </g>
                <g id="MISTLETOE-Copy" transform="translate(232.349667, 46.558529) rotate(-348.000000) translate(-232.349667, -46.558529) translate(221.849667, 36.558529)" fill="#7CD7A4" sketch:type="MSShapeGroup">
                    <path d="M20.860626,14.0083187 C20.7915351,13.8524096 20.6410805,13.7492278 20.470626,13.7396823 C20.0801714,13.7178641 19.7097169,13.6078641 19.3701714,13.4115005 C18.6388078,12.9892278 18.1724441,12.2301369 18.1238078,11.3815005 C18.1147169,11.2283187 18.0297169,11.0896823 17.8965351,11.0133187 C17.7638078,10.9369551 17.600626,10.9328641 17.4642623,11.0024096 C16.7278987,11.3765005 15.8074441,11.3546823 15.0869896,10.9378641 C15.0642623,10.9246823 15.0438078,10.9087732 15.0215351,10.8946823 L15.0215351,10.896046 C14.9665351,10.656046 14.8883532,10.4205914 14.7651714,10.2019551 C14.5474441,9.81650051 14.2360805,9.51513687 13.8715351,9.29968232 C13.8333532,9.12650051 13.810626,8.94922778 13.810626,8.76831869 C13.810626,7.92377323 14.2351714,7.14104596 14.9451714,6.67422778 C15.0733532,6.58968232 15.150626,6.44695505 15.1501714,6.29331869 C15.1497169,6.14013687 15.0719896,5.9974096 14.9438078,5.91331869 C14.2338078,5.45059142 13.810626,4.66922778 13.810626,3.82195505 C13.810626,3.41331869 13.9097169,3.01877323 14.1042623,2.65013687 C14.1838078,2.50013687 14.1724441,2.31831869 14.0760805,2.17877323 C13.9792623,2.03922778 13.8147169,1.96559142 13.6447169,1.98650051 C13.5592623,1.9974096 13.4738078,2.00468232 13.3560805,2.00468232 C12.4401714,2.00468232 11.5974441,1.49786414 11.1565351,0.681500506 C11.0769896,0.534682324 10.8847169,0.442864143 10.7178987,0.442864143 C10.5510805,0.442864143 10.3974441,0.534682324 10.3178987,0.681500506 C9.8769896,1.4974096 9.03426233,2.00468232 8.08926233,2.00468232 C8.00062596,2.00468232 7.91517142,1.9974096 7.82926233,1.98650051 C7.66017142,1.96468232 7.49471687,2.03922778 7.39835324,2.17877323 C7.30153505,2.31831869 7.29108051,2.50013687 7.37017142,2.65013687 C7.56517142,3.01786414 7.66380778,3.41195505 7.66380778,3.82150051 C7.66380778,4.66831869 7.24017142,5.45013687 6.53062596,5.91286414 C6.40244415,5.99695505 6.32471687,6.13968232 6.32426233,6.29286414 C6.32380778,6.44650051 6.40108051,6.58922778 6.52926233,6.67377323 C7.09017142,7.04286414 7.46426233,7.61195505 7.59926233,8.25013687 C7.1519896,8.59695505 6.81335324,9.09286414 6.66244415,9.68286414 C6.58471687,9.98786414 6.56926233,10.2919551 6.5969896,10.5865005 C6.4769896,10.6878641 6.35108051,10.7805914 6.21517142,10.8555914 C5.48608051,11.2592278 4.5669896,11.2651369 3.83653505,10.8787732 C3.70062596,10.8074096 3.53789869,10.8083187 3.40380778,10.8828641 C3.26971687,10.9569551 3.1819896,11.0937732 3.17017142,11.2465005 C3.10653505,12.0937732 2.6269896,12.8446823 1.88835324,13.2542278 C1.54562596,13.4446823 1.17380778,13.5478641 0.782898691,13.5628641 C0.612444146,13.5692278 0.460171419,13.6701369 0.387898691,13.8246823 C0.315625964,13.9792278 0.336535055,14.1615005 0.441080509,14.296046 C0.530171419,14.4105914 0.6019896,14.5174096 0.660171419,14.6228641 C1.06880778,15.3605914 1.07789869,16.2505914 0.684262328,17.0028641 C0.613353237,17.1383187 0.615171419,17.3005914 0.689262328,17.4342278 C0.763807782,17.5678641 0.900171419,17.6551369 1.05244415,17.6669551 C1.89835324,17.731046 2.64744415,18.2092278 3.05653505,18.9465005 C3.11653505,19.0555914 3.16971687,19.1728641 3.21744415,19.3055914 C3.27562596,19.4665005 3.41926233,19.5805914 3.58880778,19.6015005 C3.60744415,19.6037732 3.62653505,19.6051369 3.64471687,19.6051369 C3.79426233,19.6051369 3.93608051,19.5315005 4.02108051,19.4055914 C4.24017142,19.0819551 4.52517142,18.821046 4.86789869,18.631046 C5.5969896,18.2274096 6.51335324,18.2219551 7.25017142,18.6078641 C7.38562596,18.6792278 7.54789869,18.6778641 7.68244415,18.6028641 C7.81653505,18.5283187 7.90380778,18.391046 7.91471687,18.2378641 C7.96835324,17.4896823 8.35517142,16.8205914 8.9569896,16.391046 C9.13880778,16.4342278 9.32471687,16.4578641 9.51062596,16.4578641 C10.0651714,16.4578641 10.5838078,16.2669551 11.0083532,15.9437732 L11.0074441,15.9446823 C11.3647169,15.9792278 11.7028987,16.0828641 12.0128987,16.2615005 C12.7460805,16.6851369 13.2119896,17.4433187 13.2578987,18.2892278 C13.2660805,18.4424096 13.3510805,18.581046 13.4838078,18.6578641 C13.6165351,18.7351369 13.7778987,18.7396823 13.9160805,18.6705914 C14.6583532,18.2969551 15.5751714,18.3192278 16.2965351,18.7351369 C16.6351714,18.9305914 16.915626,19.196046 17.1297169,19.5242278 C17.2147169,19.6533187 17.3578987,19.7301369 17.510626,19.7301369 C17.5260805,19.7301369 17.5419896,19.7292278 17.5578987,19.7274096 C17.7274441,19.7096823 17.8724441,19.5987732 17.9342623,19.4392278 C17.9869896,19.3028641 18.0415351,19.186046 18.1015351,19.0828641 C18.5238078,18.3524096 19.2815351,17.886046 20.1288078,17.8369551 C20.2810805,17.8278641 20.4192623,17.7433187 20.4960805,17.6105914 C20.5724441,17.4783187 20.5774441,17.3165005 20.5083532,17.1796823 C20.1278987,16.4205914 20.1524441,15.5315005 20.5747169,14.801046 C20.6338078,14.6978641 20.7074441,14.5919551 20.7992623,14.4778641 C20.9069896,14.3451369 20.930626,14.1642278 20.860626,14.0083187 L20.860626,14.0083187 Z M7.50880778,6.29513687 C8.18289869,5.65877323 8.57244415,4.77059142 8.57244415,3.8224096 C8.57244415,3.51104596 8.52835324,3.19968232 8.44335324,2.89922778 C9.34108051,2.8124096 10.1638078,2.37059142 10.7374441,1.67877323 C11.3069896,2.36559142 12.1247169,2.80559142 13.0315351,2.89695505 C12.9460805,3.19877323 12.9015351,3.51104596 12.9015351,3.8224096 C12.9015351,4.77059142 13.290626,5.65877323 13.9651714,6.29513687 C13.2910805,6.93468232 12.9015351,7.82286414 12.9015351,8.76831869 C12.9015351,8.83559142 12.9088078,8.9024096 12.9138078,8.96877323 C12.8247169,8.95877323 12.7347169,8.95195505 12.6451714,8.95195505 C12.1888078,8.95195505 11.7578987,9.08286414 11.3819896,9.30786414 C11.3819896,9.30831869 11.3824441,9.30877323 11.3824441,9.30922778 C11.3378987,9.19604596 11.2947169,9.0824096 11.2342623,8.97513687 C11.2151714,8.94195505 11.1892623,8.91468232 11.1688078,8.8824096 C11.1701714,8.87650051 11.1724441,8.87150051 11.1724441,8.86513687 L11.1724441,3.42286414 C11.1724441,3.17195505 10.9692623,2.96831869 10.7178987,2.96831869 C10.4665351,2.96831869 10.2633532,3.17195505 10.2633532,3.42286414 L10.2633532,8.02513687 C10.0892623,7.93059142 9.90744415,7.85013687 9.71108051,7.80059142 C9.51562596,7.75059142 9.31471687,7.72513687 9.11426233,7.72513687 C8.87880778,7.72513687 8.6519896,7.76695505 8.43380778,7.83013687 C8.26653505,7.24786414 7.95335324,6.71650051 7.50880778,6.29513687 L7.50880778,6.29513687 Z M7.54335324,9.90786414 C7.73517142,9.15831869 8.38108051,8.63377323 9.11426233,8.63377323 C9.23880778,8.63377323 9.36471687,8.64968232 9.48653505,8.68104596 C9.89153505,8.78422778 10.2310805,9.0474096 10.4424441,9.42195505 C10.6578987,9.80331869 10.7151714,10.2533187 10.6038078,10.6887732 C10.5342623,10.9615005 10.4038078,11.2024096 10.2315351,11.4005914 C10.2169896,11.3965005 10.2033532,11.391046 10.1888078,11.3874096 C9.99335324,11.3378641 9.79289869,11.3124096 9.5919896,11.3124096 C9.09880778,11.3124096 8.63608051,11.4678641 8.24062596,11.7278641 C7.66335324,11.366046 7.3569896,10.6374096 7.54335324,9.90786414 L7.54335324,9.90786414 Z M7.1069896,17.5674096 C6.22562596,17.291046 5.24062596,17.386046 4.42744415,17.836046 C4.17789869,17.9746823 3.95108051,18.1401369 3.74789869,18.3315005 C3.2819896,17.5969551 2.55835324,17.0751369 1.72426233,16.8601369 C1.98335324,16.0383187 1.92426233,15.1483187 1.54926233,14.3642278 C1.81926233,14.2933187 2.07971687,14.1883187 2.32926233,14.0501369 C3.15653505,13.5915005 3.74517142,12.8201369 3.9769896,11.9201369 C4.85653505,12.1969551 5.84289869,12.1015005 6.65562596,11.6519551 C6.7269896,11.6124096 6.79335324,11.5646823 6.86108051,11.5187732 C7.03017142,11.8519551 7.26926233,12.146046 7.56653505,12.3737732 C7.5669896,12.3728641 7.56744415,12.3724096 7.56835324,12.3719551 C7.3769896,12.6365005 7.22653505,12.9365005 7.14153505,13.2705914 C7.13744415,13.2865005 7.13789869,13.3028641 7.13380778,13.3192278 L3.06471687,15.5751369 C2.84517142,15.6974096 2.76562596,15.9737732 2.88744415,16.1933187 C2.97062596,16.3428641 3.12517142,16.4274096 3.28517142,16.4274096 C3.35971687,16.4274096 3.43517142,16.4092278 3.50517142,16.3705914 L7.10062596,14.3765005 C7.15380778,14.6842278 7.25562596,14.9828641 7.41835324,15.2569551 C7.58471687,15.5374096 7.79971687,15.7765005 8.04971687,15.9665005 C7.59471687,16.4024096 7.26380778,16.9528641 7.1069896,17.5674096 L7.1069896,17.5674096 Z M11.0815351,14.2755914 C10.8574441,15.1537732 9.98153505,15.716046 9.13880778,15.5024096 C8.74653505,15.4024096 8.41289869,15.1505914 8.20108051,14.7924096 C7.97108051,14.4046823 7.90744415,13.9442278 8.02244415,13.4951369 C8.21380778,12.7451369 8.85926233,12.2215005 9.59244415,12.2215005 C9.7169896,12.2215005 9.84244415,12.2369551 9.96426233,12.2683187 C10.8074441,12.4837732 11.3088078,13.3842278 11.0815351,14.2755914 L11.0815351,14.2755914 Z M11.0583532,11.811046 C11.2488078,11.5465005 11.3992623,11.2469551 11.4847169,10.9133187 C11.535626,10.7128641 11.555626,10.5105914 11.5601714,10.3092278 C11.8524441,10.031046 12.2328987,9.86150051 12.645626,9.86150051 C12.7701714,9.86150051 12.895626,9.87695505 13.0174441,9.90831869 C13.4224441,10.0119551 13.7619896,10.2751369 13.9733532,10.6496823 C14.1888078,11.0305914 14.2460805,11.4805914 14.1347169,11.916046 C13.9433532,12.666046 13.2969896,13.1901369 12.5633532,13.1901369 C12.4388078,13.1901369 12.3138078,13.1746823 12.1924441,13.1433187 C12.0960805,13.1183187 12.0051714,13.0824096 11.9183532,13.041046 C11.760626,12.5524096 11.4624441,12.121046 11.0583532,11.811046 L11.0583532,11.811046 Z M19.4719896,17.0196823 C18.6342623,17.2201369 17.9019896,17.7296823 17.4224441,18.4555914 C17.2228987,18.2601369 16.9978987,18.0905914 16.7510805,17.9483187 C16.2333532,17.6496823 15.645626,17.4915005 15.0515351,17.4915005 C14.7228987,17.4915005 14.3942623,17.5396823 14.0778987,17.6337732 C13.8633532,16.731046 13.2888078,15.9496823 12.4674441,15.4751369 C12.2247169,15.3351369 11.9624441,15.2305914 11.6910805,15.1542278 C11.805626,14.9519551 11.9019896,14.7355914 11.9619896,14.5005914 C12.0015351,14.3455914 12.0247169,14.1905914 12.035626,14.0369551 C12.2097169,14.076046 12.3860805,14.0992278 12.5628987,14.0992278 C12.8078987,14.0992278 13.0442623,14.0555914 13.270626,13.9869551 L17.6801714,16.5333187 C17.7515351,16.5746823 17.8297169,16.5942278 17.9069896,16.5942278 C18.0642623,16.5942278 18.2169896,16.5128641 18.3010805,16.3669551 C18.4265351,16.1492278 18.3519896,15.8715005 18.1347169,15.746046 L14.1960805,13.4719551 L14.195626,13.4724096 C14.5833532,13.1328641 14.8783532,12.6769551 15.0151714,12.141046 C15.0338078,12.0692278 15.0369896,11.996046 15.0492623,11.9233187 L15.0492623,11.9251369 C15.7624441,12.2142278 16.5678987,12.2601369 17.3051714,12.041046 C17.5219896,12.9451369 18.0965351,13.7265005 18.915626,14.1996823 C19.1628987,14.3419551 19.4219896,14.4519551 19.6910805,14.5274096 C19.3019896,15.3046823 19.2274441,16.1933187 19.4719896,17.0196823 L19.4719896,17.0196823 Z" id="Shape"></path>
                </g>
                <g id="TREE" transform="translate(320.904298, 43.422917) rotate(-348.000000) translate(-320.904298, -43.422917) translate(312.904298, 33.422917)" fill="#7CD7A4" sketch:type="MSShapeGroup">
                    <path d="M15.639216,15.5959737 L12.1044334,11.6668433 L14.5174769,11.6668433 C14.689216,11.6668433 14.8448682,11.5659737 14.9144334,11.4090172 C14.9844334,11.2520606 14.9557378,11.0690172 14.8405204,10.9411911 L10.9970421,6.66858238 L13.1483465,6.66858238 C13.3200856,6.66858238 13.4757378,6.56771282 13.545303,6.4107563 C13.615303,6.25379977 13.5866073,6.0707563 13.47139,5.94293021 L8.35704213,0.257712818 C8.19225952,0.0746693399 7.87573778,0.0746693399 7.71095517,0.257712818 L2.59617256,5.94293021 C2.48095517,6.0707563 2.45225952,6.25379977 2.52225952,6.4107563 C2.59182473,6.56727804 2.74791169,6.66858238 2.91921604,6.66858238 L5.07052039,6.66858238 L1.22704213,10.9411911 C1.11225952,11.0690172 1.08312908,11.2520606 1.15312908,11.4090172 C1.22312908,11.5655389 1.37878126,11.6668433 1.55052039,11.6668433 L3.96356386,11.6668433 L0.3826943,15.647278 C0.267911691,15.7751041 0.238781256,15.9581476 0.308781256,16.1151041 C0.378781256,16.2716259 0.53443343,16.3729302 0.70617256,16.3729302 L6.29486821,16.3729302 L6.29486821,19.1990172 C6.29486821,19.4394519 6.48921604,19.6337998 6.72965082,19.6337998 L9.33834647,19.6337998 C9.57878126,19.6337998 9.77312908,19.4394519 9.77312908,19.1990172 L9.77312908,16.3729302 L15.3618247,16.3729302 C15.3648682,16.3729302 15.3683465,16.373365 15.3705204,16.3729302 C15.6109552,16.3729302 15.805303,16.1785824 15.805303,15.9381476 C15.805303,15.7994519 15.7405204,15.6755389 15.639216,15.5959737 L15.639216,15.5959737 Z M8.90356386,18.7642346 L7.16443343,18.7642346 L7.16443343,16.3729302 L8.90356386,16.3729302 L8.90356386,18.7642346 L8.90356386,18.7642346 Z M9.33834647,15.503365 L6.72965082,15.503365 L1.68225952,15.503365 L5.2626943,11.5229302 C5.37791169,11.3951041 5.40660734,11.2120606 5.33660734,11.0551041 C5.26704213,10.8985824 5.11095517,10.797278 4.93965082,10.797278 L2.52617256,10.797278 L6.36965082,6.52466934 C6.48486821,6.39684325 6.51356386,6.21379977 6.44356386,6.05684325 C6.37399865,5.90032151 6.21791169,5.79901717 6.04660734,5.79901717 L3.89573778,5.79901717 L8.03399865,1.19858238 L12.1726943,5.79901717 L10.0218247,5.79901717 C9.8500856,5.79901717 9.69443343,5.89988673 9.62486821,6.05684325 C9.55486821,6.21379977 9.58356386,6.39684325 9.69878126,6.52466934 L13.5422595,10.797278 L11.1287813,10.797278 C10.9570421,10.797278 10.80139,10.8981476 10.7318247,11.0551041 C10.6618247,11.2120606 10.6905204,11.3951041 10.8057378,11.5229302 L14.3861726,15.503365 L9.33834647,15.503365 L9.33834647,15.503365 Z M11.0935639,13.8020606 C11.0935639,14.1629302 10.8018247,14.4542346 10.44139,14.4542346 C10.0809552,14.4542346 9.78921604,14.1629302 9.78921604,13.8020606 C9.78921604,13.4420606 10.0809552,13.1498867 10.44139,13.1498867 C10.8018247,13.1498867 11.0935639,13.4420606 11.0935639,13.8020606 L11.0935639,13.8020606 Z M6.96095517,13.3681476 C6.96095517,13.7281476 6.66921604,14.0203215 6.30878126,14.0203215 C5.94834647,14.0203215 5.65660734,13.7281476 5.65660734,13.3681476 C5.65660734,13.007278 5.94834647,12.7159737 6.30878126,12.7159737 C6.66921604,12.7159737 6.96095517,13.007278 6.96095517,13.3681476 L6.96095517,13.3681476 Z M10.2235639,9.38466934 C10.2235639,9.74553891 9.93182473,10.0368433 9.57138995,10.0368433 C9.21095517,10.0368433 8.91921604,9.74553891 8.91921604,9.38466934 C8.91921604,9.02466934 9.21095517,8.73249543 9.57138995,8.73249543 C9.93182473,8.73249543 10.2235639,9.02466934 10.2235639,9.38466934 L10.2235639,9.38466934 Z M6.96052039,8.9507563 C6.96052039,9.3107563 6.66878126,9.60293021 6.30834647,9.60293021 C5.94791169,9.60293021 5.65617256,9.3107563 5.65617256,8.9507563 C5.65617256,8.58988673 5.94791169,8.29858238 6.30834647,8.29858238 C6.66878126,8.29858238 6.96052039,8.58988673 6.96052039,8.9507563 L6.96052039,8.9507563 Z M8.68617256,4.25945195 C8.68617256,4.61988673 8.39443343,4.91162586 8.03399865,4.91162586 C7.67356386,4.91162586 7.38182473,4.61988673 7.38182473,4.25945195 C7.38182473,3.89945195 7.67356386,3.60858238 8.03399865,3.60858238 C8.39443343,3.60858238 8.68617256,3.89945195 8.68617256,4.25945195 L8.68617256,4.25945195 Z" id="Shape"></path>
                </g>
                <g id="TREE-Copy" transform="translate(57.987561, 49.852690) rotate(-348.000000) translate(-57.987561, -49.852690) translate(49.987561, 39.852690)" fill="#7CD7A4" sketch:type="MSShapeGroup">
                    <path d="M15.4135983,15.9349998 L11.8788157,12.0058693 L14.2918592,12.0058693 C14.4635983,12.0058693 14.6192505,11.9049998 14.6888157,11.7480433 C14.7588157,11.5910867 14.73012,11.4080433 14.6149026,11.2802172 L10.7714244,7.00760847 L12.9227287,7.00760847 C13.0944679,7.00760847 13.25012,6.9067389 13.3196852,6.74978238 C13.3896852,6.59282586 13.3609896,6.40978238 13.2457722,6.2819563 L8.13142438,0.596738905 C7.96664177,0.413695426 7.65012003,0.413695426 7.48533742,0.596738905 L2.37055481,6.2819563 C2.25533742,6.40978238 2.22664177,6.59282586 2.29664177,6.74978238 C2.36620699,6.90630412 2.52229395,7.00760847 2.69359829,7.00760847 L4.84490264,7.00760847 L1.00142438,11.2802172 C0.886641771,11.4080433 0.857511336,11.5910867 0.927511336,11.7480433 C0.997511336,11.904565 1.15316351,12.0058693 1.32490264,12.0058693 L3.73794612,12.0058693 L0.157076554,15.9863041 C0.0422939452,16.1141302 0.0131635104,16.2971737 0.0831635104,16.4541302 C0.15316351,16.6106519 0.308815684,16.7119563 0.480554815,16.7119563 L6.06925047,16.7119563 L6.06925047,19.5380433 C6.06925047,19.778478 6.26359829,19.9728259 6.50403308,19.9728259 L9.11272873,19.9728259 C9.35316351,19.9728259 9.54751134,19.778478 9.54751134,19.5380433 L9.54751134,16.7119563 L15.136207,16.7119563 C15.1392505,16.7119563 15.1427287,16.7123911 15.1449026,16.7119563 C15.3853374,16.7119563 15.5796852,16.5176085 15.5796852,16.2771737 C15.5796852,16.138478 15.5149026,16.014565 15.4135983,15.9349998 L15.4135983,15.9349998 Z M8.67794612,19.1032606 L6.93881568,19.1032606 L6.93881568,16.7119563 L8.67794612,16.7119563 L8.67794612,19.1032606 L8.67794612,19.1032606 Z M9.11272873,15.8423911 L6.50403308,15.8423911 L1.45664177,15.8423911 L5.03707655,11.8619563 C5.15229395,11.7341302 5.1809896,11.5510867 5.1109896,11.3941302 C5.04142438,11.2376085 4.88533742,11.1363041 4.71403308,11.1363041 L2.30055481,11.1363041 L6.14403308,6.86369543 C6.25925047,6.73586934 6.28794612,6.55282586 6.21794612,6.39586934 C6.1483809,6.2393476 5.99229395,6.13804325 5.8209896,6.13804325 L3.67012003,6.13804325 L7.8083809,1.53760847 L11.9470766,6.13804325 L9.79620699,6.13804325 C9.62446786,6.13804325 9.46881568,6.23891282 9.39925047,6.39586934 C9.32925047,6.55282586 9.35794612,6.73586934 9.47316351,6.86369543 L13.3166418,11.1363041 L10.9031635,11.1363041 C10.7314244,11.1363041 10.5757722,11.2371737 10.506207,11.3941302 C10.436207,11.5510867 10.4649026,11.7341302 10.58012,11.8619563 L14.1605548,15.8423911 L9.11272873,15.8423911 L9.11272873,15.8423911 Z M10.8679461,14.1410867 C10.8679461,14.5019563 10.576207,14.7932606 10.2157722,14.7932606 C9.85533742,14.7932606 9.56359829,14.5019563 9.56359829,14.1410867 C9.56359829,13.7810867 9.85533742,13.4889128 10.2157722,13.4889128 C10.576207,13.4889128 10.8679461,13.7810867 10.8679461,14.1410867 L10.8679461,14.1410867 Z M6.73533742,13.7071737 C6.73533742,14.0671737 6.44359829,14.3593476 6.08316351,14.3593476 C5.72272873,14.3593476 5.4309896,14.0671737 5.4309896,13.7071737 C5.4309896,13.3463041 5.72272873,13.0549998 6.08316351,13.0549998 C6.44359829,13.0549998 6.73533742,13.3463041 6.73533742,13.7071737 L6.73533742,13.7071737 Z M9.99794612,9.72369543 C9.99794612,10.084565 9.70620699,10.3758693 9.34577221,10.3758693 C8.98533742,10.3758693 8.69359829,10.084565 8.69359829,9.72369543 C8.69359829,9.36369543 8.98533742,9.07152151 9.34577221,9.07152151 C9.70620699,9.07152151 9.99794612,9.36369543 9.99794612,9.72369543 L9.99794612,9.72369543 Z M6.73490264,9.28978238 C6.73490264,9.64978238 6.44316351,9.9419563 6.08272873,9.9419563 C5.72229395,9.9419563 5.43055481,9.64978238 5.43055481,9.28978238 C5.43055481,8.92891282 5.72229395,8.63760847 6.08272873,8.63760847 C6.44316351,8.63760847 6.73490264,8.92891282 6.73490264,9.28978238 L6.73490264,9.28978238 Z M8.46055481,4.59847803 C8.46055481,4.95891282 8.16881568,5.25065195 7.8083809,5.25065195 C7.44794612,5.25065195 7.15620699,4.95891282 7.15620699,4.59847803 C7.15620699,4.23847803 7.44794612,3.94760847 7.8083809,3.94760847 C8.16881568,3.94760847 8.46055481,4.23847803 8.46055481,4.59847803 L8.46055481,4.59847803 Z" id="Shape"></path>
                </g>
                <g id="GIFT_1_" transform="translate(363.904298, 42.444770) rotate(-348.000000) translate(-363.904298, -42.444770) translate(355.904298, 32.444770)" fill="#FCD4D4" sketch:type="MSShapeGroup">
                    <path d="M15.5,4.8645 L13.822,4.8645 C14.739,3.9785 14.9425,2.5375 14.2345,1.415 C13.7265,0.6125 12.856,0.1335 11.906,0.1335 C11.3855,0.1335 10.8775,0.281 10.437,0.5605 C9.468,1.1725 8.4315,3.5105 8.0005,4.5675 C7.569,3.5105 6.532,1.172 5.564,0.561 C5.1225,0.2815 4.615,0.134 4.0945,0.134 C3.1445,0.134 2.2735,0.613 1.7655,1.416 C1.059,2.536 1.262,3.976 2.177,4.8645 L0.5,4.8645 C0.224,4.8645 -5.68434189e-14,5.088 -5.68434189e-14,5.3645 L-5.68434189e-14,9.608 C-5.68434189e-14,9.8845 0.224,10.108 0.5,10.108 L0.7755,10.108 L0.7755,19.19 C0.7755,19.4665 0.999,19.69 1.2755,19.69 L6.17,19.69 L9.83,19.69 L14.7245,19.69 C15.001,19.69 15.2245,19.4665 15.2245,19.19 L15.2245,10.108 L15.5,10.108 C15.7765,10.108 16,9.8845 16,9.608 L16,5.3645 C16,5.088 15.7765,4.8645 15.5,4.8645 L15.5,4.8645 Z M15,9.108 L14.7245,9.108 L10.33,9.108 L10.33,5.8645 L15,5.8645 L15,9.108 L15,9.108 Z M9.33,5.8645 L9.33,9.108 L6.67,9.108 L6.67,5.8645 L9.33,5.8645 L9.33,5.8645 Z M10.971,1.405 C11.252,1.2275 11.575,1.1335 11.9055,1.1335 C12.511,1.1335 13.0655,1.4385 13.389,1.9495 C13.905,2.768 13.661,3.8525 12.844,4.368 C12.672,4.477 12.0585,4.731 10.0835,4.731 C9.6895,4.731 9.3205,4.7205 9.0245,4.708 C9.5695,3.419 10.406,1.762 10.971,1.405 L10.971,1.405 Z M2.61,1.9495 C2.9335,1.4385 3.4885,1.1335 4.094,1.1335 C4.4245,1.1335 4.748,1.2275 5.029,1.406 C5.5935,1.762 6.43,3.4195 6.9755,4.708 C6.677,4.7205 6.3055,4.7315 5.907,4.7315 L5.9065,4.7315 C3.938,4.7315 3.3265,4.479 3.1555,4.371 C2.339,3.853 2.0945,2.767 2.61,1.9495 L2.61,1.9495 Z M1,5.8645 L5.67,5.8645 L5.67,9.108 L1.2755,9.108 L1,9.108 L1,5.8645 L1,5.8645 Z M1.7755,10.108 L5.67,10.108 L5.67,18.69 L1.7755,18.69 L1.7755,10.108 L1.7755,10.108 Z M6.67,18.69 L6.67,10.108 L9.33,10.108 L9.33,18.69 L6.67,18.69 L6.67,18.69 Z M14.2245,18.69 L10.33,18.69 L10.33,10.108 L14.2245,10.108 L14.2245,18.69 L14.2245,18.69 Z" id="Shape"></path>
                </g>
                <g id="GIFT_1_-Copy" transform="translate(101.393372, 50.934794) rotate(-348.000000) translate(-101.393372, -50.934794) translate(92.893372, 40.934794)" fill="#AECDF2" sketch:type="MSShapeGroup">
                    <path d="M15.6902056,5.15982129 L14.0122056,5.15982129 C14.9292056,4.27382129 15.1327056,2.83282129 14.4247056,1.71032129 C13.9167056,0.907821288 13.0462056,0.428821288 12.0962056,0.428821288 C11.5757056,0.428821288 11.0677056,0.576321288 10.6272056,0.855821288 C9.65820564,1.46782129 8.62170564,3.80582129 8.19070564,4.86282129 C7.75920564,3.80582129 6.72220564,1.46732129 5.75420564,0.856321288 C5.31270564,0.576821288 4.80520564,0.429321288 4.28470564,0.429321288 C3.33470564,0.429321288 2.46370564,0.908321288 1.95570564,1.71132129 C1.24920564,2.83132129 1.45220564,4.27132129 2.36720564,5.15982129 L0.690205636,5.15982129 C0.414205636,5.15982129 0.190205636,5.38332129 0.190205636,5.65982129 L0.190205636,9.90332129 C0.190205636,10.1798213 0.414205636,10.4033213 0.690205636,10.4033213 L0.965705636,10.4033213 L0.965705636,19.4853213 C0.965705636,19.7618213 1.18920564,19.9853213 1.46570564,19.9853213 L6.36020564,19.9853213 L10.0202056,19.9853213 L14.9147056,19.9853213 C15.1912056,19.9853213 15.4147056,19.7618213 15.4147056,19.4853213 L15.4147056,10.4033213 L15.6902056,10.4033213 C15.9667056,10.4033213 16.1902056,10.1798213 16.1902056,9.90332129 L16.1902056,5.65982129 C16.1902056,5.38332129 15.9667056,5.15982129 15.6902056,5.15982129 L15.6902056,5.15982129 Z M15.1902056,9.40332129 L14.9147056,9.40332129 L10.5202056,9.40332129 L10.5202056,6.15982129 L15.1902056,6.15982129 L15.1902056,9.40332129 L15.1902056,9.40332129 Z M9.52020564,6.15982129 L9.52020564,9.40332129 L6.86020564,9.40332129 L6.86020564,6.15982129 L9.52020564,6.15982129 L9.52020564,6.15982129 Z M11.1612056,1.70032129 C11.4422056,1.52282129 11.7652056,1.42882129 12.0957056,1.42882129 C12.7012056,1.42882129 13.2557056,1.73382129 13.5792056,2.24482129 C14.0952056,3.06332129 13.8512056,4.14782129 13.0342056,4.66332129 C12.8622056,4.77232129 12.2487056,5.02632129 10.2737056,5.02632129 C9.87970564,5.02632129 9.51070564,5.01582129 9.21470564,5.00332129 C9.75970564,3.71432129 10.5962056,2.05732129 11.1612056,1.70032129 L11.1612056,1.70032129 Z M2.80020564,2.24482129 C3.12370564,1.73382129 3.67870564,1.42882129 4.28420564,1.42882129 C4.61470564,1.42882129 4.93820564,1.52282129 5.21920564,1.70132129 C5.78370564,2.05732129 6.62020564,3.71482129 7.16570564,5.00332129 C6.86720564,5.01582129 6.49570564,5.02682129 6.09720564,5.02682129 L6.09670564,5.02682129 C4.12820564,5.02682129 3.51670564,4.77432129 3.34570564,4.66632129 C2.52920564,4.14832129 2.28470564,3.06232129 2.80020564,2.24482129 L2.80020564,2.24482129 Z M1.19020564,6.15982129 L5.86020564,6.15982129 L5.86020564,9.40332129 L1.46570564,9.40332129 L1.19020564,9.40332129 L1.19020564,6.15982129 L1.19020564,6.15982129 Z M1.96570564,10.4033213 L5.86020564,10.4033213 L5.86020564,18.9853213 L1.96570564,18.9853213 L1.96570564,10.4033213 L1.96570564,10.4033213 Z M6.86020564,18.9853213 L6.86020564,10.4033213 L9.52020564,10.4033213 L9.52020564,18.9853213 L6.86020564,18.9853213 L6.86020564,18.9853213 Z M14.4147056,18.9853213 L10.5202056,18.9853213 L10.5202056,10.4033213 L14.4147056,10.4033213 L14.4147056,18.9853213 L14.4147056,18.9853213 Z" id="Shape"></path>
                </g>
                <g id="SUGAR" transform="translate(189.458929, 48.826341) rotate(-348.000000) translate(-189.458929, -48.826341) translate(183.958929, 38.826341)" fill="#FCD4D4" sketch:type="MSShapeGroup">
                    <path d="M9.92895218,3.00245349 C9.74937772,2.69181519 9.53873942,2.40628327 9.30427133,2.14500668 C9.3038458,2.14500668 9.3038458,2.14458115 9.30342027,2.14415561 C9.29916495,2.13947476 9.2944841,2.13521944 9.29022878,2.13053859 C8.6451224,1.41819817 7.81065431,0.902453486 6.86044155,0.647985401 C6.43107984,0.532666252 5.99022878,0.474793911 5.54980325,0.474793911 C3.26895218,0.474793911 1.26256921,2.01564498 0.671505376,4.22160242 L0.451079844,5.04373008 C0.303845801,5.59266625 0.379590482,6.16628327 0.663845801,6.65819817 C0.94810112,7.15011306 1.40682452,7.50202795 1.95576069,7.649262 C2.13661176,7.69777263 2.32171814,7.72245349 2.50767559,7.72245349 C3.46852665,7.72245349 4.31278197,7.07394285 4.56129261,6.14500668 L4.78171814,5.32287902 C4.8038458,5.24075136 4.84214367,5.1667088 4.88725006,5.0986237 C4.89405857,5.08883646 4.89959048,5.07819817 4.90639899,5.06883646 C4.9532075,5.00543221 5.00937772,4.94968753 5.07193091,4.90202795 C5.08086708,4.89479391 5.09065431,4.88883646 5.10001601,4.88202795 C5.16639899,4.83607051 5.23916495,4.79777263 5.31703729,4.77266625 C5.32044155,4.77181519 5.3238458,4.77096412 5.32725006,4.77011306 C5.40980325,4.74458115 5.49661176,4.73138966 5.58469687,4.73436838 L5.58469687,4.73436838 C5.64256921,4.73607051 5.70044155,4.74330455 5.75873942,4.7586237 C5.85959048,4.78543221 5.94980325,4.83224072 6.02895218,4.89181519 C6.08725006,4.93521944 6.13703729,4.9867088 6.18001601,5.04287902 C6.18597346,5.05053859 6.19065431,5.05819817 6.19618623,5.06585774 C6.23661176,5.12202795 6.27107984,5.18202795 6.29533516,5.2467088 C6.29576069,5.24755987 6.29576069,5.2479854 6.29618623,5.24841093 C6.32214367,5.3173471 6.33788835,5.38968753 6.3438458,5.46458115 C6.34427133,5.46883646 6.34427133,5.47309178 6.34427133,5.47649604 C6.34937772,5.55053859 6.34469687,5.6267088 6.32810112,5.70202795 L6.32810112,5.70202795 C6.32554793,5.71309178 6.32554793,5.72500668 6.32256921,5.73607051 L3.2251224,17.2960705 C2.92129261,18.4288365 3.59618623,19.5981982 4.72937772,19.902028 C4.90980325,19.9501131 5.09533516,19.9747939 5.28086708,19.9747939 L5.28129261,19.9747939 C6.24171814,19.9747939 7.08639899,19.3267088 7.33533516,18.3977726 L10.4323564,6.8373471 C10.7829947,5.53351732 10.6038458,4.17138966 9.92895218,3.00245349 L9.92895218,3.00245349 Z M3.73959048,5.92458115 C3.56129261,6.589262 2.84937772,7.0067088 2.17618623,6.82713434 C1.84682452,6.73904923 1.57150538,6.52755987 1.40086708,6.23266625 C1.23065431,5.9373471 1.1851224,5.59309178 1.2732075,5.26415561 L1.49363304,4.44202795 C1.56044155,4.19266625 1.65065431,3.95436838 1.75873942,3.72713434 L4.01022878,4.96287902 C3.9932075,5.00883646 3.97278197,5.05394285 3.96001601,5.10245349 L3.73959048,5.92458115 L3.73959048,5.92458115 Z M5.55193091,3.87990029 C5.47107984,3.87990029 5.39107984,3.88841093 5.31235644,3.89990029 L4.51405857,1.45607051 C4.84725006,1.37096412 5.1944841,1.32585774 5.54980325,1.32585774 C5.91576069,1.32585774 6.28299474,1.37436838 6.64044155,1.47011306 C7.30682452,1.64883646 7.9051224,1.98160242 8.39831389,2.43649604 L6.61959048,4.27947476 C6.43831389,4.12458115 6.22469687,4.00245349 5.97959048,3.93649604 C5.83916495,3.89904923 5.69576069,3.87990029 5.55193091,3.87990029 L5.55193091,3.87990029 Z M9.73959048,5.86373008 C9.71873942,6.11564498 9.67788835,6.36755987 9.61107984,6.61692157 L9.00427133,8.88117689 L6.53831389,8.22075136 L7.1451224,5.95564498 C7.16427133,5.88458115 7.17065431,5.81351732 7.17959048,5.74202795 L9.73959048,5.86373008 L9.73959048,5.86373008 Z M8.3438458,11.3475599 L7.5544841,14.2952194 L5.08810112,13.6343684 L5.87746282,10.6867088 L8.3438458,11.3475599 L8.3438458,11.3475599 Z M6.51405857,18.1773471 C6.33576069,18.842028 5.62256921,19.2611769 4.95022878,19.0799003 C4.27022878,18.8973471 3.8651224,18.1960705 4.04767559,17.5160705 L4.42725006,16.1007514 L6.89363304,16.7616024 L6.51405857,18.1773471 L6.51405857,18.1773471 Z" id="Shape"></path>
                </g>
                <g id="sock" transform="translate(405.051958, 39.397518) rotate(-348.000000) translate(-405.051958, -39.397518) translate(399.051958, 28.897518)" fill="#AECDF2" sketch:type="MSShapeGroup">
                    <path d="M1.67133196,14.3716649 C1.02324685,14.9567713 0.641544726,15.7593245 0.597289407,16.6316649 C0.552608556,17.5035798 0.850480896,18.3410266 1.43558728,18.9886862 C2.0798426,19.7031543 2.97005536,20.0652819 3.86409792,20.0652819 C4.64494898,20.0652819 5.42877877,19.7882607 6.05303409,19.2244309 L8.40580005,17.0984734 C10.2398426,15.6865585 10.2602681,13.9529415 10.2602681,13.87975 L10.2602681,5.12060109 L10.5398426,5.12060109 C11.1564383,5.12060109 11.6581405,4.61889896 11.6581405,4.00272875 L11.6581405,1.62655853 C11.6581405,1.00996279 11.1564383,0.508260661 10.5398426,0.508260661 L3.8304809,0.508260661 C3.21388515,0.508260661 2.71218302,1.00996279 2.71218302,1.62655853 L2.71218302,4.00272875 C2.71218302,4.61932449 3.21388515,5.12060109 3.8304809,5.12060109 L3.92324685,5.12060109 L3.92324685,12.3384734 L1.67133196,14.3716649 L1.67133196,14.3716649 Z M4.66877877,8.56485641 L9.51473622,10.0993245 L9.51473622,11.9946436 L4.66877877,10.1593245 L4.66877877,8.56485641 L4.66877877,8.56485641 Z M9.51473622,9.31762236 L4.66877877,7.78315428 L4.66877877,6.03038832 L9.51473622,7.37634577 L9.51473622,9.31762236 L9.51473622,9.31762236 Z M4.54580005,12.7810266 C4.62409792,12.7103883 4.66877877,12.6095373 4.66877877,12.5048564 L4.66877877,10.9559202 L8.94324685,12.5750692 C8.48877877,12.9746436 8.19005536,13.5282607 8.08962983,14.1810266 L4.40835324,12.9048564 L4.54580005,12.7810266 L4.54580005,12.7810266 Z M1.98835324,18.4891117 C1.98026813,18.4801756 1.97388515,18.4703883 1.96580005,18.4618777 L4.09814047,19.3069841 C3.33218302,19.3776224 2.54282132,19.1031543 1.98835324,18.4891117 L1.98835324,18.4891117 Z M5.55260856,18.6712394 C5.43941707,18.773367 5.318566,18.8614522 5.19388515,18.9393245 L1.42239579,17.4444309 C1.35643834,17.1950692 1.3279277,16.9342181 1.34154473,16.6695373 C1.36239579,16.2610266 1.48069366,15.872516 1.68154473,15.5286862 L6.95771494,17.4031543 L5.55260856,18.6712394 L5.55260856,18.6712394 Z M7.92750217,16.5274096 L7.58580005,16.8354947 L2.18111919,14.9150692 L3.77643834,13.4750692 L8.06835324,14.9627287 C8.10580005,15.3618777 8.22537451,15.7427287 8.42282132,16.0895373 C8.27814047,16.2359202 8.11473622,16.3831543 7.92750217,16.5274096 L7.92750217,16.5274096 Z M8.94282132,15.453367 C8.84750217,15.212516 8.79303409,14.9563458 8.79303409,14.6903883 C8.79303409,13.9899628 9.0504809,13.4227287 9.51431068,13.0618777 L9.51431068,13.8776224 C9.51431068,13.918899 9.49473622,14.6227287 8.94282132,15.453367 L8.94282132,15.453367 Z M3.45771494,4.00272875 L3.45771494,1.62655853 C3.45771494,1.42102662 3.62494898,1.25379258 3.8304809,1.25379258 L10.5394171,1.25379258 C10.744949,1.25379258 10.912183,1.42102662 10.912183,1.62655853 L10.912183,4.00272875 C10.912183,4.20826066 10.744949,4.37506917 10.5394171,4.37506917 L3.8304809,4.37506917 C3.62494898,4.37506917 3.45771494,4.20826066 3.45771494,4.00272875 L3.45771494,4.00272875 Z M9.51473622,5.12060109 L9.51473622,6.60272875 L4.66877877,5.25634577 L4.66877877,5.12017555 L9.51473622,5.12017555 L9.51473622,5.12060109 Z" id="Shape"></path>
                </g>
            </g>
        </g>
    </g>
</svg>