<?xml version="1.0" encoding="UTF-8" standalone="no"?>
<svg width="612px" height="226px" viewBox="0 0 612 226" version="1.1" xmlns="http://www.w3.org/2000/svg" xmlns:xlink="http://www.w3.org/1999/xlink" xmlns:sketch="http://www.bohemiancoding.com/sketch/ns">
    <!-- Generator: Sketch 3.4.2 (15857) - http://www.bohemiancoding.com/sketch -->
    <title>base + nacimiento</title>
    <desc>Created with Sketch.</desc>
    <defs></defs>
    <g id="Page-1" stroke="none" stroke-width="1" fill="none" fill-rule="evenodd" sketch:type="MSPage">
        <g id="Letter" sketch:type="MSArtboardGroup" transform="translate(0.000000, -566.000000)" fill="#FCD4D4">
            <g id="base-+-nacimiento" sketch:type="MSLayerGroup" transform="translate(-1.000000, 565.000000)">
                <g id="base" transform="translate(0.000000, 157.000000)" sketch:type="MSShapeGroup">
                    <path d="M0,54.8541449 C36.0959739,40.0726673 52.1296562,6.60111077 91.7831508,0.954947746 C152.033052,-7.62388675 201.081187,68.2676772 255.731483,48.5448758 C284.506908,38.1600831 292.364119,55.0782413 315,54.8541466" id="mountains"></path>
                    <rect transform="translate(307.000000, 352.500000) scale(1, -1) translate(-307.000000, -352.500000) " x="0" y="54" width="614" height="597"></rect>
                </g>
                <g id="nacimiento" transform="translate(440.500000, 106.400000) scale(1, -1) translate(-440.500000, -106.400000) translate(285.000000, 0.900000)" sketch:type="MSShapeGroup">
                    <path d="M144.029015,210.635805 C143.90023,210.507021 144.157799,208.918675 144.587082,207.072761 C145.703216,202.43651 145.746144,202.522367 143.256306,201.878443 C139.049338,200.805237 131.493967,196.598269 127.630424,193.249866 C126.213792,192.004946 126.213792,192.004946 125.441084,192.820583 C124.668375,193.679148 123.08003,194.022574 123.08003,193.292794 C123.08003,193.121081 123.466385,192.434229 123.938595,191.833233 L124.79716,190.760027 L122.006824,187.068198 C119.044775,183.075871 116.254439,177.795697 115.138305,173.846298 C114.751951,172.472594 114.322668,171.35646 114.236812,171.35646 C114.108027,171.35646 112.390897,171.785742 110.373269,172.257953 C107.66879,172.944805 106.595584,173.07359 106.252158,172.730164 C105.95166,172.429666 105.865804,172.08624 106.037517,171.957455 C106.423871,171.571101 136.216074,164.487941 137.460993,164.487941 C138.190773,164.487941 138.491271,164.788438 138.705912,165.818716 C139.00641,167.364133 140.895253,171.270604 141.882602,172.34381 C142.526526,173.07359 142.741167,172.944805 145.61736,170.068613 L148.708193,167.020707 L147.8067,164.659654 L146.905207,162.341528 L128.746559,162.341528 C111.661117,162.341528 110.587911,162.2986 110.716695,161.611748 C110.84548,160.881968 112.133328,160.83904 129.004128,160.710255 C143.342163,160.624398 147.119848,160.495614 147.119848,160.066331 C147.119848,159.765834 147.506202,158.778484 147.978413,157.834062 L148.836978,156.159861 L145.746144,153.026099 C143.385091,150.665045 142.526526,150.021122 142.097243,150.364548 C141.324535,151.0514 138.534199,156.717928 138.534199,157.662349 C138.534199,158.091632 138.362486,158.520914 138.147845,158.649699 C137.675634,158.950197 106.724369,151.652395 106.166301,151.137256 C105.908732,150.879687 105.908732,150.579189 106.20923,150.278691 C106.509727,149.978193 107.66879,150.106978 110.1157,150.707974 C112.004543,151.223113 113.764601,151.609467 114.02217,151.609467 C114.27974,151.609467 114.751951,150.707974 115.052448,149.591839 C116.597865,144.483378 119.516986,139.031491 123.509313,133.923029 L124.453734,132.721038 L122.049752,132.721038 C120.761905,132.721038 119.559914,132.549325 119.431129,132.291756 C119.001847,131.604904 119.989197,127.226223 121.019475,125.036882 C122.092681,122.847542 132.052034,112.37305 134.928226,110.355422 C135.915576,109.711498 137.589778,108.93879 138.705912,108.638292 L140.72354,108.123153 L138.534199,105.847956 C136.173145,103.358118 135.958504,102.456625 137.28928,100.997064 C138.104917,100.095571 138.491271,100.052643 140.423042,100.267284 C142.268956,100.524854 142.955808,100.86828 144.587082,102.499553 L146.561781,104.431324 L146.819351,100.224356 C147.291561,93.1841236 148.450624,90.0932899 152.485879,85.3711828 L154.846933,82.5379185 L154.846933,70.5180096 C154.846933,60.0864458 154.932789,58.4551724 155.490856,58.4551724 C156.048923,58.4551724 156.13478,60.0005893 156.13478,69.7882294 L156.13478,81.0783582 L157.85191,80.2627215 C159.225614,79.5758696 159.783681,79.4900131 160.856887,79.8763673 C161.973021,80.2627215 162.402304,80.176865 163.776008,79.2324436 C165.92242,77.729955 168.283474,78.0304527 170.000603,79.9192955 C171.202594,81.2500712 171.588949,83.7399094 170.773312,85.0277568 C170.558671,85.3282546 170.601599,86.100963 170.859168,86.7448867 C171.588949,88.6766578 170.859168,90.1362181 167.510765,93.6563343 L164.291147,97.0476658 L164.291147,100.782423 L164.291147,104.560109 L166.351703,102.542481 C168.025904,100.911208 168.755684,100.481925 170.429886,100.267284 C172.061159,100.052643 172.619227,100.1385 173.306078,100.739495 C174.808567,102.070271 174.422213,103.873257 172.189944,106.148454 L170.215245,108.166082 L171.631877,108.466579 C174.593926,109.110503 176.654482,110.65592 182.535651,116.580018 C189.447099,123.534394 190.906659,125.766663 191.250085,129.973631 L191.464727,132.67811 L188.93196,132.806895 L186.442122,132.93568 L187.729969,134.438168 C190.906659,138.087069 193.954565,143.581885 195.628766,148.733274 C196.143905,150.321619 196.744901,151.609467 197.00247,151.609467 C197.217112,151.609467 198.97717,151.223113 200.866013,150.707974 C203.312923,150.106978 204.471985,149.978193 204.772483,150.278691 C205.072981,150.579189 205.072981,150.879687 204.858339,151.137256 C204.257344,151.652395 173.26315,158.950197 172.833868,158.649699 C172.619227,158.520914 172.447514,158.091632 172.447514,157.662349 C172.447514,156.717928 169.657178,151.0514 168.884469,150.364548 C168.455187,150.021122 167.596622,150.665045 165.235568,153.026099 L162.144734,156.159861 L163.003299,157.834062 C163.47551,158.778484 163.861864,159.765834 163.861864,160.066331 C163.861864,160.495614 167.63955,160.624398 181.977584,160.710255 C198.848385,160.83904 200.136232,160.881968 200.265017,161.611748 C200.393802,162.2986 199.320596,162.341528 182.235154,162.341528 L164.076506,162.341528 L163.175012,164.659654 L162.273519,167.020707 L165.364353,170.068613 L168.455187,173.159446 L169.399608,171.871599 C170.601599,170.154469 172.447514,166.162142 172.447514,165.260649 C172.447514,164.74551 172.790939,164.487941 173.434863,164.487941 C174.851495,164.487941 203.913918,171.399388 204.557842,171.914527 C204.901268,172.215025 204.944196,172.515523 204.686626,172.773092 C204.3432,173.116518 201.42408,172.644307 197.26004,171.528173 C196.701973,171.35646 196.401475,171.871599 195.843408,173.80337 C194.641417,177.881553 191.936937,183.118799 188.93196,187.068198 L186.141624,190.802956 L187.043117,191.747377 C187.515328,192.219588 187.901682,192.90644 187.901682,193.164009 C187.901682,193.979646 186.399194,193.765005 185.540629,192.820583 C184.76792,192.004946 184.76792,192.004946 182.793221,193.593292 C177.641831,197.886116 173.091437,200.24717 165.750707,202.479439 C165.407281,202.565295 165.493138,203.595573 166.051205,205.999555 C166.480487,207.845469 166.866842,209.691384 166.866842,210.120666 C166.866842,211.193872 165.621922,211.02216 165.364353,209.906025 C165.235568,209.347958 163.604295,202.43651 161.715452,194.537713 C159.826609,186.638916 158.281192,179.856253 158.281192,179.469899 C158.281192,179.040616 159.096829,178.568405 160.556389,178.096195 C162.874515,177.366414 166.866842,175.091217 166.866842,174.447294 C166.866842,174.275581 165.536066,172.773092 163.861864,171.141819 C160.856887,168.17977 160.856887,168.17977 159.697824,168.823693 C159.010972,169.210048 157.980695,169.63933 157.336771,169.811043 L156.13478,170.068613 L156.048923,188.313117 C155.963067,200.118385 155.748426,206.557622 155.490856,206.557622 C155.233287,206.557622 155.018646,200.118385 154.932789,188.313117 L154.846933,170.068613 L153.644942,169.811043 C153.001018,169.63933 151.97074,169.210048 151.283888,168.823693 C150.124825,168.17977 150.124825,168.17977 147.119848,171.141819 C145.445647,172.773092 144.114871,174.275581 144.114871,174.447294 C144.114871,175.091217 148.107198,177.366414 150.425323,178.096195 C151.670242,178.482549 152.70052,178.997688 152.70052,179.255257 C152.70052,179.469899 151.069247,186.595987 149.051619,195.052852 C147.033992,203.509716 145.402718,210.507021 145.402718,210.635805 C145.402718,210.936303 144.329512,210.936303 144.029015,210.635805 L144.029015,210.635805 Z M146.862279,197.628547 C147.248633,195.782632 147.677915,193.893789 147.8067,193.421579 C147.978413,192.691798 147.720844,192.434229 146.34714,192.047875 C145.402718,191.747377 144.458297,191.532736 144.243656,191.532736 C144.029015,191.532736 143.299234,192.90644 142.655311,194.537713 C141.582104,197.242192 140.895253,198.014901 140.165472,197.285121 C139.993759,197.156336 140.46597,195.653847 141.152822,193.979646 C142.354813,191.146382 142.397741,190.845884 141.710889,190.45953 C135.057011,186.510131 130.334904,182.045593 127.845066,177.409343 C127.072357,175.949782 126.299649,174.79072 126.042079,174.79072 C125.827438,174.79072 124.453734,175.26293 122.994174,175.863926 C120.418479,176.894204 119.216488,176.98006 119.216488,176.121495 C119.216488,175.906854 120.63312,175.134146 122.35025,174.404365 C125.612797,173.030662 125.741582,172.81602 124.840088,170.36911 C124.582519,169.682258 124.06738,169.210048 123.638098,169.210048 C122.650748,169.210048 116.640793,170.798393 116.297367,171.098891 C115.911013,171.528173 117.45643,176.035639 119.302345,179.727468 C120.761905,182.689517 122.178537,184.793001 125.312299,188.699471 L126.042079,189.600965 L127.029429,188.613615 C128.9612,186.853557 130.291976,187.883835 128.488989,189.772678 L127.372855,190.93174 L129.21877,192.434229 C133.296953,195.82556 137.503921,198.229542 142.397741,199.946672 C143.943158,200.461811 145.402718,200.934022 145.660288,200.934022 C145.917857,200.97695 146.475925,199.474461 146.862279,197.628547 L146.862279,197.628547 Z M168.498115,199.946672 C172.790939,198.487112 176.869123,196.254843 180.475096,193.37865 L183.608858,190.93174 L182.492723,189.772678 C180.689737,187.883835 182.020512,186.810629 183.909355,188.613615 C184.510351,189.171682 185.068418,189.386323 185.283059,189.128754 C187.4724,186.724772 189.790525,183.333441 191.421798,180.15675 C193.482354,176.078567 195.113628,171.571101 194.641417,171.098891 C194.340919,170.755465 188.030467,169.210048 187.043117,169.210048 C186.313337,169.210048 185.154274,172.644307 185.669413,173.116518 C185.841126,173.245303 187.257758,173.932155 188.889032,174.576078 C190.477377,175.220002 191.765224,175.949782 191.765224,176.164424 C191.765224,177.022989 190.434449,176.937132 187.94461,175.906854 C186.527978,175.305859 185.154274,174.79072 184.939633,174.79072 C184.724992,174.79072 183.909355,175.949782 183.136647,177.409343 C180.646809,182.045593 175.795917,186.638916 169.227895,190.45953 C168.541043,190.888812 168.583971,191.103453 169.614249,193.63622 C170.902097,196.769982 170.987953,197.54269 170.129388,197.54269 C169.785962,197.54269 169.013254,196.254843 168.326402,194.666498 C167.682478,193.035224 167.081483,191.66152 166.995626,191.575664 C166.823913,191.318094 163.003299,192.477157 163.003299,192.777655 C163.003299,193.679148 164.892142,200.97695 165.106783,200.97695 C165.278496,200.97695 166.823913,200.504739 168.498115,199.946672 L168.498115,199.946672 Z M149.738471,185.479853 C150.425323,182.603661 150.940462,180.199679 150.897534,180.15675 C150.811677,180.113822 149.609687,179.555755 148.193054,178.911831 C146.819351,178.267908 145.016364,177.280558 144.200728,176.636634 L142.741167,175.5205 L139.650333,178.611334 C137.976132,180.285535 136.344858,181.659239 136.044361,181.659239 C134.799442,181.659239 135.700935,179.942109 138.319558,177.366414 C139.864975,175.863926 141.109894,174.447294 141.109894,174.275581 C141.109894,174.06094 140.551827,173.159446 139.864975,172.215025 C139.178123,171.270604 138.27663,169.510545 137.847347,168.351483 C137.418065,167.149492 136.859997,166.20507 136.645356,166.20507 C136.087289,166.20507 126.385505,168.394411 126.170864,168.566124 C125.913295,168.823693 126.986501,172.215025 127.329927,172.215025 C127.544568,172.215025 129.089985,171.614029 130.850043,170.927178 C133.812092,169.682258 135.099939,169.553474 135.099939,170.454967 C135.099939,170.669608 133.597451,171.485245 131.794464,172.215025 C129.94855,172.987733 128.317276,173.717514 128.145563,173.889227 C127.630424,174.361437 130.592473,179.126473 133.168168,181.959737 C135.700935,184.750073 141.667961,189.085826 142.698239,188.871184 C143.041665,188.785328 143.90023,187.411624 144.587082,185.737422 C146.046642,182.303163 146.475925,181.702167 147.119848,182.346091 C147.420346,182.646589 147.119848,183.891508 146.08957,186.338418 L144.544153,189.858534 L145.531503,190.20196 C146.690566,190.631243 148.150126,190.974669 148.321839,190.845884 C148.407696,190.802956 149.051619,188.398974 149.738471,185.479853 L149.738471,185.479853 Z M166.094133,189.987319 C166.222918,189.901462 165.707779,188.227261 164.892142,186.29549 C163.947721,184.106149 163.561367,182.646589 163.818936,182.389019 C164.505788,181.702167 164.977999,182.389019 166.437559,185.952064 L167.811263,189.386323 L169.828891,188.270189 C173.048509,186.381346 176.139343,183.977364 178.114042,181.659239 C180.432167,178.95476 183.30836,174.275581 182.879077,173.889227 C182.664436,173.717514 181.076091,172.987733 179.316033,172.300881 C177.42719,171.528173 176.053486,170.755465 175.96763,170.326182 C175.752988,169.338832 176.611553,169.467617 180.174598,170.927178 C181.891728,171.656958 183.437145,172.215025 183.651786,172.215025 C183.995212,172.215025 185.111346,168.780765 184.810848,168.609052 C184.596207,168.437339 174.851495,166.20507 174.336356,166.20507 C174.121715,166.20507 173.563648,167.19242 173.134365,168.394411 C172.705083,169.596402 171.717733,171.399388 170.945025,172.429666 L169.528393,174.275581 L172.490442,177.194701 C175.23785,179.942109 176.182271,181.659239 174.937352,181.659239 C174.636854,181.659239 173.048509,180.285535 171.331379,178.611334 L168.326402,175.606356 L166.094133,177.065917 C164.892142,177.881553 163.046228,178.911831 161.973021,179.298186 C160.856887,179.727468 159.998322,180.242607 159.998322,180.457248 C159.998322,180.800674 161.973021,189.257539 162.359376,190.545386 C162.48816,190.93174 162.960371,190.93174 164.162362,190.588314 C165.063855,190.373673 165.92242,190.073175 166.094133,189.987319 L166.094133,189.987319 Z M158.667546,167.535846 C162.702802,165.432362 163.518438,160.238044 160.29882,156.846713 C157.637269,154.099305 153.902511,153.97052 151.026319,156.589143 C145.059292,161.955174 151.498529,171.141819 158.667546,167.535846 L158.667546,167.535846 Z M137.675634,155.258368 C137.976132,154.185162 138.963481,152.25339 139.822046,151.008471 L141.45332,148.690346 L138.491271,145.771225 C135.786791,143.066746 134.799442,141.306688 136.001432,141.306688 C136.259002,141.306688 137.890275,142.680392 139.607405,144.311665 L142.698239,147.35957 L144.887579,145.857082 C146.08957,145.041445 147.8067,144.139952 148.708193,143.882382 C149.609687,143.581885 150.468251,143.238459 150.639964,143.066746 C150.98339,142.766248 148.751122,132.93568 148.235983,132.420541 C148.107198,132.291756 147.205705,132.377612 146.304212,132.67811 L144.63001,133.150321 L146.08957,136.885078 C147.162777,139.460773 147.463274,140.705692 147.162777,141.00619 C146.475925,141.693042 146.046642,141.092046 144.63001,137.443145 C143.728517,135.210877 143.127521,134.223527 142.655311,134.266455 C139.993759,134.524025 132.180819,141.349616 129.648052,145.642441 C127.458711,149.377198 127.372855,149.162557 130.892971,150.536261 C134.198446,151.78118 135.099939,152.339247 135.099939,152.940242 C135.099939,153.627094 133.511594,153.326597 130.377832,152.038749 C128.660702,151.351897 127.201142,150.750902 127.158214,150.750902 C126.986501,150.750902 126.042079,154.271018 126.170864,154.442731 C126.299649,154.571516 135.743863,156.975498 136.859997,157.14721 C137.03171,157.190139 137.375136,156.331574 137.675634,155.258368 L137.675634,155.258368 Z M179.8741,155.68765 C182.621508,155.043726 184.896705,154.399803 184.896705,154.22809 C184.896705,153.884664 183.995212,151.094328 183.823499,150.836758 C183.780571,150.79383 182.32101,151.308969 180.60388,152.038749 C177.470118,153.326597 175.881773,153.627094 175.881773,152.940242 C175.881773,152.339247 176.783266,151.78118 180.088741,150.536261 C183.608858,149.162557 183.523001,149.377198 181.33366,145.642441 C178.757966,141.306688 170.987953,134.524025 168.36933,134.266455 C167.897119,134.223527 167.210267,135.296733 166.265846,137.657787 C165.450209,139.503701 164.591644,141.134975 164.334075,141.220831 C163.303797,141.564257 163.47551,140.061768 164.892142,136.713365 L166.394631,133.193249 L164.677501,132.67811 C163.647223,132.334684 162.831586,132.291756 162.616945,132.549325 C162.01595,133.150321 159.912466,142.72332 160.29882,143.023817 C160.470533,143.19553 161.372026,143.581885 162.273519,143.882382 C163.175012,144.139952 164.892142,145.041445 166.094133,145.857082 L168.283474,147.35957 L171.374307,144.311665 C173.091437,142.680392 174.722711,141.306688 174.98028,141.306688 C176.182271,141.306688 175.194921,143.066746 172.490442,145.771225 L169.528393,148.690346 L171.159666,151.008471 C172.018231,152.25339 173.005581,154.185162 173.306078,155.258368 C173.606576,156.374502 174.078787,157.14721 174.336356,157.061354 C174.593926,156.975498 177.083764,156.331574 179.8741,155.68765 L179.8741,155.68765 Z M154.117152,153.154884 C154.761076,152.940242 154.846933,152.124606 154.846933,143.925311 L154.846933,134.867451 L153.773726,134.609881 C152.013668,134.180599 150.725821,132.248828 150.382395,129.587276 C150.038969,126.625227 149.352117,124.736385 148.836978,125.251524 C148.622337,125.466165 149.309189,129.24385 150.554108,134.438168 C151.713171,139.28906 152.70052,143.4531 152.70052,143.710669 C152.70052,144.011167 151.670242,144.526306 150.468251,144.955589 C148.235983,145.642441 144.114871,148.003494 144.114871,148.518633 C144.114871,148.690346 145.488575,150.192835 147.162777,151.867036 L150.210682,154.914942 L151.756099,154.142233 C152.657592,153.712951 153.68787,153.283668 154.117152,153.154884 L154.117152,153.154884 Z M166.866842,148.561561 C166.866842,148.003494 162.788658,145.685369 160.556389,144.955589 C159.31147,144.526306 158.281192,143.968239 158.281192,143.624813 C158.281192,143.324315 159.139757,139.460773 160.170035,134.996235 C162.48816,125.208595 162.48816,125.33738 161.887165,125.122739 C161.372026,124.951026 160.427605,128.04186 160.427605,130.016559 C160.427605,131.733689 159.053901,133.751316 157.465556,134.438168 L156.13478,134.953307 L156.13478,143.968239 C156.13478,152.124606 156.220636,152.940242 156.907488,153.154884 C157.293843,153.283668 158.324121,153.712951 159.139757,154.142233 L160.642246,154.914942 L163.776008,151.867036 C165.450209,150.192835 166.866842,148.690346 166.866842,148.561561 L166.866842,148.561561 Z M125.05473,152.038749 C125.355227,151.008471 125.569869,150.106978 125.52694,150.06405 C125.484012,150.021122 124.196165,149.463054 122.650748,148.819131 C119.388201,147.488355 118.873062,147.059073 119.516986,146.415149 C119.817484,146.114651 120.89069,146.329292 123.122959,147.316642 C124.883017,148.046422 126.342577,148.475705 126.385505,148.303992 C127.029429,146.415149 130.334904,141.778898 132.953527,139.117347 C135.743863,136.284083 140.766468,132.721038 142.011387,132.721038 C142.226028,132.721038 142.397741,132.506397 142.397741,132.248828 C142.397741,131.94833 142.140172,131.905402 141.667961,132.120043 C141.238679,132.334684 138.061988,132.549325 134.541872,132.635182 L128.23142,132.763967 L128.875344,133.708388 C129.21877,134.223527 129.519267,134.781594 129.519267,134.953307 C129.519267,135.640159 128.059707,135.296733 127.115286,134.39524 L126.170864,133.536675 L124.32495,135.683087 C120.804833,139.761271 116.597865,147.917638 116.46908,150.922615 C116.426152,152.167534 116.512009,152.210462 120.075053,153.154884 C122.092681,153.670023 123.895667,154.056377 124.110308,154.013449 C124.32495,153.97052 124.754232,153.069027 125.05473,152.038749 L125.05473,152.038749 Z M193.267713,152.51096 C194.340919,152.25339 194.55556,151.995821 194.512632,150.922615 C194.383847,147.917638 190.176879,139.761271 186.656763,135.683087 L184.810848,133.536675 L183.866427,134.39524 C182.922006,135.296733 181.462445,135.640159 181.462445,134.953307 C181.462445,134.781594 181.762943,134.180599 182.149297,133.66546 L182.793221,132.721038 L176.997908,132.721038 C173.821217,132.721038 170.687455,132.506397 170.043532,132.291756 C169.399608,132.034186 168.755684,131.94833 168.6269,132.120043 C168.498115,132.291756 168.583971,132.463469 168.841541,132.592254 C170.945025,133.322034 175.366634,136.498724 178.028186,139.160275 C180.646809,141.778898 183.952284,146.372221 184.553279,148.261064 C184.639135,148.475705 186.141624,148.046422 187.858754,147.316642 C189.833453,146.501005 191.207157,146.157579 191.464727,146.415149 C192.151579,147.102001 191.464727,147.61714 188.330965,148.862059 C186.656763,149.505983 185.325987,150.06405 185.325987,150.106978 C185.325987,150.149906 185.540629,150.836758 185.798198,151.652395 C186.055768,152.468032 186.313337,153.326597 186.399194,153.627094 C186.570907,154.099305 188.459749,153.798807 193.267713,152.51096 L193.267713,152.51096 Z M128.102635,129.50142 L129.047057,127.569649 L126.814788,127.569649 C124.410806,127.569649 122.178537,128.599927 121.405829,130.059487 C120.761905,131.261478 121.148259,131.433191 124.32495,131.433191 L127.158214,131.433191 L128.102635,129.50142 L128.102635,129.50142 Z M139.950831,130.832196 C140.72354,130.48877 142.955808,128.599927 144.930508,126.582299 L148.53648,122.933398 L147.592059,121.645551 C146.948135,120.701129 146.690566,119.71378 146.690566,117.953722 C146.690566,115.635596 146.647638,115.54974 145.531503,115.54974 C144.200728,115.54974 142.311885,116.665874 141.324535,117.953722 C140.251329,119.370354 140.551827,119.842565 142.440669,119.842565 C145.316862,119.842565 144.243656,120.872842 141.066966,121.17334 C138.27663,121.387981 136.259002,122.332403 135.529222,123.749035 C134.799442,125.036882 135.057011,125.423237 136.602428,125.423237 C137.632706,125.423237 138.104917,125.637878 138.104917,126.06716 C138.104917,126.539371 137.589778,126.711084 136.087289,126.711084 C133.382809,126.754012 130.592473,127.998931 129.776837,129.673133 C129.390483,130.359985 129.089985,131.046837 129.089985,131.21855 C129.089985,131.733689 138.620056,131.433191 139.950831,130.832196 L139.950831,130.832196 Z M146.390068,130.96098 C147.935485,130.531698 148.021341,130.445841 147.720844,129.157994 C147.291561,127.011582 147.119848,126.968653 145.35979,128.685783 C142.784095,131.175622 143.127521,131.905402 146.390068,130.96098 L146.390068,130.96098 Z M167.296124,130.875124 C167.296124,130.274128 163.990649,126.882797 163.690151,127.183295 C163.604295,127.269151 163.389654,128.084788 163.217941,128.943353 C162.917443,130.445841 162.960371,130.531698 164.334075,130.96098 C166.394631,131.519047 167.296124,131.519047 167.296124,130.875124 L167.296124,130.875124 Z M181.677086,131.046837 C181.805871,130.789267 181.290732,129.930702 180.560952,129.115066 C179.187248,127.483792 177.169621,126.711084 174.508069,126.711084 C173.349007,126.711084 172.876796,126.539371 172.876796,126.06716 C172.876796,125.637878 173.349007,125.423237 174.379285,125.423237 C176.353984,125.423237 176.311056,124.6076 174.379285,122.89047 C172.748011,121.473838 171.975303,121.216268 169.056182,121.044555 C166.566344,120.872842 166.137061,119.842565 168.541043,119.842565 C169.571321,119.842565 170.301101,119.627923 170.301101,119.370354 C170.301101,119.112784 169.571321,118.125435 168.6269,117.223942 C167.424909,115.979022 166.609272,115.54974 165.621922,115.54974 L164.291147,115.54974 L164.291147,117.953722 C164.291147,119.71378 164.076506,120.658201 163.432582,121.43091 C162.960371,122.031905 162.574017,122.761685 162.574017,123.062183 C162.574017,123.87782 170.08646,130.918052 171.202594,131.132693 C173.220222,131.519047 181.419517,131.433191 181.677086,131.046837 L181.677086,131.046837 Z M189.618812,130.789267 C189.618812,128.943353 186.313337,127.312079 183.351288,127.655505 L182.063441,127.78429 L182.836149,129.630205 L183.651786,131.433191 L186.613835,131.433191 C189.060745,131.433191 189.618812,131.304406 189.618812,130.789267 L189.618812,130.789267 Z M158.710475,126.539371 C158.710475,124.693456 157.766053,123.319752 156.091852,122.761685 C155.018646,122.375331 152.743449,123.577322 152.271238,124.779313 C151.369745,127.140366 151.713171,128.127716 153.68787,129.115066 C155.490856,129.973631 155.490856,129.973631 157.12213,129.157994 C158.58169,128.428214 158.710475,128.170644 158.710475,126.539371 L158.710475,126.539371 Z M123.251743,126.668156 C123.809811,126.367658 124.539591,125.59495 124.840088,124.951026 C125.398156,123.534394 127.544568,121.559694 128.488989,121.559694 C128.789487,121.559694 129.347554,120.915771 129.69098,120.143062 C130.377832,118.468861 132.223747,116.880516 133.812092,116.53709 C134.498944,116.408305 135.228724,115.764381 135.743863,114.777031 C136.988782,112.544763 138.577127,111.557413 141.324535,111.342772 C143.299234,111.171059 143.599732,111.042274 143.213378,110.570063 C142.483598,109.711498 139.178123,109.840283 137.332208,110.784705 C135.357509,111.814982 123.423456,123.834891 122.479035,125.766663 C121.706326,127.312079 121.749255,127.355008 123.251743,126.668156 L123.251743,126.668156 Z M188.502678,125.766663 C187.429471,123.62025 175.538347,111.814982 173.52072,110.827633 C171.460164,109.840283 168.498115,109.711498 167.768335,110.570063 C167.38198,111.042274 167.682478,111.171059 169.571321,111.342772 C172.318729,111.557413 174.422213,112.888189 175.280778,114.905816 C175.667132,115.893166 176.225199,116.365377 177.040836,116.53709 C178.715037,116.880516 180.346311,118.254219 181.204876,120.057206 C181.59123,120.872842 182.192225,121.559694 182.535651,121.559694 C183.437145,121.559694 185.583557,123.534394 186.141624,124.951026 C186.613835,126.024232 187.858754,127.011582 188.889032,127.097438 C189.060745,127.140366 188.889032,126.496443 188.502678,125.766663 L188.502678,125.766663 Z M131.923249,125.852519 C132.738886,125.552021 133.382809,124.908098 133.683307,124.135389 L134.155518,122.847542 L131.365182,122.847542 C128.875344,122.847542 128.488989,122.976326 127.329927,124.092461 C126.643075,124.779313 126.085008,125.552021 126.085008,125.809591 C126.085008,126.410586 130.249047,126.410586 131.923249,125.852519 L131.923249,125.852519 Z M184.896705,126.024232 C184.896705,125.895447 184.682064,125.423237 184.467422,124.951026 C183.737642,123.663178 181.720015,122.847542 179.14432,122.847542 L176.826195,122.847542 L177.298405,124.092461 C177.555975,124.779313 178.15697,125.552021 178.629181,125.809591 C179.573602,126.238873 184.896705,126.453514 184.896705,126.024232 L184.896705,126.024232 Z M157.422627,120.872842 C157.422627,120.615273 156.993345,120.014278 156.435278,119.499139 L155.447928,118.554717 L154.288865,119.756708 C153.644942,120.400632 153.129803,121.044555 153.129803,121.17334 C153.129803,121.259197 154.074224,121.345053 155.276215,121.345053 C156.521134,121.345053 157.422627,121.130412 157.422627,120.872842 L157.422627,120.872842 Z M137.117567,120.400632 C138.01906,119.971349 138.791768,119.627923 138.791768,119.627923 C138.834697,119.627923 139.00641,119.198641 139.135194,118.683502 C139.435692,117.73908 139.349836,117.696152 136.945854,117.696152 C134.241374,117.696152 132.094962,118.683502 131.236397,120.228919 C130.807115,121.087484 130.892971,121.130412 133.12524,121.130412 C134.456016,121.130412 136.216074,120.786986 137.117567,120.400632 L137.117567,120.400632 Z M179.745315,120.872842 C179.745315,120.143062 178.715037,118.898143 177.598903,118.340076 C176.053486,117.524439 171.588949,117.438583 171.588949,118.254219 C171.631877,119.799636 174.035859,121.044555 177.298405,121.087484 C178.629181,121.130412 179.745315,121.001627 179.745315,120.872842 L179.745315,120.872842 Z M153.344444,118.125435 C154.031296,117.438583 154.889861,116.837587 155.276215,116.837587 C155.662569,116.837587 156.521134,117.438583 157.207986,118.125435 C158.238264,119.198641 158.753403,119.413282 160.513461,119.413282 L162.574017,119.413282 L162.574017,113.188686 L162.574017,106.964091 L155.276215,106.964091 L147.978413,106.964091 L147.978413,112.888189 C147.978413,116.150735 148.107198,118.984 148.278911,119.112784 C148.407696,119.284497 149.352117,119.413282 150.339467,119.413282 C151.756099,119.413282 152.357094,119.155713 153.344444,118.125435 L153.344444,118.125435 Z M141.796746,115.335099 C142.655311,114.777031 143.986086,114.176036 144.801723,114.004323 C147.248633,113.575041 145.960786,112.974045 142.569454,112.974045 C139.564477,112.974045 139.221051,113.059902 138.061988,114.218964 C137.375136,114.905816 136.817069,115.678525 136.817069,115.936094 C136.817069,116.837587 140.165472,116.451233 141.796746,115.335099 L141.796746,115.335099 Z M173.864146,116.150735 C174.336356,115.678525 173.349007,114.304821 172.018231,113.617969 C170.644527,112.931117 165.364353,112.716476 164.977999,113.360399 C164.849214,113.575041 165.364353,113.875538 166.137061,114.004323 C166.90977,114.133108 168.197617,114.734103 169.013254,115.335099 C170.429886,116.322448 173.220222,116.794659 173.864146,116.150735 L173.864146,116.150735 Z M146.690566,109.196359 C146.690566,107.307517 146.518853,106.964091 144.758795,105.246961 L142.827024,103.358118 L142.827024,105.676243 C142.827024,107.779727 142.998737,108.166082 144.415369,109.625642 C145.273934,110.527135 146.175427,111.256915 146.34714,111.256915 C146.518853,111.256915 146.690566,110.312494 146.690566,109.196359 L146.690566,109.196359 Z M168.154689,105.590387 C168.154689,104.474252 168.025904,103.529831 167.854191,103.529831 C167.682478,103.529831 166.823913,104.259611 165.92242,105.118176 C164.419931,106.577736 164.291147,106.921162 164.291147,109.067575 L164.291147,111.428628 L166.222918,109.539785 C167.982976,107.822656 168.154689,107.47923 168.154689,105.590387 L168.154689,105.590387 Z M141.024037,104.603037 C140.981109,104.560109 140.423042,104.345468 139.822046,104.173755 L138.74884,103.873257 L139.822046,105.03232 C140.72354,105.976741 140.938181,106.062597 141.024037,105.461602 C141.109894,105.075248 141.109894,104.688894 141.024037,104.603037 L141.024037,104.603037 Z M171.417236,104.04497 C171.030881,103.701544 169.442536,104.903535 169.442536,105.547459 C169.442536,106.105526 169.657178,106.062597 170.515742,105.246961 C171.116738,104.688894 171.503092,104.173755 171.417236,104.04497 L171.417236,104.04497 Z M157.508484,100.86828 C157.637269,97.0476658 157.723125,96.4466703 158.409977,96.3178856 C159.053901,96.1891008 159.139757,96.6183833 159.139757,100.696567 L159.139757,105.246961 L160.771031,105.246961 L162.402304,105.246961 L162.874515,99.5804323 C163.346725,94.0426885 164.162362,90.7372136 165.407281,89.3635097 C166.437559,88.2903035 167.038555,89.4493662 166.265846,90.9947831 C165.19264,93.0982671 165.450209,93.0982671 167.510765,91.0806395 C169.485465,89.1488685 169.871819,87.9039493 168.927397,86.4014607 C168.541043,85.8004653 168.583971,85.414111 169.142039,84.5984744 C170.08646,83.2676987 170.043532,82.4091338 168.970326,81.0354299 C168.36933,80.2627215 167.682478,79.9192955 166.738057,79.9192955 C165.621922,79.9192955 164.677501,80.6490757 160.813959,84.4696896 C156.606991,88.5908013 155.276215,89.4493662 155.276215,87.9468776 C155.276215,87.6463798 156.521134,86.1438912 158.066551,84.6414026 C159.611968,83.138914 160.856887,81.7222819 160.856887,81.5505689 C160.856887,81.3788559 160.384676,81.2071429 159.826609,81.2071429 C158.58169,81.2071429 151.927812,87.9898058 150.597036,90.6084288 C149.309189,93.0982671 148.53648,96.6183833 148.235983,101.297562 L147.935485,105.246961 L152.657592,105.246961 L157.379699,105.246961 L157.508484,100.86828 L157.508484,100.86828 Z M140.165472,101.984414 C139.779118,101.555132 139.263979,101.426347 138.920553,101.640988 C138.534199,101.855629 138.577127,102.027342 139.221051,102.284912 C140.551827,102.800051 140.895253,102.714194 140.165472,101.984414 L140.165472,101.984414 Z M172.147016,102.241984 C172.490442,102.241984 172.447514,102.070271 172.104088,101.726845 C171.717733,101.34049 171.417236,101.383419 170.81624,101.984414 C170.129388,102.757123 170.129388,102.800051 170.859168,102.499553 C171.288451,102.370768 171.889446,102.241984 172.147016,102.241984 L172.147016,102.241984 Z" id="Shape"></path>
                    <path d="M153.549031,127.940721 C153.248533,127.425582 153.634887,126.652874 154.235883,126.652874 C154.751022,126.652874 154.751022,127.811936 154.235883,128.155362 C154.021242,128.284147 153.720744,128.19829 153.549031,127.940721 L153.549031,127.940721 Z" id="Shape"></path>
                    <path d="M155.984663,127.940721 C155.684165,127.425582 156.07052,126.652874 156.671515,126.652874 C157.186654,126.652874 157.186654,127.811936 156.671515,128.155362 C156.456874,128.284147 156.156376,128.19829 155.984663,127.940721 L155.984663,127.940721 Z" id="Shape"></path>
                    <path d="M154.662644,124.62841 C154.662644,124.199127 155.864635,124.070343 156.422702,124.413769 C156.851984,124.671338 156.723199,124.800123 155.864635,124.800123 C155.177783,124.800123 154.662644,124.714266 154.662644,124.62841 L154.662644,124.62841 Z" id="Shape"></path>
                    <path d="M98.9496076,76.6125811 C97.3183342,75.8828009 94.8714242,73.0924649 94.8714242,71.9763305 C94.8714242,71.5041198 93.4118638,68.4562143 91.6518057,65.1936676 L88.4321872,59.2695696 L88.4321872,43.7724727 L88.4321872,28.2753758 L78.1294081,28.2753758 C67.826629,28.2753758 67.7837008,28.2753758 67.4402748,29.2627255 C66.7104946,31.1086401 65.379719,31.8813485 62.4605983,32.0530615 C58.7687691,32.310631 56.7940698,31.5808508 55.9355048,29.7349362 C55.2486529,28.3183041 55.1198682,28.2753758 52.7158864,28.2753758 C50.3977611,28.2753758 50.2260481,28.2324476 50.2260481,27.2450979 C50.2260481,25.7426093 51.771465,24.0684077 53.703236,23.5103405 C55.0340117,23.081058 55.3774376,22.7805603 55.3774376,21.9649236 C55.3774376,21.1922152 55.1627964,20.977574 54.3042315,20.977574 C52.5441734,20.977574 49.8396939,19.3463006 48.5947747,17.5433143 C47.5644968,16.0408256 47.2210709,15.8691127 45.675654,15.8261844 C43.7438829,15.8261844 41.8979683,14.6671218 41.4257576,13.2504896 C41.2111164,12.5207095 40.7818339,12.3919247 38.8071346,12.3919247 C36.1455833,12.3919247 35.6304444,11.8338575 36.4890093,9.85915819 C37.0041482,8.61423905 39.1505606,7.24053517 40.5242644,7.24053517 C40.9964751,7.24053517 41.2111164,6.85418095 41.2111164,6.03854428 C41.2111164,5.39462058 41.5974706,4.1067732 42.0696813,3.16235178 C42.541892,2.21793036 42.9282462,1.44522193 42.9282462,1.35936544 C42.9282462,1.27350894 33.2693908,1.18765245 21.4641231,1.14472421 C7.51244309,1.05886771 0,0.844226483 0,0.586657005 C0,0.286159282 52.0719627,0.114446297 155.18561,0.0285898042 C292.942352,-0.0572666883 310.37122,0.0285898042 310.37122,0.586657005 C310.37122,1.14472421 309.126301,1.2305807 301.699715,1.2305807 L293.071137,1.2305807 L293.97263,2.21793036 C294.874123,3.16235178 294.917052,3.59163424 294.917052,10.9752926 L294.917052,18.7453052 L297.964957,25.2703986 C299.639159,28.8763713 301.270432,32.6111287 301.528002,33.5984784 L302.086069,35.3585365 L302.772921,32.2677027 C303.159275,30.5505729 303.502701,27.4597391 303.502701,25.3133268 C303.502701,22.0507801 303.373916,21.3639282 302.729992,20.8917175 C302.257782,20.5912197 301.656786,19.8614396 301.356289,19.3033724 C300.240154,17.15696 301.957284,11.3616468 304.490051,9.04352151 L305.520328,8.05617185 L306.250109,11.6192163 C307.280387,16.9423188 307.19453,19.5180136 305.863754,20.7200045 C304.833476,21.6644259 304.790548,21.9649236 304.790548,26.3436047 C304.790548,33.1262676 302.987562,38.9645091 299.639159,42.9997643 C297.363962,45.7042438 295.346334,46.5198805 290.838868,46.5198805 C287.447537,46.5198805 286.588972,46.3481675 283.798636,45.1032483 C280.793659,43.7724727 280.450233,43.7295445 274.869561,43.7295445 C268.559108,43.7295445 268.387395,43.7724727 263.87993,46.8203782 C260.531526,49.0955752 258.470971,49.7394989 254.736213,49.7394989 C252.718586,49.7394989 251.559523,49.9112119 251.559523,50.2117096 C251.559523,50.5122074 252.933227,50.6409921 255.766491,50.5122074 L260.016387,50.3834226 L263.536504,48.1082256 C267.099548,45.8759568 268.301539,45.4037461 268.301539,46.434024 C268.301539,47.2067324 262.248656,50.9844181 259.887603,51.7141983 C258.771468,52.0576242 256.367486,52.3151937 254.521572,52.3151937 L251.216097,52.3151937 L250.486317,57.2090138 L249.756537,62.1028339 L248.468689,61.7164796 C244.691004,60.6432735 242.587519,57.0373008 243.746582,53.6459693 C244.175865,52.4869067 244.090008,52.358122 243.274371,52.2293372 C241.771883,52.014696 242.115309,50.8127051 243.746582,50.6839204 C245.291999,50.5122074 245.592497,49.8682837 244.218793,49.6536424 C243.574869,49.567786 242.415806,47.5930866 239.282044,41.025065 C237.092704,36.3888144 235.246789,32.0530615 235.246789,31.452066 C235.246789,28.9622278 237.17856,27.0304567 239.668399,26.9875284 C241.943596,26.9875284 242.673376,27.4597391 246.536918,31.1944966 L249.842393,34.4999715 L254.993783,29.348582 L260.145172,24.1971924 L260.145172,14.1090546 L260.145172,3.97798846 L258.72854,2.60428458 L257.311908,1.2305807 L241.728955,1.2305807 L226.146001,1.2305807 L224.858154,2.30378685 C224.171302,2.9047823 223.055167,3.50577775 222.454172,3.63456249 C220.393616,4.06384495 220.136047,4.23555793 220.30776,4.96533812 C220.436544,5.65219006 221.080468,5.73804655 225.072795,5.86683129 L229.666117,5.99561603 L229.666117,16.0408256 C229.666117,22.2654214 229.83783,26.1718918 230.0954,26.3436047 C230.352969,26.4723895 230.524682,27.9319499 230.524682,29.5632232 C230.524682,31.1944966 230.352969,32.6540569 230.0954,32.7828417 C229.83783,32.9545547 229.666117,37.9771595 229.666117,46.434024 L229.666117,59.8276368 L226.446499,65.8375913 C224.686441,69.100138 223.22688,72.062187 223.22688,72.3197565 C223.22688,73.0924649 220.608257,75.9257291 219.277482,76.6125811 C217.817921,77.3852895 215.757366,77.3852895 214.297805,76.6125811 C213.009958,75.9686574 210.348407,73.0924649 210.348407,72.4056129 C210.348407,72.1480435 208.888846,69.2289227 207.128788,65.8375913 L203.90917,59.7417803 L203.90917,52.5727632 L203.90917,45.4466743 L201.118834,45.4466743 L198.328498,45.4466743 L198.328498,58.110507 L198.328498,70.8172678 L197.29822,71.8475457 C195.32352,73.8222451 192.619041,73.7793168 190.773126,71.7616893 C189.95749,70.8601961 189.742848,70.1733441 189.742848,68.3703578 C189.742848,66.6102997 189.528207,65.8375913 188.884283,65.1936676 C187.811077,64.1204614 187.768149,63.4765377 188.841355,63.4765377 C190.300916,63.4765377 191.030696,64.6785286 191.030696,67.0825104 C191.030696,68.756712 191.288265,69.7011334 191.932189,70.5167701 C193.048323,71.9334022 194.937166,72.0192587 196.182085,70.6884831 C196.997722,69.7869899 197.04065,69.2289227 197.04065,57.6382962 C197.04065,47.2925889 196.954794,45.4896026 196.396727,45.2749613 C195.452305,44.9315354 195.495233,39.2220786 196.396727,38.7069397 C196.954794,38.3635137 197.04065,35.9595319 196.954794,19.9043678 L196.826009,1.44522193 L189.914561,1.31643719 C184.720244,1.2305807 182.874329,1.35936544 182.573831,1.74571965 C182.35919,2.04621738 181.37184,4.19262969 180.384491,6.51075498 L178.581504,10.7177231 L178.581504,24.1113359 L178.581504,37.4620205 L180.169849,39.0932939 L181.758195,40.7245672 L179.65471,42.8709795 C178.495648,44.0729704 177.336585,45.0173919 177.079016,45.0173919 C176.778518,45.0173919 176.134594,44.5451811 175.576527,43.9441857 L174.546249,42.8280513 L169.781214,47.5930866 L165.016179,52.358122 L159.907717,52.2293372 L154.756328,52.1005525 L154.541686,50.1687814 C154.412902,49.0955752 153.940691,47.4643019 153.511409,46.5628087 C153.082126,45.6183873 152.824557,44.4163964 152.953341,43.8583292 C153.125054,42.9997643 152.953341,42.8709795 151.708422,42.8709795 C150.420575,42.8709795 150.248862,42.9997643 150.248862,44.0300422 C150.248862,44.6310376 150.592288,45.5325308 151.02157,46.0047415 C151.622566,46.6915935 151.75135,47.6789431 151.75135,51.67127 C151.75135,56.4792336 151.75135,56.5650901 150.463503,57.8958657 C147.759024,60.72913 143.637912,60.6003452 141.362715,57.595368 C140.24658,56.1358076 140.160724,55.7923817 140.160724,51.67127 C140.160724,48.2799386 140.332437,47.0779477 140.933432,46.1764545 C141.319787,45.5754591 141.663213,44.5451811 141.663213,43.9871139 C141.663213,42.956836 141.577356,42.9139078 138.357738,42.785123 L135.052263,42.6563383 L132.261927,34.7146128 L129.428662,26.7728872 L129.214021,14.1090546 L128.99938,1.44522193 L121.186439,1.31643719 L113.33057,1.2305807 L113.33057,19.8614396 C113.33057,31.8384203 113.502283,38.6210832 113.759853,38.7927961 C114.017422,38.9215809 114.189135,40.509926 114.189135,42.2699841 C114.189135,44.1158987 114.017422,45.4466743 113.759853,45.4466743 C113.502283,45.4466743 113.33057,49.8682837 113.33057,57.8100092 C113.33057,69.271851 113.373498,70.2592006 114.103278,70.9031243 C115.176485,71.890474 117.022399,71.8046175 118.052677,70.7743396 C118.696601,70.1304159 118.911242,69.3577075 118.911242,67.6405776 C118.911242,64.9790263 119.769807,63.4765377 121.315224,63.4765377 C122.560143,63.4765377 122.688928,64.1204614 121.529865,64.7214569 C120.885941,65.0648828 120.6713,65.794663 120.542515,67.9840036 C120.327874,71.4182633 119.21174,72.8348954 116.421404,73.2212496 C114.833059,73.4358909 114.489633,73.3071061 113.115929,71.9334022 L111.61344,70.4309136 L111.61344,57.938794 L111.61344,45.4466743 L109.037745,45.4466743 L106.462051,45.4466743 L106.462051,50.8127051 L106.462051,56.2216641 L104.53028,58.2822199 L102.55558,60.385704 L104.100997,61.2442689 C106.504979,62.7038293 107.320616,64.4638874 107.320616,68.2415731 C107.320616,70.0874877 107.535257,71.6758328 107.792826,71.9334022 C108.17918,72.3197565 107.878683,72.8778237 106.633764,74.2085993 C103.843428,77.1706483 101.739944,77.8575002 98.9496076,76.6125811 L98.9496076,76.6125811 Z M104.186854,74.4232405 L105.388844,73.3929626 L101.310661,73.3929626 L97.2324777,73.3929626 L98.4344686,74.4232405 C99.2930335,75.195949 100.151598,75.4964467 101.310661,75.4964467 C102.469724,75.4964467 103.328289,75.195949 104.186854,74.4232405 L104.186854,74.4232405 Z M219.663836,74.4232405 L220.865827,73.3929626 L216.787643,73.3929626 L212.70946,73.3929626 L213.911451,74.4232405 C214.770016,75.195949 215.628581,75.4964467 216.787643,75.4964467 C217.946706,75.4964467 218.805271,75.195949 219.663836,74.4232405 L219.663836,74.4232405 Z M98.6491098,68.1127883 C97.5759037,66.138089 95.3007066,61.8881926 93.5406485,58.6256459 L90.3639583,52.6586197 L90.2351736,55.8353099 L90.1063888,58.9690719 L93.454792,65.2795241 L96.8031952,71.6329045 L98.6491098,71.6329045 L100.537953,71.6329045 L98.6491098,68.1127883 L98.6491098,68.1127883 Z M105.302988,71.3324068 C104.744921,71.2465503 103.800499,71.2465503 103.156576,71.3324068 C102.469724,71.4182633 102.941934,71.5041198 104.100997,71.5041198 C105.302988,71.5041198 105.818127,71.4182633 105.302988,71.3324068 L105.302988,71.3324068 Z M219.062841,71.3324068 C217.817921,71.2465503 215.757366,71.2465503 214.555375,71.3324068 C213.310456,71.4182633 214.297805,71.4611915 216.787643,71.4611915 C219.277482,71.4611915 220.264831,71.4182633 219.062841,71.3324068 L219.062841,71.3324068 Z M102.727293,68.6279273 C102.856078,68.1557166 103.156576,67.7693624 103.457073,67.7693624 C103.757571,67.7693624 104.058069,68.1557166 104.186854,68.6279273 C104.315638,69.100138 104.787849,69.4864922 105.26006,69.4864922 C105.946912,69.4864922 106.075696,69.2289227 105.946912,67.8981471 C105.818127,66.3527302 105.775199,66.309802 103.886356,66.2239455 C101.611159,66.0951608 100.881379,66.5673715 100.881379,68.2415731 C100.881379,69.1859945 101.09602,69.4864922 101.697015,69.4864922 C102.126298,69.4864922 102.598508,69.100138 102.727293,68.6279273 L102.727293,68.6279273 Z M214.040236,69.100138 C213.911451,68.8854968 214.083164,68.4991425 214.469518,68.1557166 C215.027585,67.7264341 215.15637,67.7693624 215.371011,68.5420708 C215.542724,69.2289227 215.929079,69.4864922 216.830572,69.4864922 C217.689137,69.4864922 217.989634,69.3147792 217.817921,68.8854968 C217.689137,68.584999 217.903778,68.1986448 218.290132,68.0269318 C218.805271,67.8552188 219.105769,68.0269318 219.234553,68.6279273 C219.363338,69.100138 219.835549,69.4864922 220.264831,69.4864922 C220.865827,69.4864922 221.080468,69.1859945 221.080468,68.2415731 C221.080468,66.5244432 220.565329,66.2668737 216.787643,66.2239455 C213.138743,66.1810172 212.494819,66.481515 212.494819,68.2415731 C212.494819,69.2289227 212.70946,69.4864922 213.396312,69.4864922 C213.868523,69.4864922 214.16902,69.3147792 214.040236,69.100138 L214.040236,69.100138 Z M211.807967,63.3048247 C212.194321,62.7038293 212.494819,61.7164796 212.494819,61.1154842 C212.494819,60.042278 212.451891,60.042278 209.2752,60.042278 C207.515142,60.042278 206.055582,60.1281345 206.055582,60.2569193 C206.055582,60.385704 207.08586,62.4033316 208.330779,64.7214569 L210.563048,68.9713532 L210.820617,66.653228 C210.99233,65.4083088 211.421613,63.8628919 211.807967,63.3048247 L211.807967,63.3048247 Z M225.330364,64.5497439 C226.532355,62.2745468 227.519705,60.3427758 227.519705,60.2569193 C227.519705,60.1281345 226.060145,60.042278 224.300087,60.042278 C221.252181,60.042278 221.080468,60.0852063 221.080468,61.0296277 C221.080468,61.5447667 221.466822,62.7467575 221.939033,63.691179 C222.411244,64.6356004 222.797598,66.0951608 222.797598,66.9966539 C222.797598,67.8981471 222.883454,68.6279273 222.969311,68.6279273 C223.055167,68.6279273 224.128374,66.7820127 225.330364,64.5497439 L225.330364,64.5497439 Z M104.659064,63.8199637 C104.53028,63.519466 104.186854,63.2618965 103.886356,63.2618965 C103.585858,63.2618965 103.242432,63.519466 103.156576,63.8199637 C103.027791,64.1204614 103.328289,64.3351027 103.886356,64.3351027 C104.444423,64.3351027 104.744921,64.1204614 104.659064,63.8199637 L104.659064,63.8199637 Z M218.418917,63.8199637 C218.290132,63.519466 217.560352,63.2618965 216.787643,63.2618965 C216.014935,63.2618965 215.285155,63.519466 215.199298,63.8199637 C215.070514,64.1633897 215.542724,64.3351027 216.787643,64.3351027 C218.032563,64.3351027 218.504773,64.1633897 218.418917,63.8199637 L218.418917,63.8199637 Z M99.722316,52.8732609 L102.08337,45.4466743 L99.37889,45.4466743 C97.4471189,45.4466743 96.6314823,45.2749613 96.4597693,44.8456789 C96.0734151,43.8583292 96.5456258,43.7295445 100.752594,43.7295445 L104.744921,43.7295445 L104.744921,25.4850398 L104.744921,7.24053517 L97.4471189,7.24053517 C89.5483216,7.24053517 88.8614697,7.4551764 91.6088775,9.25816274 C93.969931,10.7606514 95.0860654,13.6368439 95.0431372,18.015525 C95.0431372,21.1922152 94.9143524,21.9219954 93.8840745,23.6391252 C93.2401508,24.7552596 92.1240164,26.043107 91.4371645,26.558246 L90.1493171,27.4597391 L90.1493171,38.1918007 L90.1493171,48.9238623 L93.4977203,55.1055297 C95.3007066,58.4968612 96.93198,61.0296277 97.0607647,60.7720582 C97.2324777,60.4715605 98.4344686,56.9085161 99.722316,52.8732609 L99.722316,52.8732609 Z M218.161347,60.72913 C219.062841,60.900843 219.792621,60.8579147 219.792621,60.6432735 C219.792621,60.4715605 219.062841,59.5700673 218.204276,58.6685742 L216.61593,57.0373008 L215.199298,58.4110047 C214.42659,59.1837131 213.782666,60.1281345 213.782666,60.5144887 C213.782666,61.1584124 213.997307,61.2013407 215.15637,60.8579147 C215.88615,60.6432735 217.259854,60.6003452 218.161347,60.72913 L218.161347,60.72913 Z M100.623809,60.6432735 C101.010163,60.5144887 101.310661,60.042278 101.310661,59.6559238 C101.310661,59.2695696 102.08337,58.1534352 103.027791,57.251942 L104.744921,55.5777404 L104.744921,50.5122074 C104.744921,46.7345217 104.616136,45.4466743 104.229782,45.4466743 C103.714643,45.4466743 103.027791,47.3355171 99.7652442,57.8100092 C98.7778946,60.9866995 98.8637511,61.3301254 100.623809,60.6432735 L100.623809,60.6432735 Z M248.554546,59.7417803 C248.597474,58.6256459 250.65803,46.6915935 250.915599,46.3481675 C251.38781,45.5325308 251.988805,45.8330285 251.988805,46.9491629 C251.988805,47.9794408 252.074662,48.0223691 255.208424,48.0223691 C258.685612,48.0223691 260.1881,47.4643019 263.922858,44.9315354 C267.657615,42.3558406 268.902534,42.0124146 274.955417,42.0124146 C280.02095,42.0124146 280.793659,42.1411994 283.111784,43.128549 C284.528416,43.7724727 286.846541,44.5022529 288.263173,44.8456789 C292.899424,45.918885 297.106392,44.3734682 299.12402,40.9392085 C299.939656,39.4796481 300.068441,38.7498679 299.939656,36.0024601 C299.810872,33.0404112 299.553302,32.2247745 296.505397,25.7855375 L293.199922,18.7882334 L293.199922,11.4045751 L293.199922,4.06384495 L292.040859,2.86185406 C291.396935,2.21793036 290.53837,1.65986316 290.109088,1.65986316 C289.379308,1.65986316 289.379308,1.74571965 290.023232,2.73306932 C290.581299,3.548706 290.667155,4.62191215 290.53837,8.18495659 L290.366657,12.6065659 L287.36168,18.6165204 C283.326425,26.7728872 283.669851,26.558246 274.268565,26.558246 C266.627337,26.558246 261.948158,27.2021697 258.771468,28.6188018 C257.698262,29.0910125 255.337209,31.0657118 253.276653,33.1691959 L249.67068,36.8610251 L247.180842,34.414115 L244.691004,31.967205 L242.115309,34.4999715 C240.698677,35.9166037 239.539614,37.2473793 239.539614,37.4620205 C239.539614,37.6766617 240.61282,40.1665 241.986524,42.956836 C244.562219,48.4087233 245.420784,49.0955752 246.408133,46.7345217 C246.966201,45.4037461 248.125263,44.9744636 248.125263,46.0476698 C248.125263,46.3910957 247.438411,48.4087233 246.622775,50.5551356 C244.733932,55.4060274 244.691004,57.080229 246.365205,58.7973589 C247.567196,59.9993498 248.554546,60.385704 248.554546,59.7417803 L248.554546,59.7417803 Z M148.703445,57.423655 C149.30444,56.9514443 149.819579,56.3504489 149.819579,56.1358076 C149.819579,55.9211664 148.188306,55.7494534 146.170678,55.7494534 C143.251558,55.7494534 142.521777,55.8782381 142.521777,56.3933771 C142.521777,57.2090138 144.582333,58.2822199 146.213607,58.3251482 C146.943387,58.3251482 148.059521,57.938794 148.703445,57.423655 L148.703445,57.423655 Z M212.924101,48.4087233 L212.924101,38.5352267 L210.906474,38.6640114 L208.845918,38.7927961 L207.257573,47.5930866 C206.399008,52.4439785 205.669228,56.8226596 205.669228,57.3807268 C205.626299,58.2822199 205.755084,58.3251482 209.2752,58.3251482 L212.924101,58.3251482 L212.924101,48.4087233 L212.924101,48.4087233 Z M227.948987,57.595368 C227.906059,57.1660855 227.176279,52.7874044 226.317714,47.8077279 L224.686441,38.7927961 L222.454172,38.6640114 L220.221903,38.5352267 L220.221903,48.4087233 L220.221903,58.3251482 L224.085445,58.3251482 C227.476777,58.3251482 227.948987,58.2392917 227.948987,57.595368 L227.948987,57.595368 Z M216.787643,55.3201709 C217.088141,55.3201709 217.732065,55.6206687 218.161347,56.0499511 C218.891128,56.7368031 218.934056,56.4363053 218.934056,47.6789431 L218.934056,38.5781549 L216.787643,38.5781549 L214.641231,38.5781549 L214.641231,47.6789431 C214.641231,56.4363053 214.684159,56.7368031 215.41394,56.0499511 C215.843222,55.6206687 216.487146,55.3201709 216.787643,55.3201709 L216.787643,55.3201709 Z M148.445875,52.7444762 C150.849857,51.6283418 150.892785,51.5854135 150.29179,50.0399967 C149.905436,49.0097188 149.733723,48.9667905 146.299463,49.052647 C142.307136,49.0955752 141.663213,49.3531447 141.663213,50.8127051 C141.663213,51.5854135 142.006639,51.9288395 143.122773,52.3151937 C143.93841,52.5727632 144.839903,53.0879021 145.140401,53.4313281 C145.39797,53.7747541 145.784324,53.9893953 145.913109,53.9035388 C146.041894,53.8176823 147.200956,53.3025434 148.445875,52.7444762 L148.445875,52.7444762 Z M170.983205,44.2446834 L177.293657,37.9342312 L177.2078,19.6897266 L177.079016,1.44522193 L171.927626,1.44522193 L166.776237,1.44522193 L166.647452,21.4068564 L166.561595,41.3684909 L161.968273,45.9618133 L157.332022,50.5980639 L160.980923,50.5980639 L164.629824,50.5980639 L170.983205,44.2446834 L170.983205,44.2446834 Z M206.441936,43.7295445 C207.171716,39.3937916 207.300501,36.8610251 207.343429,22.9952015 L207.386358,7.19760692 L206.399008,7.32639166 L205.411658,7.4551764 L205.282873,28.2324476 C205.239945,39.6942893 205.282873,48.9667905 205.36873,48.8380058 C205.454586,48.7521493 205.926797,46.434024 206.441936,43.7295445 L206.441936,43.7295445 Z M228.37827,40.7245672 L228.37827,32.5682004 L227.262136,32.5682004 L226.188929,32.5682004 L226.403571,36.7751686 C226.575284,40.5528542 227.820203,48.880934 228.206557,48.880934 C228.292413,48.880934 228.37827,45.2320331 228.37827,40.7245672 L228.37827,40.7245672 Z M147.458526,46.3052392 C147.329741,46.090598 146.642889,45.8759568 145.956037,45.8759568 C145.269185,45.8759568 144.582333,46.090598 144.453549,46.3052392 C144.281836,46.5628087 144.882831,46.7345217 145.956037,46.7345217 C147.029243,46.7345217 147.630239,46.5628087 147.458526,46.3052392 L147.458526,46.3052392 Z M165.273748,39.6084328 C165.273748,38.7069397 163.084407,37.2903075 161.753632,37.2903075 C160.680426,37.2903075 160.551641,37.4190923 160.80921,38.3635137 C161.109708,39.5655046 160.508713,39.7801458 159.693076,38.7498679 C159.177937,38.1918007 158.877439,38.3635137 157.031525,40.1665 C155.91539,41.2826344 154.970969,42.3558406 154.970969,42.5275536 C154.970969,42.6992666 155.700749,42.8709795 156.602242,42.9139078 C157.460807,42.9139078 158.877439,43.1714773 159.693076,43.5149032 C161.195565,44.0729704 161.238493,44.0300422 163.25612,42.0982711 C164.372255,40.9821367 165.273748,39.8660023 165.273748,39.6084328 L165.273748,39.6084328 Z M108.608463,39.0074374 L108.608463,34.2853303 L107.535257,34.2853303 L106.462051,34.2853303 L106.462051,39.0074374 L106.462051,43.7295445 L107.535257,43.7295445 L108.608463,43.7295445 L108.608463,39.0074374 L108.608463,39.0074374 Z M112.901288,42.0124146 C112.901288,40.3811413 112.815431,40.2952848 111.61344,40.2952848 C110.411449,40.2952848 110.325593,40.3811413 110.325593,42.0124146 C110.325593,43.643688 110.411449,43.7295445 111.61344,43.7295445 C112.815431,43.7295445 112.901288,43.643688 112.901288,42.0124146 L112.901288,42.0124146 Z M148.961014,43.128549 C148.961014,42.8709795 148.360019,42.0553429 147.587311,41.2826344 L146.213607,39.8660023 L144.582333,41.4543474 C143.68084,42.3129123 142.95106,43.1714773 142.95106,43.300262 C142.95106,43.4290467 144.324764,43.5578315 145.956037,43.5578315 C147.673167,43.5578315 148.961014,43.3861185 148.961014,43.128549 L148.961014,43.128549 Z M200.045627,42.9139078 C200.045627,41.9694864 198.714852,42.0982711 197.856287,43.128549 C197.469933,43.6007597 197.598717,43.7295445 198.714852,43.7295445 C199.74513,43.7295445 200.045627,43.5578315 200.045627,42.9139078 L200.045627,42.9139078 Z M203.823313,39.1362221 C203.694528,34.4999715 203.694528,34.4999715 202.621322,34.4999715 C201.548116,34.4999715 201.548116,34.4999715 201.419331,39.1362221 L201.290547,43.7295445 L202.621322,43.7295445 L203.952098,43.7295445 L203.823313,39.1362221 L203.823313,39.1362221 Z M178.710289,40.2094283 C178.023437,39.4367198 177.980509,39.4796481 176.778518,40.5957825 C175.662384,41.6689886 175.619455,41.7977734 176.306307,42.5275536 C176.993159,43.300262 177.036087,43.2573338 178.238078,42.1411994 C179.354213,41.0679932 179.397141,40.9392085 178.710289,40.2094283 L178.710289,40.2094283 Z M143.68084,39.7801458 C144.839903,38.5781549 145.054544,37.9771595 145.183329,36.0024601 C145.269185,34.242402 145.483826,33.6414066 145.956037,33.6414066 C146.428248,33.6414066 146.642889,34.242402 146.728746,36.0453884 C146.85753,38.1059442 147.029243,38.6210832 148.274162,39.8230741 C149.56201,41.0679932 149.905436,41.1967779 152.00892,41.0679932 L154.327045,40.9392085 L154.45583,35.5302494 L154.584615,30.1212904 L152.524059,30.2930034 C149.991292,30.5076446 147.973665,29.3915102 146.943387,27.2021697 L146.213607,25.699681 L138.615307,25.699681 L131.017007,25.699681 L133.592702,33.4267654 L136.168397,41.1538497 L139.259231,41.1538497 C142.178352,41.1538497 142.435921,41.0679932 143.68084,39.7801458 L143.68084,39.7801458 Z M199.48756,40.4669978 C199.358775,40.338213 198.972421,40.2952848 198.671924,40.4240695 C198.328498,40.5528542 198.457282,40.681639 198.929493,40.681639 C199.401704,40.7245672 199.659273,40.5957825 199.48756,40.4669978 L199.48756,40.4669978 Z M111.61344,19.9043678 C111.61344,6.55368323 111.484655,1.2305807 111.141229,1.2305807 C110.88366,1.2305807 110.110952,1.70279141 109.381171,2.30378685 C108.694319,2.9047823 107.578185,3.50577775 106.97719,3.63456249 C104.959562,4.06384495 104.744921,4.19262969 104.744921,4.92240987 C104.744921,5.30876409 105.131275,5.69511831 105.603486,5.82390305 C106.419122,6.03854428 106.462051,6.42489849 106.462051,19.5180136 L106.462051,32.9974829 L108.393822,32.9974829 L110.325593,32.9974829 L110.325593,35.7878189 C110.325593,37.9771595 110.454378,38.5781549 110.969517,38.5781549 C111.527584,38.5781549 111.61344,36.2171014 111.61344,19.9043678 L111.61344,19.9043678 Z M157.374951,37.6766617 C158.534013,36.3458861 160.852139,35.4873212 162.311699,35.7878189 C163.084407,35.9595319 163.556618,35.9166037 163.556618,35.6161059 C163.556618,34.585828 160.465784,29.0910125 159.778932,28.833443 C159.392578,28.7046583 158.662798,28.2324476 158.147659,27.7602369 C157.246166,26.9446002 157.246166,26.9875284 156.516386,28.0178063 C156.001247,28.8763713 155.829534,30.1642187 155.829534,33.8560478 C155.829534,36.4317426 156.001247,38.5781549 156.17296,38.5781549 C156.387601,38.5781549 156.90274,38.1488725 157.374951,37.6766617 L157.374951,37.6766617 Z M200.045627,35.8307472 L200.045627,33.0404112 L201.891542,32.9116264 L203.694528,32.7828417 L203.823313,19.3892289 L203.90917,5.95268778 L208.416635,5.95268778 L212.924101,5.95268778 L212.924101,4.87948163 C212.924101,4.06384495 212.70946,3.80627547 212.022608,3.80627547 C210.99233,3.80627547 209.618626,3.11942353 208.373707,2.00328913 C207.600999,1.31643719 206.914147,1.2305807 203.007676,1.31643719 L198.543139,1.44522193 L198.414354,20.0331525 C198.328498,38.3635137 198.328498,38.5781549 199.187063,38.5781549 C199.959771,38.5781549 200.045627,38.2776572 200.045627,35.8307472 L200.045627,35.8307472 Z M212.924101,22.0507801 L212.924101,7.24053517 L210.99233,7.24053517 L209.060559,7.24053517 L209.060559,22.0507801 L209.060559,36.8610251 L210.99233,36.8610251 L212.924101,36.8610251 L212.924101,22.0507801 L212.924101,22.0507801 Z M218.934056,22.0507801 L218.934056,7.24053517 L216.787643,7.24053517 L214.641231,7.24053517 L214.641231,22.0507801 L214.641231,36.8610251 L216.787643,36.8610251 L218.934056,36.8610251 L218.934056,22.0507801 L218.934056,22.0507801 Z M222.024889,31.4091378 C222.110746,27.5455956 222.325387,25.9143223 222.711741,25.7855375 C223.098096,25.6567528 223.22688,26.9446002 223.22688,31.2374248 C223.22688,35.9595319 223.312737,36.8610251 223.870804,36.8610251 C224.428871,36.8610251 224.514728,34.929254 224.514728,22.0078519 L224.514728,7.19760692 L222.4971,7.32639166 L220.436544,7.4551764 L220.30776,22.1795649 C220.221903,36.5605273 220.221903,36.8610251 221.080468,36.8610251 C221.853177,36.8610251 221.939033,36.5175991 222.024889,31.4091378 L222.024889,31.4091378 Z M241.256744,33.2121241 C243.574869,30.8939988 243.574869,30.8939988 242.716304,29.9495774 C241.728955,28.8763713 240.398179,28.1036628 240.097681,28.4470888 C239.925968,28.5758735 240.183538,29.0910125 240.61282,29.6061515 C241.299672,30.3359316 241.3426,30.5505729 240.827461,30.8510706 C240.398179,31.1086401 239.840112,30.9369271 239.067403,30.1642187 C237.865412,29.0480843 236.835134,29.4344385 237.822484,30.6364294 C238.208838,31.0657118 238.122982,31.3232813 237.564915,31.623779 C236.835134,32.0530615 236.835134,32.138918 237.607843,33.8131196 C238.037125,34.8004693 238.509336,35.5731777 238.638121,35.5731777 C238.809834,35.5731777 239.968896,34.4999715 241.256744,33.2121241 L241.256744,33.2121241 Z M165.102035,29.7349362 C164.844466,29.0480843 162.698053,28.9192995 162.698053,29.5632232 C162.698053,29.7778644 163.213192,31.0657118 163.900044,32.3964875 L165.059107,34.8004693 L165.187891,32.5682004 C165.273748,31.3232813 165.23082,30.0354339 165.102035,29.7349362 L165.102035,29.7349362 Z M229.022194,29.5632232 C229.022194,28.1895193 228.893409,28.0607346 227.64849,27.9319499 C226.274786,27.8031651 226.231858,27.8031651 226.231858,29.5632232 C226.231858,31.3232813 226.274786,31.3232813 227.64849,31.1944966 C228.893409,31.0657118 229.022194,30.9369271 229.022194,29.5632232 L229.022194,29.5632232 Z M65.1650778,29.9066492 C66.4958534,28.5758735 65.7660732,28.2753758 61.3873921,28.2753758 C59.0263386,28.2753758 57.0945675,28.4041606 57.0945675,28.5758735 C57.0945675,28.7046583 57.3950652,29.2197972 57.8243477,29.6490797 C58.3824149,30.2500751 59.1551233,30.4217881 61.6020333,30.4217881 C63.4050197,30.4217881 64.8645801,30.2071469 65.1650778,29.9066492 L65.1650778,29.9066492 Z M153.210911,28.66173 C153.983619,28.4041606 154.842184,27.6314521 155.228538,26.9446002 L155.872462,25.699681 L151.965992,25.699681 C149.862508,25.699681 148.102449,25.8284658 148.102449,25.9572505 C148.102449,27.0733849 149.433225,28.1895193 151.794279,29.1339407 C151.837207,29.1339407 152.438202,28.9192995 153.210911,28.66173 L153.210911,28.66173 Z M165.273748,22.909345 L165.273748,17.9725967 L163.985901,17.9725967 L162.698053,17.9725967 L162.698053,22.909345 L162.698053,27.8460934 L163.985901,27.8460934 L165.273748,27.8460934 L165.273748,22.909345 L165.273748,22.909345 Z M160.980923,26.558246 C160.980923,25.9143223 160.680426,25.699681 159.907717,25.699681 C158.662798,25.699681 158.491085,26.3436047 159.607219,26.9446002 C160.680426,27.5885239 160.980923,27.5026674 160.980923,26.558246 L160.980923,26.558246 Z M55.3774376,25.871394 C55.3774376,24.8411161 55.2486529,24.7981879 54.218375,25.0557574 C51.5568237,25.699681 51.2133978,26.9875284 53.6603078,26.9875284 C55.2057247,26.9875284 55.3774376,26.9016719 55.3774376,25.871394 L55.3774376,25.871394 Z M66.0665709,23.596197 C65.894858,20.7200045 65.723145,20.0331525 64.8645801,19.0887311 C63.6196609,17.7579555 62.245957,17.6291708 62.245957,18.7882334 C62.245957,19.2175159 62.5464548,19.6897266 62.8898807,19.8614396 C64.1777281,20.3336503 63.4908762,20.977574 61.6020333,20.977574 C60.2283295,20.977574 59.6702623,20.805861 59.6702623,20.3765785 C59.6702623,20.0331525 59.97076,19.6897266 60.314186,19.5180136 C60.6576119,19.3892289 60.9581096,19.0028746 60.9581096,18.6165204 C60.9581096,17.500386 59.3697645,17.8867402 58.2107019,19.3033724 C57.2233522,20.462435 57.0945675,20.977574 57.0945675,23.8108382 L57.0945675,26.9875284 L61.6449616,26.9875284 L66.1953557,26.9875284 L66.0665709,23.596197 L66.0665709,23.596197 Z M70.8316063,26.6011742 C70.8316063,26.0860353 69.1144764,24.8411161 68.3846962,24.8411161 C67.6549161,24.8411161 67.6549161,26.4294612 68.3846962,26.6870307 C69.2861894,27.0733849 70.8316063,26.9875284 70.8316063,26.6011742 L70.8316063,26.6011742 Z M88.6468285,26.1718918 C90.664456,25.2274703 92.4674424,23.424484 93.1113661,21.7073542 C93.7552898,19.9902243 93.7123615,15.225189 92.9825813,13.5509874 C92.2528011,11.7050728 89.7200346,9.55866047 87.702407,9.00059327 C85.598923,8.39959782 70.2306108,8.39959782 68.170055,8.95766502 C65.5085037,9.73037345 63.4050197,11.8767858 62.5035265,14.8388348 C62.245957,15.6544714 62.41767,15.9120409 63.6196609,16.3842516 C65.5943602,17.1998883 67.2685618,19.3033724 67.6119878,21.4068564 C67.7837008,22.3512778 68.0841985,23.1239863 68.341768,23.1239863 C69.4579024,23.1239863 71.7760277,24.6694031 72.3770231,25.7426093 L73.0209468,26.9875284 L79.9753227,26.9875284 C85.8135642,26.9875284 87.1872681,26.8587437 88.6468285,26.1718918 L88.6468285,26.1718918 Z M228.292413,17.0281753 C228.163629,7.4551764 228.163629,7.4551764 227.219207,7.32639166 L226.231858,7.19760692 L226.231858,16.8564623 L226.231858,26.558246 L227.305064,26.558246 L228.37827,26.558246 L228.292413,17.0281753 L228.292413,17.0281753 Z M271.735799,25.3133268 C277.917466,25.1416138 281.265869,24.8840444 281.909793,24.4976902 C282.940071,23.939623 283.970349,22.3512778 283.583995,21.9649236 C282.553717,20.9346457 268.430324,21.1492869 265.639988,22.2224931 L264.437997,22.6947038 L264.437997,13.3363461 L264.437997,3.97798846 L263.236006,2.81892581 C262.592082,2.17500212 261.561804,1.65986316 261.003737,1.65986316 C260.059316,1.65986316 260.059316,1.70279141 260.703239,2.43257159 C261.347163,3.11942353 261.43302,4.5789839 261.43302,14.1519828 C261.43302,22.3083496 261.304235,25.2274703 260.917881,25.6567528 C260.44567,26.1289635 260.531526,26.1718918 261.43302,25.9143223 C262.034015,25.7426093 266.670266,25.4850398 271.735799,25.3133268 L271.735799,25.3133268 Z M137.370388,12.8212072 L137.370388,1.18765245 L134.064913,1.31643719 L130.71651,1.44522193 L130.587725,12.3919247 C130.544797,18.4018792 130.587725,23.5532687 130.71651,23.8537665 C130.845295,24.2401207 131.918501,24.4118337 134.150769,24.4118337 L137.370388,24.4118337 L137.370388,12.8212072 L137.370388,12.8212072 Z M142.95106,23.8537665 C142.95106,22.8664168 141.706141,21.4927129 140.375365,21.0634305 L139.087518,20.5912197 L139.087518,22.5229908 L139.087518,24.4118337 L141.019289,24.4118337 C142.307136,24.4118337 142.95106,24.2401207 142.95106,23.8537665 L142.95106,23.8537665 Z M160.980923,22.5659191 C160.980923,20.805861 160.80921,20.5482915 156.473458,16.2554669 L151.965992,11.748001 L147.544382,16.1696104 L143.122773,20.5912197 L143.981338,22.4800626 L144.882831,24.4118337 L152.953341,24.4118337 L160.980923,24.4118337 L160.980923,22.5659191 L160.980923,22.5659191 Z M275.3847,19.9043678 C278.947744,19.9043678 282.46786,20.0331525 283.240569,20.2048655 L284.657201,20.5482915 L286.760685,16.1266821 C288.821241,11.8767858 288.907097,11.6192163 288.907097,7.88445886 C288.907097,4.14970144 288.864169,4.0209167 287.533393,2.64721282 L286.159689,1.2305807 L275.298843,1.2305807 C269.331817,1.2305807 264.437997,1.40229368 264.437997,1.61693491 C264.437997,1.83157615 264.738494,2.21793036 265.08192,2.51842809 C265.597059,2.94771055 265.725844,4.53605566 265.725844,11.5333598 C265.725844,16.1696104 265.854629,20.0760808 265.983414,20.2477938 C266.155127,20.3765785 266.841979,20.3765785 267.614687,20.2048655 C268.344467,20.0331525 271.864583,19.9043678 275.3847,19.9043678 L275.3847,19.9043678 Z M56.493572,18.6165204 C56.836998,18.0584532 58.0389889,17.15696 59.0692668,16.6847493 C60.3571142,16.0408256 60.9581096,15.4827584 60.9581096,14.9246912 C60.9581096,12.2202117 63.7484457,8.95766502 67.0109924,7.79860237 L69.1144764,7.02589394 L69.1144764,4.32141443 L69.1144764,1.61693491 L61.0439661,1.74571965 L52.9305276,1.87450439 L51.3421825,3.11942353 C48.9382007,4.92240987 47.950851,7.4551764 48.1654923,11.3187186 C48.3372053,15.1393325 49.6250526,17.3716013 52.4583169,18.7882334 C54.8193704,19.9472961 55.6350071,19.9472961 56.493572,18.6165204 L56.493572,18.6165204 Z M146.38532,15.1822607 L150.892785,10.6747949 L146.170678,5.95268778 C142.435921,2.21793036 141.23393,1.2305807 140.289509,1.2305807 L139.087518,1.2305807 L139.087518,10.2025842 C139.087518,20.0760808 138.872877,19.3033724 141.448571,19.6467983 C141.706141,19.6467983 143.895481,17.672099 146.38532,15.1822607 L146.38532,15.1822607 Z M305.133974,19.1745876 C305.777898,18.5306639 305.73497,16.2983951 305.048118,13.4651309 L304.490051,11.3187186 L303.588557,13.2504896 C302.171925,16.2554669 302.472423,19.6897266 304.146625,19.6897266 C304.404194,19.6897266 304.833476,19.4750853 305.133974,19.1745876 L305.133974,19.1745876 Z M163.25612,16.3413234 C165.059107,16.2125386 165.273748,16.1266821 165.273748,15.1393325 C165.273748,14.5812653 164.586896,12.7353507 163.771259,11.0611491 C162.354627,8.27081308 162.182914,7.24053517 163.170264,7.24053517 C163.384905,7.24053517 163.942972,7.88445886 164.415183,8.6571673 L165.273748,10.0308712 L165.187891,5.73804655 L165.059107,1.44522193 L163.814188,1.31643719 C162.740981,1.18765245 162.05413,1.65986316 159.220865,4.49312741 L155.829534,7.88445886 L155.829534,10.6318666 L155.829534,13.4222026 L158.319372,15.9549692 C160.594569,18.2730945 160.766282,18.3589509 160.980923,17.4574578 C161.195565,16.6418211 161.538991,16.4701081 163.25612,16.3413234 L163.25612,16.3413234 Z M46.7917884,10.6747949 C46.7917884,6.63953972 47.5215686,4.32141443 49.1528419,2.94771055 C50.0972633,2.17500212 49.2816267,1.65986316 47.0922861,1.65986316 C45.847367,1.65986316 45.1175868,1.96036088 44.1731654,2.9047823 C42.9711745,4.14970144 42.9282462,4.27848618 42.9282462,8.70009554 C42.9282462,12.8641354 43.0141027,13.2504896 43.8726676,13.8514851 C44.3878066,14.2378393 45.2892998,14.538337 45.8044387,14.538337 C46.7488601,14.538337 46.7917884,14.4095523 46.7917884,10.6747949 L46.7917884,10.6747949 Z M154.541686,10.3742971 C154.541686,9.30109099 154.498758,9.25816274 153.854834,9.90208644 C153.46848,10.2884407 153.296767,10.8035796 153.425552,11.0611491 C153.983619,11.919714 154.541686,11.5333598 154.541686,10.3742971 L154.541686,10.3742971 Z M41.2111164,9.60158871 C41.2111164,9.00059327 41.0823316,8.52838256 40.9106187,8.52838256 C40.4384079,8.52838256 37.7768567,10.2025842 37.7768567,10.4601536 C37.7768567,10.5889384 38.5495651,10.6747949 39.4939865,10.6747949 C41.0394034,10.6747949 41.2111164,10.5889384 41.2111164,9.60158871 L41.2111164,9.60158871 Z M153.425552,8.14202834 C154.498758,7.02589394 154.584615,6.68246797 154.45583,4.19262969 L154.327045,1.44522193 L149.30444,1.31643719 C146.514104,1.27350894 144.238907,1.35936544 144.238907,1.53107842 C144.238907,1.91743264 151.622566,9.38694748 151.965992,9.38694748 C152.137705,9.38694748 152.781628,8.82888028 153.425552,8.14202834 L153.425552,8.14202834 Z M88.4321872,4.45019917 C88.4321872,1.53107842 88.3463307,1.2305807 87.5736223,1.2305807 C86.8009139,1.2305807 86.7150574,1.53107842 86.7150574,4.19262969 C86.7150574,6.68246797 86.8438421,7.19760692 87.4877658,7.36931991 C87.87412,7.49810465 88.2604742,7.58396114 88.3463307,7.62688939 C88.389259,7.62688939 88.4321872,6.21025726 88.4321872,4.45019917 L88.4321872,4.45019917 Z M71.6901712,4.45019917 C71.6901712,2.86185406 71.5184582,1.65986316 71.2608887,1.65986316 C71.0033193,1.65986316 70.8316063,2.86185406 70.8316063,4.45019917 C70.8316063,6.03854428 71.0033193,7.24053517 71.2608887,7.24053517 C71.5184582,7.24053517 71.6901712,6.03854428 71.6901712,4.45019917 L71.6901712,4.45019917 Z M78.9879731,7.02589394 C78.9879731,5.65219006 76.4122783,2.81892581 74.6092919,2.13207387 L73.4073011,1.65986316 L73.4073011,4.45019917 L73.4073011,7.24053517 L76.1976371,7.24053517 C77.7430539,7.24053517 78.9879731,7.15467868 78.9879731,7.02589394 L78.9879731,7.02589394 Z M82.4222328,4.23555793 L82.4222328,1.2305807 L79.846538,1.2305807 C78.4299059,1.2305807 77.2708432,1.35936544 77.2708432,1.48815018 C77.2708432,1.65986316 77.8718387,2.43257159 78.6016188,3.29113652 C79.331399,4.1067732 80.1470357,5.35169234 80.3616769,6.03854428 C80.6192464,6.76832446 81.0914571,7.24053517 81.6065961,7.24053517 C82.3363763,7.24053517 82.4222328,6.8971092 82.4222328,4.23555793 L82.4222328,4.23555793 Z M84.9979275,4.23555793 C84.9979275,2.51842809 84.8262145,1.2305807 84.5686451,1.2305807 C84.3110756,1.2305807 84.1393626,2.51842809 84.1393626,4.23555793 C84.1393626,5.95268778 84.3110756,7.24053517 84.5686451,7.24053517 C84.8262145,7.24053517 84.9979275,5.95268778 84.9979275,4.23555793 L84.9979275,4.23555793 Z M91.4371645,4.27848618 C91.4371645,2.69014107 91.4800927,2.64721282 93.1972226,2.38964335 C96.3309845,1.96036088 96.245128,1.2305807 93.0255096,1.2305807 L90.1493171,1.2305807 L90.1493171,3.59163424 C90.1493171,5.39462058 90.2781018,5.95268778 90.7932408,5.95268778 C91.2654515,5.95268778 91.4371645,5.48047708 91.4371645,4.27848618 L91.4371645,4.27848618 Z M100.237455,3.59163424 C100.237455,0.973011221 99.2930335,0.543728759 97.4900472,2.26085861 C96.8031952,2.9047823 95.6012044,3.50577775 94.7426394,3.67749073 C93.4118638,3.89213196 93.1542943,4.1067732 93.1542943,4.96533812 C93.1542943,5.95268778 93.1972226,5.99561603 96.7173388,5.86683129 L100.237455,5.73804655 L100.237455,3.59163424 L100.237455,3.59163424 Z M103.371217,4.14970144 C103.500002,2.73306932 103.628786,2.60428458 105.26006,2.38964335 C106.204481,2.26085861 107.234759,1.91743264 107.492329,1.65986316 C107.835755,1.31643719 107.191831,1.2305807 104.959562,1.31643719 L101.954585,1.44522193 L101.8258,3.11942353 C101.739944,4.0209167 101.782872,5.05119461 101.911657,5.39462058 C102.340939,6.51075498 103.242432,5.73804655 103.371217,4.14970144 L103.371217,4.14970144 Z M180.513275,2.17500212 C180.770845,1.27350894 180.684988,1.18765245 179.783495,1.31643719 C178.882002,1.44522193 178.796146,1.70279141 178.710289,3.80627547 L178.581504,6.16732902 L179.397141,4.6648404 C179.826423,3.84920372 180.341562,2.73306932 180.513275,2.17500212 L180.513275,2.17500212 Z M215.929079,3.59163424 L215.929079,1.2305807 L213.052886,1.2305807 C209.833268,1.2305807 209.747411,1.96036088 212.881173,2.38964335 C214.598303,2.64721282 214.641231,2.69014107 214.641231,4.27848618 C214.641231,5.48047708 214.812944,5.95268778 215.285155,5.95268778 C215.800294,5.95268778 215.929079,5.39462058 215.929079,3.59163424 L215.929079,3.59163424 Z M218.848199,4.14970144 C218.976984,2.73306932 219.105769,2.60428458 220.737042,2.38964335 C223.827876,1.96036088 223.699091,1.2305807 220.522401,1.2305807 L217.646208,1.2305807 L217.646208,3.63456249 C217.646208,5.35169234 217.817921,5.99561603 218.204276,5.86683129 C218.461845,5.73804655 218.762343,4.96533812 218.848199,4.14970144 L218.848199,4.14970144 Z M158.061803,3.50577775 C158.963296,2.64721282 159.693076,1.74571965 159.693076,1.53107842 C159.693076,1.35936544 158.877439,1.2305807 157.89009,1.31643719 C156.044175,1.44522193 156.044175,1.44522193 155.91539,3.29113652 C155.829534,4.27848618 155.91539,5.09412286 156.130032,5.09412286 C156.301745,5.09412286 157.160309,4.36434267 158.061803,3.50577775 L158.061803,3.50577775 Z" id="Shape"></path>
                    <path d="M243.654565,40.321954 C243.482852,39.9355998 243.568709,39.4204608 243.78335,39.2058196 C244.384345,38.6048242 245.715121,39.2487479 245.543408,40.0643845 C245.371695,41.008806 243.955063,41.1805189 243.654565,40.321954 L243.654565,40.321954 Z" id="Shape"></path>
                    <path d="M143.798597,51.1312046 C143.412242,50.1438549 144.270807,49.4999312 144.914731,50.2726397 C145.472798,50.9594916 145.215229,51.8180565 144.485449,51.8180565 C144.270807,51.8180565 143.97031,51.5175588 143.798597,51.1312046 L143.798597,51.1312046 Z" id="Shape"></path>
                    <path d="M147.452045,51.1312046 C147.065691,50.1438549 147.924256,49.4999312 148.568179,50.2726397 C149.126247,50.9594916 148.868677,51.8180565 148.138897,51.8180565 C147.924256,51.8180565 147.623758,51.5175588 147.452045,51.1312046 L147.452045,51.1312046 Z" id="Shape"></path>
                    <path d="M157.212088,41.5187067 C156.868662,40.874783 157.340873,40.187931 158.113581,40.187931 C158.499935,40.187931 158.714576,40.4884288 158.62872,40.9177112 C158.457007,41.7762761 157.598442,42.1197021 157.212088,41.5187067 L157.212088,41.5187067 Z" id="Shape"></path>
                    <path d="M58.473211,23.9112142 C58.5590675,23.4819317 58.9024935,23.1385057 59.2459195,23.1385057 C59.5893454,23.1385057 59.9327714,23.4819317 60.0186279,23.9112142 C60.1044844,24.4263531 59.8898431,24.6409944 59.2459195,24.6409944 C58.6019958,24.6409944 58.3873545,24.4263531 58.473211,23.9112142 L58.473211,23.9112142 Z" id="Shape"></path>
                    <path d="M64.5844608,23.9112142 C64.6703173,23.4819317 65.0137433,23.1385057 65.3571692,23.1385057 C66.3015907,23.1385057 66.1298777,24.3834249 65.2283845,24.5551379 C64.6273891,24.6839226 64.4556761,24.5122096 64.5844608,23.9112142 L64.5844608,23.9112142 Z" id="Shape"></path>
                </g>
            </g>
        </g>
    </g>
</svg>