<?xml version="1.0" encoding="UTF-8" standalone="no"?>
<svg width="102px" height="15px" viewBox="0 0 102 15" version="1.1" xmlns="http://www.w3.org/2000/svg" xmlns:xlink="http://www.w3.org/1999/xlink" xmlns:sketch="http://www.bohemiancoding.com/sketch/ns">
    <!-- Generator: Sketch 3.4.2 (15857) - http://www.bohemiancoding.com/sketch -->
    <title>right</title>
    <desc>Created with Sketch.</desc>
    <defs></defs>
    <g id="Page-1" stroke="none" stroke-width="1" fill="none" fill-rule="evenodd" sketch:type="MSPage">
        <g id="Letter" sketch:type="MSArtboardGroup" transform="translate(-399.000000, -117.000000)" fill="#C4F6DA">
            <g id="letter" sketch:type="MSLayerGroup" transform="translate(106.000000, 86.000000)">
                <g id="title" transform="translate(8.000000, 0.000000)" sketch:type="MSShapeGroup">
                    <g id="right" transform="translate(336.000000, 38.500000) scale(-1, 1) translate(-336.000000, -38.500000) translate(285.000000, 31.000000)">
                        <path d="M69.9533495,6.87393407 C67.4513495,4.99233407 64.8131495,3.27753407 62.2313495,1.50813407 C61.5101495,1.01373407 60.5777495,0.0429340723 59.6603495,0.00153407229 C58.8551495,-0.0350659277 58.6937495,0.588934072 58.8575495,1.26333407 C59.2973495,3.07413407 61.0607495,4.78653407 62.5397495,5.78493407 C64.3133495,6.98133407 66.4523495,7.64913407 68.5961495,7.50633407 C69.1991495,7.46673407 68.6369495,6.55113407 68.2109495,6.54513407 C66.5567495,6.52173407 65.0003495,6.23793407 63.5405495,5.41773407 C62.5685495,4.87113407 59.6375495,2.76633407 60.1247495,1.43073407 C60.3299495,0.867934072 60.6719495,1.39173407 61.1495495,1.71033407 C61.5449495,1.97313407 61.9397495,2.23593407 62.3351495,2.49873407 C63.1247495,3.02433407 63.9155495,3.54933407 64.7069495,4.07253407 C66.3635495,5.16873407 68.0021495,6.30273407 69.7037495,7.32813407 C70.0577495,7.54173407 70.2539495,7.10013407 69.9533495,6.87393407" id="Fill-92"></path>
                        <path d="M69.8624083,6.91259977 C68.5142083,7.24019977 67.5824083,8.16899977 66.6260083,9.12119977 C65.2232083,10.5173998 63.6620083,11.5433998 61.9412083,12.5027998 C61.5842083,12.7019998 61.1732083,13.2071998 61.4132083,12.6095998 C61.5644083,12.2333998 61.9334083,11.8919998 62.2004083,11.5877998 C62.7962083,10.9079998 63.4622083,10.2857998 64.1864083,9.74519977 C65.5994083,8.69039977 67.1840083,8.15639977 68.7338083,7.36739977 C69.1928083,7.13339977 68.5274083,6.57059977 68.2208083,6.60119977 C66.1118083,6.81179977 64.1264083,8.07599977 62.5610083,9.44639977 C61.6880083,10.2101998 59.1992083,12.2717998 60.2576083,13.6697998 C61.3052083,15.0545998 63.8360083,12.8135998 64.7426083,12.1835998 C66.7532083,10.7873998 68.0990083,8.66939977 70.1924083,7.40459977 C70.4552083,7.24559977 70.0832083,6.85919977 69.8624083,6.91259977" id="Fill-93"></path>
                        <path d="M63.6683732,6.70503899 C63.7433732,6.70263899 63.8177732,6.70023899 63.8927732,6.69723899 C63.9593732,6.69543899 63.9167732,6.60903899 63.8681732,6.60783899 C63.7919732,6.60543899 63.7157732,6.60303899 63.6401732,6.60003899 C63.5633732,6.59763899 63.6101732,6.70683899 63.6683732,6.70503899" id="Fill-94"></path>
                        <path d="M57.2528335,7.14283108 C54.5234335,5.13463108 51.7556335,3.17983108 48.9896335,1.22143108 C48.3638335,0.778631081 45.3860335,-1.18756892 45.6122335,1.05043108 C45.7982335,2.89003108 48.3608335,4.56283108 49.8290335,5.30203108 C51.9122335,6.35143108 54.5660335,7.45603108 56.9102335,7.58323108 C57.5120335,7.61563108 57.1310335,6.89503108 56.7980335,6.77683108 C55.1582335,6.19543108 53.4620335,5.80663108 51.8318335,5.18323108 C50.3144335,4.60363108 47.6216335,3.56143108 47.0108335,1.85743108 C46.7264335,1.65643108 46.7156335,1.46083108 46.9790335,1.26943108 C47.1098335,0.909431081 47.3246335,0.899831081 47.6240335,1.23943108 C48.0386335,1.35283108 48.5096335,1.84063108 48.8588335,2.07823108 C49.7648335,2.69263108 50.6702335,3.30763108 51.5756335,3.92203108 C53.3822335,5.14843108 55.1990335,6.35983108 57.0278335,7.55323108 C57.3392335,7.75603108 57.5270335,7.34443108 57.2528335,7.14283108" id="Fill-95"></path>
                        <path d="M57.0828185,7.0536909 C56.4006185,8.2902909 55.7304185,9.5232909 54.8394185,10.6266909 C54.0168185,11.6460909 52.4946185,13.2606909 51.0666185,13.3560909 C49.9602185,13.4298909 51.0894185,12.6804909 51.5262185,12.2616909 C52.1244185,11.6892909 52.7220185,11.1162909 53.3196185,10.5432909 C54.5604185,9.3552909 55.7634185,8.2902909 57.1734185,7.3140909 C57.4998185,7.0884909 57.0954185,6.5922909 56.7930185,6.6000909 C54.6744185,6.6576909 52.9548185,9.1638909 51.5652185,10.5156909 C50.7972185,11.2632909 48.0126185,13.0926909 49.7736185,14.2170909 C51.0708185,15.0456909 53.0172185,13.8342909 54.0048185,13.0254909 C55.7316185,11.6100909 56.9124185,9.5364909 57.7074185,7.4766909 C57.8142185,7.1994909 57.2430185,6.7638909 57.0828185,7.0536909" id="Fill-96"></path>
                        <path d="M46.004597,6.82095682 C44.253197,5.28795682 42.496997,3.62775682 40.458197,2.47815682 C39.171197,1.75215682 37.016597,0.678156823 35.558597,1.49055682 C35.233397,1.67235682 35.480597,2.07435682 35.659397,2.24655682 C38.097797,4.59075682 41.722397,7.65495682 45.267197,7.88775682 C45.783197,7.92195682 45.585797,7.26855682 45.268397,7.12515682 C43.685597,6.41115682 42.064997,5.92035682 40.561397,5.01315682 C38.971397,4.05375682 37.537397,2.87715682 36.181397,1.61535682 C36.214997,1.86735682 36.247997,2.11935682 36.281597,2.37135682 C37.663997,1.55895682 40.056197,3.04215682 41.184797,3.77595682 C42.765797,4.80495682 44.122997,6.14595682 45.657797,7.23975682 C46.041197,7.51275682 46.368797,7.13895682 46.004597,6.82095682" id="Fill-97"></path>
                        <path d="M45.2866851,7.32806923 C43.0474851,9.92846923 40.2778851,11.7410692 36.8884851,12.4316692 C37.1308851,12.7244692 37.3732851,13.0172692 37.6150851,13.3106692 C38.7364851,12.0218692 40.0090851,10.9274692 41.4808851,10.0538692 C42.8482851,9.24206923 44.4280851,8.82866923 45.7708851,8.01206923 C46.2214851,7.73726923 45.5776851,7.15106923 45.2290851,7.20326923 C42.0070851,7.68446923 38.7502851,10.1246692 36.6886851,12.5444692 C36.3574851,12.9332692 37.0330851,13.5062692 37.4152851,13.4234692 C40.8358851,12.6824692 43.9750851,10.8092692 46.0048851,7.92146923 C46.2568851,7.56206923 45.5770851,6.99086923 45.2866851,7.32806923" id="Fill-98"></path>
                        <path d="M34.9318308,6.68875517 C33.7840308,5.23435517 32.4280308,3.70975517 30.7894308,2.79535517 C30.1774308,2.45395517 27.6544308,1.31335517 27.1246308,2.03455517 C26.4838308,2.90695517 28.4974308,4.54615517 29.0050308,4.91875517 C30.4882308,6.00895517 32.4550308,7.47235517 34.3882308,7.38475517 C34.9816308,7.35835517 34.6726308,6.65335517 34.2712308,6.54475517 C32.9680308,6.19195517 31.8082308,5.72875517 30.6634308,5.00635517 C30.0808308,4.63855517 29.4250308,4.24375517 28.9120308,3.77035517 C28.3252308,3.22795517 27.7618308,2.78155517 28.8406308,2.97895517 C31.3024308,3.43015517 32.7922308,5.41495517 34.5382308,7.01335517 C34.8106308,7.26295517 35.1850308,7.00975517 34.9318308,6.68875517" id="Fill-99"></path>
                        <path d="M34.3396914,6.78871413 C32.5666914,8.86591413 30.8104914,10.6347141 28.3564914,11.9109141 C28.6582914,12.1605141 28.9606914,12.4107141 29.2624914,12.6603141 C29.5576914,11.3577141 30.1918914,10.2279141 31.1752914,9.31891413 C32.1826914,8.38771413 33.4108914,8.01931413 34.5568914,7.32871413 C34.9858914,7.07011413 34.3600914,6.58591413 34.0684914,6.60031413 C31.2442914,6.74071413 28.7878914,9.45991413 28.2106914,12.0873141 C28.1146914,12.5241141 28.6852914,13.0683141 29.1166914,12.8367141 C31.4800914,11.5683141 33.7456914,9.63991413 34.9684914,7.21471413 C35.1100914,6.93451413 34.5520914,6.53971413 34.3396914,6.78871413" id="Fill-100"></path>
                        <path d="M25.2203827,6.92778795 C23.2373827,4.74078795 20.8289827,3.08178795 17.7899827,3.00018795 C17.5823827,2.99478795 17.4059827,3.10578795 17.4005827,3.32778795 C17.3663827,4.73718795 18.8447827,5.66478795 19.9493827,6.22638795 C21.0959827,6.80898795 23.1569827,7.82838795 24.4559827,7.34718795 C24.8567827,7.19838795 24.3449827,6.69318795 24.1631827,6.62058795 C23.2211827,6.24258795 22.1615827,6.18738795 21.1979827,5.82078795 C20.3141827,5.48418795 18.4529827,4.79898795 18.4445827,3.64998795 C18.3149827,3.75918795 18.1847827,3.86778795 18.0551827,3.97698795 C20.9039827,3.96918795 22.7645827,5.53038795 24.8303827,7.24998795 C25.1003827,7.47498795 25.5017827,7.23798795 25.2203827,6.92778795" id="Fill-101"></path>
                        <path d="M24.3995887,6.88546399 C23.8649887,7.77646399 23.2511887,8.61886399 22.5587887,9.39346399 C22.1417887,9.86026399 21.6899887,10.306064 21.1859887,10.678064 C20.8943887,10.893464 20.1533887,11.486264 19.7765887,11.414864 C19.9439887,11.507864 20.1113887,11.600264 20.2787887,11.693264 C20.0741887,11.409464 20.4635887,10.598864 20.5865887,10.373864 C20.9123887,9.77506399 21.3635887,9.26986399 21.9155887,8.86966399 C22.7753887,8.24566399 24.0215887,8.01586399 24.7349887,7.23346399 C25.0061887,6.93706399 24.4625887,6.58546399 24.2117887,6.60046399 C22.8365887,6.68566399 21.1895887,7.72306399 20.2865887,8.73826399 C19.6097887,9.49846399 18.7517887,11.011064 19.4741887,12.017864 C20.1905887,13.016864 21.6773887,11.719664 22.2761887,11.189264 C23.4605887,10.141064 24.4415887,8.78686399 25.0481887,7.32526399 C25.1669887,7.03846399 24.5771887,6.59026399 24.3995887,6.88546399" id="Fill-102"></path>
                        <path d="M101.399731,6.89707766 C76.2909313,6.37927766 51.1497313,6.69547766 26.0361313,6.69667766 C22.4499313,6.69667766 18.8643313,6.69667766 15.2781313,6.69727766 C11.8773313,6.69727766 8.43213134,6.52867766 5.04333134,6.83767766 C4.47153134,6.88987766 5.04093134,7.67467766 5.39073134,7.70527766 C8.57253134,7.97887766 11.7987313,7.83967766 14.9907313,7.84027766 L24.2547313,7.84027766 C30.5307313,7.84087766 36.8067313,7.84087766 43.0821313,7.84147766 C55.5327313,7.84207766 67.9827313,7.85647766 80.4327313,7.82167766 C87.4899313,7.80187766 94.5459313,7.78747766 101.601331,7.63987766 C102.152731,7.62847766 101.803531,6.90547766 101.399731,6.89707766" id="Fill-103"></path>
                        <path d="M12.810186,6.31614102 C13.231386,6.68334102 13.417386,7.24614102 13.140786,7.76214102 C12.906186,8.19894102 12.326586,8.56134102 11.820186,8.39334102 C11.335986,8.23194102 11.191386,7.66074102 11.357586,7.22154102 C11.488986,6.87414102 12.396186,6.00234102 12.709986,6.63114102 C12.845586,6.90294102 13.473186,7.17114102 13.507386,6.69174102 C13.606386,5.30454102 11.717586,5.09034102 10.876986,5.78334102 C9.89418597,6.59274102 10.041186,8.00094102 10.933386,8.81454102 C11.782986,9.58974102 13.193586,9.63654102 13.903986,8.63574102 C14.572986,7.69434102 14.101986,6.28974102 13.084386,5.81694102 C12.672786,5.62614102 12.495186,6.04074102 12.810186,6.31614102" id="Fill-104"></path>
                        <path d="M6.36519184,7.04409181 C5.22819184,6.22929181 3.79599184,5.63409181 2.40699184,5.43189181 C1.37439184,5.28129181 -0.0926081607,5.64309181 0.00459183934,6.96729181 C0.0825918393,8.02509181 1.14459184,8.59929181 2.06679184,8.79069181 C3.57219184,9.10329181 5.07819184,8.66229181 6.38199184,7.90869181 C6.80019184,7.66689181 6.25899184,7.08729181 5.94039184,7.08069181 C5.19819184,7.06449181 4.76079184,7.45809181 4.05579184,7.67289181 C3.51279184,7.83849181 0.888991839,8.23629181 1.08519184,6.99309181 C1.18599184,6.35229181 2.21559184,6.33849181 2.66319184,6.37629181 C3.12579184,6.41529181 3.60579184,6.55629181 4.04799184,6.68709181 C4.78899184,6.90669181 5.49339184,7.21809181 6.21339184,7.49469181 C6.53739184,7.61889181 6.58179184,7.19949181 6.36519184,7.04409181" id="Fill-105"></path>
                    </g>
                </g>
            </g>
        </g>
    </g>
</svg>