<?xml version="1.0" encoding="UTF-8" standalone="no"?>
<svg width="109px" height="20px" viewBox="0 0 109 20" version="1.1" xmlns="http://www.w3.org/2000/svg" xmlns:xlink="http://www.w3.org/1999/xlink" xmlns:sketch="http://www.bohemiancoding.com/sketch/ns">
    <!-- Generator: Sketch 3.4.2 (15857) - http://www.bohemiancoding.com/sketch -->
    <title>ornaments</title>
    <desc>Created with Sketch.</desc>
    <defs></defs>
    <g id="Page-1" stroke="none" stroke-width="1" fill="none" fill-rule="evenodd" sketch:type="MSPage">
        <g id="Letter" sketch:type="MSArtboardGroup" transform="translate(-253.000000, -86.000000)" fill="#FCD4D4">
            <g id="letter" sketch:type="MSLayerGroup" transform="translate(106.000000, 86.000000)">
                <g id="title" transform="translate(8.000000, 0.000000)" sketch:type="MSShapeGroup">
                    <g id="ornaments" transform="translate(139.000000, 0.000000)">
                        <path d="M86.3735514,13.7023761 C84.6605194,12.3230444 82.7589218,10.5632833 81.7143901,8.59681479 C81.1283528,7.49400916 81.4230207,6.55667934 82.6720607,6.95580042 C83.2861355,7.15206244 83.8490831,7.64903966 84.3323165,8.06410359 C85.2042256,8.8145172 85.9469427,9.71556327 86.5175869,10.7144655 C87.1388084,11.8029775 87.6291886,13.2867624 87.5346309,14.5731857 C87.1393581,14.2939109 86.7501326,14.00584 86.3735514,13.7023761 L86.3735514,13.7023761 Z M22.876466,10.3054488 C23.5559614,9.29665106 24.4058804,8.39560499 25.3871905,7.67652734 C25.7533264,7.4082476 26.3860927,6.8826832 26.8709754,6.88323296 C27.9968706,6.88488222 27.3783979,8.11468092 27.0095133,8.65618817 C25.4394171,10.9596556 23.5125309,12.879395 21.3481511,14.4022123 C21.4339127,12.9360196 22.2239086,11.2741146 22.876466,10.3054488 L22.876466,10.3054488 Z M108.479692,17.3736303 C103.343344,19.020692 97.8749456,19.1828693 92.7649863,17.3258017 C91.3257315,16.8029861 89.943651,16.1240405 88.6434839,15.3142535 C88.6434839,15.3126042 88.6440336,15.310955 88.6445834,15.3093057 C88.9540946,13.2559762 87.9876279,11.1553678 86.8298469,9.52095051 C85.7737703,8.02946912 84.0849274,6.25101637 82.2146658,5.87058691 C81.5577103,5.73644704 80.7077913,5.7534894 80.2806328,6.3642656 C79.7303295,7.15096294 80.3422052,8.10643462 80.7743115,8.77603445 C82.4779977,11.4176003 84.7534277,13.6842342 87.3587098,15.4544406 C87.0717385,16.2785212 86.4340243,16.9321782 85.2707458,17.1966097 C80.3746406,18.3104104 75.7567108,14.2169454 72.4021146,11.2521245 C72.1299866,11.0113324 71.6055217,10.9668024 71.5593424,11.420349 C71.1167908,15.7645016 66.358124,17.4824815 62.610454,16.3747281 C58.8677318,15.2680742 55.3729484,11.761746 55.2998312,7.69796772 C55.2305623,3.86618544 58.6588254,-0.165157379 62.7676835,1.40988656 C64.6307983,2.12456618 65.5142523,4.20868191 65.0788475,6.10038389 C64.8869835,6.93490979 64.4191432,7.72600516 63.7083119,8.22188286 C63.3977011,8.44013502 63.0568539,8.59571528 62.6857702,8.68917339 C62.1101783,8.90907481 61.689067,8.72435761 61.4224366,8.13612131 C60.7654811,7.81836375 60.6588289,7.38955598 61.10248,6.84914824 C61.4614691,6.44837789 61.9194138,6.34612373 62.4757644,6.541836 C62.9611968,6.82605859 63.1898943,6.24991686 62.8094648,5.93380857 C61.5846139,4.91511523 59.560971,5.58251604 59.7000587,7.34942397 C59.8429946,9.1625112 61.8292542,10.1619632 63.4565247,9.70346869 C67.6692862,8.51655077 66.8039741,2.55832173 63.607707,0.770523172 C59.7352429,-1.39605559 55.4537622,1.3004856 54.4235241,5.20098708 C53.4273706,1.98163026 50.4510049,-0.493910005 46.8297782,0.126761759 C42.8721023,0.8057074 41.0551668,6.06739868 44.2178991,8.81286794 C45.7016839,10.1009405 48.8055925,10.3928597 49.237149,7.88378443 C49.5373145,6.14161541 47.3756835,4.65673106 45.989205,5.88762927 C45.6588031,6.18174742 46.3514926,6.7501926 46.6741979,6.5737217 C47.7539139,5.98328639 48.3833817,7.11687822 47.8699119,7.94590658 C47.4075692,8.69192215 46.5862374,8.82056448 45.7989903,8.61330739 C44.6478063,8.30984343 44.0133907,7.29719738 43.8330716,6.17515038 C43.5526973,4.42803358 44.3415936,2.59020744 45.8984957,1.70840274 C47.5867888,0.752381305 49.8677163,0.973931988 51.4020785,2.13391199 C53.0447421,3.37635503 53.7385311,5.56162541 53.647272,7.5550318 C53.4762987,11.291157 50.510928,14.4769788 47.2190037,15.9233804 C43.4867268,17.5632953 37.8913351,16.6149704 37.3971067,11.7666938 C37.3514771,11.3175451 36.7621413,10.8321127 36.3531247,11.1933008 C34.4971567,12.8343152 32.5911611,14.4604862 30.4196346,15.6737923 C28.3311208,16.8403694 25.3976358,17.9310804 22.994663,17.1097486 C22.180478,16.8310235 21.7252821,16.3164542 21.5059304,15.6875361 C23.8858136,14.1399799 26.0007155,12.1537203 27.6956057,9.77548641 C28.5444252,8.58472021 29.7692761,6.39285278 27.5378264,5.85519381 C25.7874111,5.43408258 24.0501899,7.04541025 22.9677251,8.20813902 C21.4976841,9.78813074 20.0204963,12.7502029 20.3289081,15.081158 C14.4943736,18.7298723 7.14636755,19.6259706 0.309082579,17.3862746 C-0.175250303,17.2279456 -0.0240680757,17.8596124 0.309632332,17.989904 C7.05730747,20.6281713 14.6147696,19.7875982 20.6549119,16.2158493 C21.0507345,17.0492757 21.7890535,17.7232736 22.9952128,18.1004045 C27.9831268,19.6595056 32.9144162,15.8365194 36.5372921,12.680934 C37.6653864,16.4577409 41.9072849,18.4104655 45.7539105,17.6133229 C49.7231312,16.7914413 53.5301745,13.5748332 54.528527,9.56273178 C55.4620085,12.7804393 58.162398,15.4747815 61.2008859,16.8381703 C65.4647745,18.7518625 71.4785286,17.5605465 72.5510978,12.5616374 C75.8979974,15.4786298 79.8369817,18.5182172 84.4642573,18.3719828 C86.195981,18.3170074 87.7924654,17.6946864 88.4164357,16.1460306 C89.3894994,16.7353664 90.4004962,17.2598313 91.4433787,17.7040322 C96.9332177,20.0454326 103.332349,20.1966148 108.88486,17.9772597 C109.215812,17.8453189 108.755668,17.28512 108.479692,17.3736303 L108.479692,17.3736303 Z" id="Fill-201"></path>
                    </g>
                </g>
            </g>
        </g>
    </g>
</svg>